<?xml version="1.0" standalone="no"?>
<!DOCTYPE svg PUBLIC "-//W3C//DTD SVG 1.1//EN" "http://www.w3.org/Graphics/SVG/1.1/DTD/svg11.dtd" >
<svg>
<metadata>
Created by FontForge 20120731 at Mon Jul 15 21:53:00 2019
 By www
Copyright (c) 2014 by Eduardo Manso. All rights reserved.
</metadata>
<defs>
<font id="ShentoxW04-Regular" horiz-adv-x="526" >
  <font-face 
    font-family="ShentoxW04-Regular"
    font-weight="400"
    font-stretch="normal"
    units-per-em="1000"
    panose-1="1 0 0 0 0 0 0 0 0 0"
    ascent="800"
    descent="-200"
    x-height="501"
    cap-height="697"
    bbox="-160 -201 1378 936"
    underline-thickness="50"
    underline-position="-75"
    unicode-range="U+000D-FF19"
  />
<missing-glyph horiz-adv-x="837" 
d="M82 514q0 91 48 139t139 48h298q91 0 139 -48t48 -139v-331q0 -91 -48 -139t-139 -48h-298q-91 0 -139 48t-48 139v331zM269 659q-69 0 -105 -35.5t-36 -104.5v-341q0 -69 36 -104.5t105 -35.5h298q69 0 105 35.5t36 104.5v341q0 69 -36 104.5t-105 35.5h-298zM421 390
l111 104q10 9 15 18t5 23v37h64v-44q0 -26 -13 -43.5t-26 -28.5l-115 -103l128 -112q14 -14 22 -30t8 -37v-51h-65v43q0 14 -5 23.5t-15 18.5l-120 107l-114 -109q-10 -9 -15 -18t-5 -23v-42h-64v44q0 27 13 46.5t26 30.5l118 106l-122 110q-14 13 -22.5 29.5t-8.5 36.5v46
h65v-38q0 -25 20 -42z" />
    <glyph glyph-name="uniFB01" unicode="fi" horiz-adv-x="552" 
d="M413 501h67v-501h-67v501zM411 697h71v-102h-71v102zM174 439v-439h-67v439h-83v59h83v65q0 134 134 134h86v-59h-87q-66 0 -66 -68v-72h152v-59h-152z" />
    <glyph glyph-name="uniFB02" unicode="fl" horiz-adv-x="554" 
d="M482 697v-697h-67v697h67zM174 439v-439h-67v439h-83v59h83v65q0 134 134 134h86v-59h-87q-66 0 -66 -68v-72h152v-59h-152z" />
    <glyph glyph-name=".notdef" horiz-adv-x="837" 
d="M82 514q0 91 48 139t139 48h298q91 0 139 -48t48 -139v-331q0 -91 -48 -139t-139 -48h-298q-91 0 -139 48t-48 139v331zM269 659q-69 0 -105 -35.5t-36 -104.5v-341q0 -69 36 -104.5t105 -35.5h298q69 0 105 35.5t36 104.5v341q0 69 -36 104.5t-105 35.5h-298zM421 390
l111 104q10 9 15 18t5 23v37h64v-44q0 -26 -13 -43.5t-26 -28.5l-115 -103l128 -112q14 -14 22 -30t8 -37v-51h-65v43q0 14 -5 23.5t-15 18.5l-120 107l-114 -109q-10 -9 -15 -18t-5 -23v-42h-64v44q0 27 13 46.5t26 30.5l118 106l-122 110q-14 13 -22.5 29.5t-8.5 36.5v46
h65v-38q0 -25 20 -42z" />
    <glyph glyph-name="glyph1" horiz-adv-x="500" 
 />
    <glyph glyph-name="glyph1" horiz-adv-x="500" 
 />
    <glyph glyph-name="uni000D" unicode="&#xd;" horiz-adv-x="239" 
 />
    <glyph glyph-name="space" unicode=" " horiz-adv-x="239" 
 />
    <glyph glyph-name="exclam" unicode="!" horiz-adv-x="257" 
d="M93 97h73v-97h-73v97zM103 163l-11 201v333h74v-333l-10 -201h-53z" />
    <glyph glyph-name="quotedbl" unicode="&#x22;" horiz-adv-x="319" 
d="M77 421l-11 186v90h63v-90l-11 -186h-41zM201 421l-10 186v90h62v-90l-10 -186h-42z" />
    <glyph glyph-name="numbersign" unicode="#" horiz-adv-x="613" 
d="M77 479h107l47 218h57l-46 -218h184l46 218h58l-46 -218h92v-52h-103l-34 -158h97v-53h-108l-45 -216h-58l45 216h-184l-45 -216h-58l46 216h-92v53h103l33 158h-96v52zM197 269h184l34 158h-184z" />
    <glyph glyph-name="dollar" unicode="$" horiz-adv-x="555" 
d="M309 -4v-106h-62v106h-43q-69 0 -106 32t-37 94v72h69v-76q0 -62 77 -62h139q41 0 58.5 17t17.5 45v129q0 45 -42 56l-226 60q-16 4 -31.5 12t-28 21.5t-20 34t-7.5 49.5v95q0 61 36.5 93.5t107.5 32.5h36v106h62v-106h34q69 0 106 -32.5t37 -93.5v-78h-70v82
q0 62 -76 62h-127q-77 0 -77 -62v-93q0 -26 8.5 -40t34.5 -21l222 -59q48 -13 69.5 -42.5t21.5 -67.5v-134q0 -62 -37 -94t-108 -32h-38z" />
    <glyph glyph-name="percent" unicode="%" horiz-adv-x="752" 
d="M452 290q0 40 22 61t61 21h83q83 0 83 -82v-210q0 -82 -83 -82h-83q-39 0 -61 21t-22 61v210zM510 80q0 -34 33 -34h67q34 0 34 34v209q0 34 -34 34h-67q-33 0 -33 -34v-209zM50 618q0 40 22 61t61 21h83q83 0 83 -82v-210q0 -82 -83 -82h-83q-39 0 -61 21t-22 61v210z
M108 408q0 -34 33 -34h67q34 0 34 34v209q0 34 -34 34h-67q-33 0 -33 -34v-209zM135 -4l426 705h57l-426 -705h-57z" />
    <glyph glyph-name="ampersand" unicode="&#x26;" horiz-adv-x="659" 
d="M453 71l-1 -2q-6 -11 -16 -23.5t-25 -23.5t-36 -18.5t-51 -7.5h-125q-70 0 -106.5 33.5t-36.5 97.5v108q0 31 8.5 53t22.5 37t31.5 25t35.5 17l33 13l-6 8q-7 8 -16 19.5t-16.5 26.5t-12.5 34t-5 41v61q0 64 36 97.5t105 33.5h79q68 0 104 -33.5t36 -97.5v-67h-66v66
q0 74 -75 74h-77q-75 0 -75 -74v-58q0 -29 12 -49.5t21 -31.5l217 -253l57 93q12 20 16.5 35.5t4.5 39.5v38h65v-46q0 -30 -9 -51t-14 -28l-79 -129l7 -8q26 -30 46 -44.5t46 -14.5h37v-62h-45q-37 0 -66 18t-58 50zM326 54q30 0 48 16.5t31 37.5l7 11l-186 216l-42 -16
q-28 -11 -45 -26.5t-17 -53.5v-111q0 -74 75 -74h129z" />
    <glyph glyph-name="quotesingle" unicode="'" horiz-adv-x="196" 
d="M77 421l-11 186v90h65v-90l-11 -186h-43z" />
    <glyph glyph-name="parenleft" unicode="(" horiz-adv-x="295" 
d="M261 -190h-47q-66 0 -101 36.5t-35 106.5v674q0 70 35 106.5t101 36.5h46v-62h-43q-69 0 -69 -74v-688q0 -74 69 -74h44v-62z" />
    <glyph glyph-name="parenright" unicode=")" horiz-adv-x="295" 
d="M35 -128h44q68 0 68 74v688q0 74 -68 74h-44v62h46q66 0 101 -36.5t35 -106.5v-674q0 -70 -35 -106.5t-101 -36.5h-46v62z" />
    <glyph glyph-name="asterisk" unicode="*" horiz-adv-x="460" 
d="M265 504l42 -19q8 -4 24.5 -11.5t34.5 -17.5l44 -25l-24 -41l-44 24q-17 10 -33 20t-22 14l-40 26l4 -47q0 -8 1.5 -26.5t1.5 -38.5v-50h-49v50q0 20 1.5 38.5t1.5 26.5l3 47l-39 -26q-6 -4 -21.5 -14t-32.5 -20l-44 -24l-24 41l44 25q18 10 34.5 17.5t23.5 11.5l42 19
l-42 20q-8 4 -24.5 11.5t-34.5 17.5l-43 24l23 41l44 -24q18 -9 33.5 -19.5t21.5 -14.5l39 -27l-3 49q0 8 -1.5 26.5t-1.5 38.5v50h49v-50q0 -20 -1.5 -38.5t-1.5 -26.5l-4 -49l40 27q6 4 22 14.5t33 19.5l44 24l24 -41l-44 -24q-17 -10 -34 -17.5t-24 -11.5z" />
    <glyph glyph-name="plus" unicode="+" horiz-adv-x="491" 
d="M272 322v-157h-54v157h-156v53h156v157h54v-157h157v-53h-157z" />
    <glyph glyph-name="comma" unicode="," horiz-adv-x="214" 
d="M151 73l-62 -166h-45l33 190h74v-24z" />
    <glyph glyph-name="hyphen" unicode="-" horiz-adv-x="396" 
d="M328 316v-59h-260v59h260z" />
    <glyph glyph-name="period" unicode="." horiz-adv-x="210" 
d="M68 97h74v-97h-74v97z" />
    <glyph glyph-name="slash" unicode="/" horiz-adv-x="446" 
d="M23 -73l334 843h66l-336 -843h-64z" />
    <glyph glyph-name="zero" unicode="0" horiz-adv-x="575" 
d="M74 558q0 69 37 106t106 37h141q69 0 106 -37t37 -106v-419q0 -69 -37 -106t-106 -37h-141q-69 0 -106 37t-37 106v419zM356 58q36 0 55.5 19.5t19.5 57.5v427q0 38 -19.5 57.5t-55.5 19.5h-137q-75 0 -75 -77v-427q0 -77 75 -77h137z" />
    <glyph glyph-name="one" unicode="1" horiz-adv-x="468" 
d="M45 0v61h167v575h-167v61h237v-636h164v-61h-401z" />
    <glyph glyph-name="two" unicode="2" horiz-adv-x="546" 
d="M64 0v172q0 23 4 43.5t14 38t28 31.5t46 25l212 82q20 8 32.5 21.5t12.5 47.5v104q0 37 -19.5 55.5t-55.5 18.5h-127q-75 0 -75 -74v-89h-68v82q0 69 36.5 106t105.5 37h130q69 0 106 -37t37 -106v-95q0 -56 -24.5 -84.5t-60.5 -41.5l-216 -84q-33 -13 -40.5 -29.5
t-7.5 -47.5v-114h357v-62h-427z" />
    <glyph glyph-name="three" unicode="3" horiz-adv-x="555" 
d="M200 -4q-69 0 -105.5 33.5t-36.5 96.5v65h69v-68q0 -66 75 -66h139q36 0 55.5 18t19.5 54v137q0 65 -69 65h-140v60h126q69 0 69 66v112q0 35 -19.5 53t-55.5 18h-124q-74 0 -74 -65v-69h-69v66q0 63 36 96t105 33h128q69 0 106 -34.5t37 -100.5v-96q0 -79 -59 -104
q38 -11 55.5 -38.5t17.5 -69.5v-126q0 -66 -37 -101t-106 -35h-143z" />
    <glyph glyph-name="four" unicode="4" horiz-adv-x="556" 
d="M438 191v-191h-71v191h-340v58l347 450h64v-450h75v-58h-75zM367 599l-270 -350h270v350z" />
    <glyph glyph-name="five" unicode="5" horiz-adv-x="545" 
d="M203 -4q-69 0 -105 33.5t-36 96.5v63h68v-67q0 -34 19.5 -50t55.5 -16h138q75 0 75 72v150q0 71 -75 71h-268v348h393v-62h-324v-226h202q69 0 105.5 -34.5t36.5 -100.5v-142q0 -66 -36.5 -101t-105.5 -35h-143z" />
    <glyph glyph-name="six" unicode="6" horiz-adv-x="565" 
d="M502 139q0 -70 -36.5 -106.5t-106.5 -36.5h-141q-69 0 -106 36.5t-37 106.5v419q0 70 37 106.5t106 36.5h137q69 0 105 -34t36 -99v-57h-68v60q0 34 -19.5 51t-55.5 17h-133q-36 0 -55.5 -18.5t-19.5 -55.5v-167h220q68 0 102.5 -34t34.5 -99v-126zM357 58q75 0 75 74
v136q0 68 -69 68h-218v-204q0 -37 19.5 -55.5t55.5 -18.5h137z" />
    <glyph glyph-name="seven" unicode="7" horiz-adv-x="493" 
d="M121 0l277 635h-374v62h447v-54l-279 -643h-71z" />
    <glyph glyph-name="eight" unicode="8" horiz-adv-x="572" 
d="M214 -4q-69 0 -106 36t-37 103v111q0 94 74 119q-64 28 -64 117v80q0 67 36.5 103t105.5 36h126q69 0 106 -36t37 -103v-80q0 -89 -65 -117q74 -25 74 -119v-111q0 -67 -37 -103t-106 -36h-144zM225 641q-75 0 -75 -75v-100q0 -74 75 -74h123q36 0 55.5 18.5t19.5 55.5
v100q0 37 -19.5 56t-55.5 19h-123zM216 333q-38 0 -56.5 -19.5t-18.5 -55.5v-127q0 -75 75 -75h141q36 0 55.5 19t19.5 56v127q0 36 -19.5 55.5t-55.5 19.5h-141z" />
    <glyph glyph-name="nine" unicode="9" horiz-adv-x="564" 
d="M209 -4q-69 0 -105 34t-36 99v57h68v-60q0 -68 75 -68h133q36 0 55.5 18.5t19.5 55.5v180h-220q-67 0 -102 34.5t-35 99.5v112q0 70 37 106.5t106 36.5h141q72 0 107.5 -36.5t35.5 -106.5v-419q0 -70 -37 -106.5t-106 -36.5h-137zM419 374v191q0 37 -19.5 55.5
t-55.5 18.5h-137q-75 0 -75 -74v-122q0 -69 69 -69h218z" />
    <glyph glyph-name="colon" unicode=":" horiz-adv-x="213" 
d="M70 97h73v-97h-73v97zM70 501h73v-97h-73v97z" />
    <glyph glyph-name="semicolon" unicode=";" horiz-adv-x="243" 
d="M92 501h74v-97h-74v97zM166 73l-62 -166h-45l32 190h75v-24z" />
    <glyph glyph-name="less" unicode="&#x3c;" horiz-adv-x="491" 
d="M48 325v51l367 175v-62l-299 -139l299 -139v-61z" />
    <glyph glyph-name="equal" unicode="=" horiz-adv-x="491" 
d="M429 290v-53h-367v53h367zM429 466v-52h-367v52h367z" />
    <glyph glyph-name="greater" unicode="&#x3e;" horiz-adv-x="491" 
d="M76 150v61l299 139l-299 139v62l367 -175v-51z" />
    <glyph glyph-name="question" unicode="?" horiz-adv-x="528" 
d="M388 427q7 5 18.5 15t11.5 35v88q0 74 -75 74h-165q-75 0 -75 -74v-73h-68v70q0 68 37 103.5t106 35.5h166q70 0 106.5 -34.5t36.5 -101.5v-83q0 -22 -6 -38.5t-15.5 -29t-21 -21.5t-21.5 -16l-106 -72q-17 -11 -25.5 -20.5t-8.5 -32.5v-89h-64v93q0 38 14.5 57.5
t35.5 33.5zM215 97h73v-97h-73v97z" />
    <glyph glyph-name="at" unicode="@" horiz-adv-x="840" 
d="M245 -90q-85 0 -130 45.5t-45 129.5v441q0 85 45 130t130 45h359q84 0 129 -45t45 -130v-303q0 -63 -30.5 -96.5t-90.5 -33.5h-38q-38 0 -67 15t-40 45l-65 -39q-16 -10 -31 -15.5t-41 -5.5h-42q-53 0 -82.5 30.5t-17.5 86.5l41 192q10 49 35.5 76t84.5 27h54
q26 0 39 -5.5t27 -15.5l47 -34l14 51h52l-63 -297q-6 -29 10.5 -45t47.5 -16h30q64 0 64 70v320q0 56 -29 85t-86 29h-354q-57 0 -85.5 -29t-28.5 -85v-454q0 -115 114 -115h363v-54h-365zM383 142q19 0 29.5 4.5t25.5 13.5l69 42q0 2 1 5q1 2 1 4.5t1 4.5l40 188l-51 36
q-12 8 -21 12t-31 4h-53q-28 0 -42.5 -14.5t-20.5 -42.5l-42 -192q-14 -65 57 -65h37z" />
    <glyph glyph-name="A" unicode="A" horiz-adv-x="574" 
d="M116 0h-67v160q0 20 4 36.5t7 23.5l191 479h73l190 -479q3 -6 7 -23t4 -37v-160h-68v152q0 7 -0.5 13t-1.5 12h-338q-1 -6 -1 -12v-13v-152zM137 237h299l-149 393z" />
    <glyph glyph-name="B" unicode="B" horiz-adv-x="613" 
d="M87 697h302q71 0 107 -35t36 -102v-92q0 -37 -15.5 -63.5t-46.5 -40.5q38 -10 57.5 -38t19.5 -68v-121q0 -137 -143 -137h-317v697zM157 636v-244h237q69 0 69 62v113q0 69 -75 69h-231zM157 332v-271h245q75 0 75 71v137q0 63 -69 63h-251z" />
    <glyph glyph-name="C" unicode="C" horiz-adv-x="579" 
d="M525 228v-89q0 -70 -37 -106.5t-106 -36.5h-163q-70 0 -106.5 36.5t-36.5 106.5v419q0 70 36.5 106.5t106.5 36.5h163q69 0 106 -36.5t37 -106.5v-63h-70v70q0 74 -74 74h-160q-75 0 -75 -74v-433q0 -74 75 -74h160q74 0 74 74v96h70z" />
    <glyph glyph-name="D" unicode="D" horiz-adv-x="622" 
d="M87 697h305q76 0 115.5 -40t39.5 -116v-385q0 -76 -39.5 -116t-115.5 -40h-305v697zM393 62q42 0 63 21.5t21 62.5v405q0 41 -21 62.5t-63 21.5h-236v-573h236z" />
    <glyph glyph-name="E" unicode="E" horiz-adv-x="559" 
d="M87 697h421v-61h-351v-245h327v-59h-327v-271h359v-61h-429v697z" />
    <glyph glyph-name="F" unicode="F" horiz-adv-x="546" 
d="M157 307v-307h-70v697h431v-61h-361v-268h337v-61h-337z" />
    <glyph glyph-name="G" unicode="G" horiz-adv-x="591" 
d="M525 139q0 -70 -37 -106.5t-106 -36.5h-163q-70 0 -106.5 36.5t-36.5 106.5v419q0 70 36.5 106.5t106.5 36.5h163q69 0 106 -36.5t37 -106.5v-63h-70v70q0 74 -74 74h-160q-75 0 -75 -74v-433q0 -74 75 -74h160q74 0 74 74v149h-128v58h198v-200v0z" />
    <glyph glyph-name="H" unicode="H" horiz-adv-x="634" 
d="M477 331h-320v-331h-70v697h70v-305h320v305h70v-697h-70v331z" />
    <glyph glyph-name="I" unicode="I" horiz-adv-x="243" 
d="M87 697h70v-697h-70v697z" />
    <glyph glyph-name="J" unicode="J" horiz-adv-x="528" 
d="M445 697v-558q0 -70 -36.5 -106.5t-105.5 -36.5h-127q-69 0 -106 36.5t-37 106.5v82h70v-88q0 -75 75 -75h122q75 0 75 75v564h70z" />
    <glyph glyph-name="K" unicode="K" horiz-adv-x="605" 
d="M157 332v-332h-70v697h70v-306h173l133 128q8 8 11.5 20.5t3.5 27.5v130h67v-145q0 -19 -6.5 -34.5t-16.5 -26.5l-135 -130l143 -165q4 -5 10.5 -18.5t6.5 -32.5v-145h-70v129q0 17 -3.5 26.5t-8.5 14.5l-140 162h-168z" />
    <glyph glyph-name="L" unicode="L" horiz-adv-x="499" 
d="M87 697h70v-636h330v-61h-400v697z" />
    <glyph glyph-name="M" unicode="M" horiz-adv-x="725" 
d="M151 575v-575h-64v697h67l211 -380l206 380h67v-697h-64v576l-187 -339h-46z" />
    <glyph glyph-name="N" unicode="N" horiz-adv-x="634" 
d="M151 570v-570h-64v697h66l329 -570v570h65v-697h-64z" />
    <glyph glyph-name="O" unicode="O" horiz-adv-x="612" 
d="M219 -4q-70 0 -106.5 36.5t-36.5 106.5v419q0 70 36.5 106.5t106.5 36.5h175q69 0 105.5 -36.5t36.5 -106.5v-419q0 -70 -36.5 -106.5t-105.5 -36.5h-175zM146 135q0 -38 19.5 -57.5t55.5 -19.5h170q75 0 75 74v433q0 74 -75 74h-170q-75 0 -75 -74v-430z" />
    <glyph glyph-name="P" unicode="P" horiz-adv-x="569" 
d="M157 259v-259h-70v697h292q69 0 105.5 -36.5t36.5 -106.5v-152q0 -69 -36.5 -106t-105.5 -37h-222zM157 635v-313h220q74 0 74 75v164q0 74 -74 74h-220z" />
    <glyph glyph-name="Q" unicode="Q" horiz-adv-x="612" 
d="M367 -4l78 -151h-74l-79 151h-73q-70 0 -106.5 36.5t-36.5 106.5v419q0 70 36.5 106.5t106.5 36.5h175q69 0 105.5 -36.5t36.5 -106.5v-419q0 -70 -36.5 -106.5t-105.5 -36.5h-27zM146 135q0 -38 19.5 -57.5t55.5 -19.5h170q75 0 75 74v433q0 74 -75 74h-170
q-75 0 -75 -74v-430z" />
    <glyph glyph-name="R" unicode="R" horiz-adv-x="582" 
d="M346 285h-189v-285h-70v697h292q69 0 105.5 -36.5t36.5 -106.5v-126q0 -120 -104 -140l105 -288h-75zM157 636v-290h220q74 0 74 75v140q0 75 -74 75h-220z" />
    <glyph glyph-name="S" unicode="S" horiz-adv-x="578" 
d="M65 575q0 61 36.5 93.5t107.5 32.5h158q69 0 106 -32.5t37 -93.5v-78h-69v82q0 62 -77 62h-153q-77 0 -77 -62v-93q0 -26 8.5 -40t34.5 -21l249 -66q45 -12 67.5 -41t22.5 -69v-127q0 -62 -37 -94t-107 -32h-170q-69 0 -106 32t-37 94v72h69v-76q0 -62 77 -62h165
q42 0 59 17t17 45v122q0 44 -42 56l-252 68q-17 4 -32.5 12.5t-27.5 22t-19.5 33.5t-7.5 49v94z" />
    <glyph glyph-name="T" unicode="T" horiz-adv-x="499" 
d="M285 636v-636h-71v636h-190v61h451v-61h-190z" />
    <glyph glyph-name="U" unicode="U" horiz-adv-x="626" 
d="M543 697v-558q0 -70 -36.5 -106.5t-105.5 -36.5h-175q-70 0 -106.5 36.5t-36.5 106.5v558h70v-564q0 -75 75 -75h170q75 0 75 75v564h70z" />
    <glyph glyph-name="V" unicode="V" horiz-adv-x="571" 
d="M60 477q-3 6 -7 23t-4 37v160h71v-152q0 -33 7 -51l160 -418l158 418q4 10 6 22t2 29v152h69v-160q0 -20 -4.5 -36.5t-7.5 -23.5l-188 -477h-73z" />
    <glyph glyph-name="W" unicode="W" horiz-adv-x="785" 
d="M733 697v-160q0 -20 -4 -37t-6 -24l-141 -476h-69l-121 404l-119 -404h-69l-142 476q-2 7 -6 24t-4 37v160h68v-152q0 -17 2.5 -29t5.5 -22l112 -402l112 402q3 10 6 22t3 29v152h64v-152q0 -17 2.5 -29t5.5 -22l112 -402l113 402q3 10 5 22t2 29v152h68z" />
    <glyph glyph-name="X" unicode="X" horiz-adv-x="571" 
d="M120 0h-67v130q0 26 8.5 41.5t16.5 23.5l161 163l-160 160q-5 5 -14 20t-9 41v118h70v-102q0 -21 6 -32.5t15 -21.5l142 -143l139 142q19 19 19 54v103h68v-118q0 -26 -9 -41.5t-17 -23.5l-156 -159l163 -164q5 -5 14 -20t9 -41v-130h-70v115q0 20 -5.5 31.5t-15.5 21.5
l-146 146l-143 -145q-8 -9 -13.5 -21.5t-5.5 -32.5v-115z" />
    <glyph glyph-name="Y" unicode="Y" horiz-adv-x="548" 
d="M239 0v247l-180 263q-6 8 -11 24.5t-5 40.5v122h70v-115q0 -19 3 -31.5t11 -23.5l150 -218l147 214q8 11 11.5 23.5t3.5 31.5v119h68v-122q0 -25 -6 -41t-11 -24l-180 -262v-248h-71z" />
    <glyph glyph-name="Z" unicode="Z" horiz-adv-x="524" 
d="M30 0v60l373 576h-357v61h436v-61l-373 -575h383v-61h-462z" />
    <glyph glyph-name="bracketleft" unicode="[" horiz-adv-x="279" 
d="M232 -190h-138v960h136v-61h-66v-838h68v-61z" />
    <glyph glyph-name="backslash" unicode="\" horiz-adv-x="446" 
d="M358 -73l-335 843h65l335 -843h-65z" />
    <glyph glyph-name="bracketright" unicode="]" horiz-adv-x="279" 
d="M47 -129h68v838h-66v61h136v-960h-138v61z" />
    <glyph glyph-name="asciicircum" unicode="^" horiz-adv-x="485" 
d="M243 629l-143 -312h-62l179 382h51l179 -382h-62z" />
    <glyph glyph-name="underscore" unicode="_" horiz-adv-x="477" 
d="M423 -102v-55h-369v55h369z" />
    <glyph glyph-name="grave" unicode="`" horiz-adv-x="249" 
d="M68 697h66l48 -132h-46l-68 117v15z" />
    <glyph glyph-name="a" unicode="a" horiz-adv-x="500" 
d="M316 21q-17 -11 -33.5 -18t-45.5 -7h-65q-55 0 -86.5 26.5t-31.5 79.5v70q0 55 32.5 79t86.5 30l191 21v83q0 64 -67 64h-102q-67 0 -67 -64v-33h-66v26q0 63 34.5 95t97.5 32h110q62 0 94 -31.5t32 -91.5v-382h-59l-4 54zM243 52q21 0 31.5 4.5t24.5 13.5l65 42v135
l-183 -22q-30 -4 -46 -15t-16 -41v-64q0 -29 13.5 -41t45.5 -12h65z" />
    <glyph glyph-name="b" unicode="b" horiz-adv-x="525" 
d="M264 -4q-28 0 -44 5.5t-31 16.5l-53 36l-4 -54h-61v697h67v-247l51 33q16 10 31.5 16t43.5 6h75q60 0 91 -31.5t31 -91.5v-263q0 -60 -31 -91.5t-91 -31.5h-75zM329 55q65 0 65 64v263q0 64 -65 64h-65q-23 0 -33.5 -4.5t-24.5 -13.5l-68 -44v-267l68 -44
q14 -9 24.5 -13.5t33.5 -4.5h65z" />
    <glyph glyph-name="c" unicode="c" horiz-adv-x="490" 
d="M195 -4q-64 0 -98.5 34t-34.5 100v241q0 66 34.5 100t98.5 34h111q63 0 97.5 -34t34.5 -100v-33h-66v40q0 68 -67 68h-108q-68 0 -68 -68v-255q0 -68 68 -68h108q67 0 67 68v55h66v-48q0 -66 -34.5 -100t-97.5 -34h-111v0z" />
    <glyph glyph-name="d" unicode="d" horiz-adv-x="525" 
d="M337 18q-16 -11 -31.5 -16.5t-44.5 -5.5h-74q-60 0 -91.5 31.5t-31.5 91.5v263q0 60 31.5 91.5t91.5 31.5h74q29 0 44.5 -5.5t31.5 -16.5l50 -33v247h67v-697h-60l-5 54zM262 55q23 0 33.5 4.5t24.5 13.5l67 44v267l-67 44q-14 9 -24.5 13.5t-33.5 4.5h-66q-65 0 -65 -64
v-263q0 -64 65 -64h66z" />
    <glyph glyph-name="e" unicode="e" horiz-adv-x="502" 
d="M444 127q0 -65 -34.5 -98t-98.5 -33h-116q-64 0 -98.5 34t-34.5 100v241q0 66 34.5 100t98.5 34h116q64 0 98.5 -34t34.5 -100v-135h-315v-117q0 -68 67 -68h115q67 0 67 68v37h66v-29zM129 291h250v91q0 68 -68 68h-115q-67 0 -67 -68v-91z" />
    <glyph glyph-name="f" unicode="f" horiz-adv-x="342" 
d="M174 439v-439h-67v439h-83v59h83v65q0 134 134 134h86v-59h-87q-66 0 -66 -68v-72h152v-59h-152z" />
    <glyph glyph-name="g" unicode="g" horiz-adv-x="525" 
d="M205 -194q-63 0 -97.5 32.5t-34.5 93.5v18h66v-25q0 -64 67 -64h114q68 0 68 64v151l-51 -34q-16 -11 -31.5 -16.5t-44.5 -5.5h-74q-60 0 -91.5 31.5t-31.5 91.5v239q0 60 31.5 91.5t91.5 31.5h74q29 0 45 -5.5t31 -16.5l53 -36l5 54h59v-565q0 -130 -134 -130h-115z
M262 79q23 0 33.5 4.5t24.5 13.5l68 44v243l-68 44q-14 9 -24.5 13.5t-33.5 4.5h-67q-65 0 -65 -64v-239q0 -64 65 -64h67z" />
    <glyph glyph-name="h" unicode="h" horiz-adv-x="531" 
d="M138 384v-384h-67v697h67v-247l51 33q16 10 31.5 16t43.5 6h75q60 0 91 -31.5t31 -91.5v-382h-67v382q0 64 -64 64h-66q-23 0 -33.5 -4.5t-24.5 -13.5z" />
    <glyph glyph-name="i" unicode="i" horiz-adv-x="210" 
d="M71 501h67v-501h-67v501zM69 697h71v-102h-71v102z" />
    <glyph glyph-name="j" unicode="j" horiz-adv-x="210" 
d="M-52 -131h57q66 0 66 68v564h67v-557q0 -65 -34 -99.5t-99 -34.5h-57v59zM69 697h71v-102h-71v102z" />
    <glyph glyph-name="k" unicode="k" horiz-adv-x="510" 
d="M138 239v-239h-67v697h67v-400h105l133 106q20 15 20 41v57h61v-68q0 -28 -14 -44.5t-25 -24.5l-117 -94l131 -120q14 -14 22.5 -29.5t8.5 -37.5v-83h-65v75q0 25 -20 42l-133 122h-107z" />
    <glyph glyph-name="l" unicode="l" horiz-adv-x="212" 
d="M140 697v-697h-67v697h67z" />
    <glyph glyph-name="m" unicode="m" horiz-adv-x="837" 
d="M138 384v-384h-67v501h61l4 -54l53 36q15 11 31 16.5t44 5.5h66q84 0 112 -63l61 41q16 11 31.5 16.5t44.5 5.5h66q60 0 91 -31.5t31 -91.5v-382h-67v382q0 64 -64 64h-58q-23 0 -33.5 -4.5t-24.5 -13.5l-67 -44v-384h-67v382q0 64 -64 64h-58q-23 0 -33.5 -4.5
t-24.5 -13.5z" />
    <glyph glyph-name="n" unicode="n" horiz-adv-x="531" 
d="M264 446q-23 0 -34 -5t-24 -13l-68 -44v-384h-67v501h61l3 -54l54 36q16 11 31.5 16.5t43.5 5.5h75q60 0 91 -31.5t31 -91.5v-382h-67v382q0 64 -64 64h-66z" />
    <glyph glyph-name="o" unicode="o" horiz-adv-x="514" 
d="M195 -4q-64 0 -98.5 34t-34.5 100v241q0 66 34.5 100t98.5 34h123q65 0 99 -34t34 -100v-241q0 -66 -34 -100t-99 -34h-123zM317 54q33 0 50 18.5t17 48.5v259q0 67 -67 67h-120q-68 0 -68 -67v-259q0 -67 68 -67h120z" />
    <glyph glyph-name="p" unicode="p" horiz-adv-x="525" 
d="M138 51v-241h-67v691h61l4 -54l53 36q15 11 31 16.5t44 5.5h75q60 0 91 -31.5t31 -91.5v-263q0 -60 -31 -91.5t-91 -31.5h-75q-28 0 -43.5 6t-31.5 16zM329 55q65 0 65 64v263q0 64 -65 64h-65q-23 0 -33.5 -4.5t-24.5 -13.5l-68 -44v-267l68 -44q14 -9 24.5 -13.5
t33.5 -4.5h65z" />
    <glyph glyph-name="q" unicode="q" horiz-adv-x="525" 
d="M386 -190v241l-49 -33q-16 -10 -31.5 -16t-44.5 -6h-74q-60 0 -91.5 31.5t-31.5 91.5v263q0 60 31.5 91.5t91.5 31.5h74q29 0 44.5 -6t31.5 -16l52 -35l4 53h60v-691h-67zM262 55q23 0 33.5 4.5t24.5 13.5l66 44v267l-66 44q-14 9 -24.5 13.5t-33.5 4.5h-66
q-65 0 -65 -64v-263q0 -64 65 -64h66z" />
    <glyph glyph-name="r" unicode="r" horiz-adv-x="353" 
d="M71 0v501h61l5 -67l64 49q14 11 30.5 16.5t45.5 5.5h67v-59h-65q-23 0 -34 -4t-24 -14l-83 -64v-364h-67z" />
    <glyph glyph-name="s" unicode="s" horiz-adv-x="490" 
d="M119 157v-50q0 -57 67 -57h116q68 0 68 55v57q0 18 -8.5 27.5t-25.5 14.5l-201 49q-14 3 -27.5 9t-24.5 16.5t-17.5 26t-6.5 38.5v48q0 56 34 85t99 29h106q64 0 98 -30.5t34 -87.5v-32h-66v39q0 56 -67 56h-105q-34 0 -50.5 -14t-16.5 -40v-49q0 -20 8.5 -27t25.5 -12
l200 -49q41 -10 58.5 -33.5t17.5 -54.5v-61q0 -114 -134 -114h-116q-64 0 -98 30.5t-34 87.5v43h66z" />
    <glyph glyph-name="t" unicode="t" horiz-adv-x="347" 
d="M326 0h-89q-64 0 -97 34t-33 97v308h-84v59h84v142h67v-142h151v-59h-151v-314q0 -66 66 -66h86v-59z" />
    <glyph glyph-name="u" unicode="u" 
d="M337 18q-16 -11 -31.5 -16.5t-44.5 -5.5h-69q-60 0 -91.5 31.5t-31.5 91.5v382h67v-382q0 -64 65 -64h61q23 0 33.5 4.5t24.5 13.5l67 44v384h67v-501h-60l-4 54l-53 -36v0z" />
    <glyph glyph-name="v" unicode="v" horiz-adv-x="485" 
d="M59 324q-3 6 -8 21t-5 35v121h67v-114q0 -16 2.5 -27t6.5 -20l121 -274l121 274q5 9 7.5 20t2.5 27v114h65v-121q0 -20 -5 -35t-8 -21l-150 -324h-68z" />
    <glyph glyph-name="w" unicode="w" horiz-adv-x="713" 
d="M60 324q-2 6 -7.5 21t-5.5 35v121h65v-114q0 -16 3.5 -27t6.5 -20l97 -267l97 267q3 9 6 20.5t3 26.5v114h64v-114q0 -16 3.5 -27t6.5 -20l97 -267l97 267q3 9 6 20.5t3 26.5v114h64v-121q0 -20 -5.5 -35t-7.5 -21l-123 -324h-68l-105 276l-106 -276h-68z" />
    <glyph glyph-name="x" unicode="x" horiz-adv-x="498" 
d="M110 0h-63v71q0 26 13 45t26 31l118 108l-122 108q-15 14 -23 29.5t-8 37.5v71h63v-63q0 -14 5.5 -24t14.5 -18l117 -104l111 105q9 9 14.5 18t5.5 23v63h64v-69q0 -27 -13.5 -44t-25.5 -28l-115 -104l127 -113q14 -13 22.5 -29t8.5 -37v-77h-64v69q0 26 -20 42l-121 108
l-115 -109q-9 -9 -14.5 -18.5t-5.5 -23.5v-68z" />
    <glyph glyph-name="y" unicode="y" horiz-adv-x="485" 
d="M75 -190v58h53q20 0 32.5 8t21.5 31l34 82l-158 335q-3 6 -8 21t-5 35v121h67v-114q0 -29 9 -47l128 -273l115 273q4 9 6.5 20t2.5 27v114h65v-121q0 -18 -5 -34t-7 -22l-181 -425q-20 -48 -44 -68.5t-62 -20.5h-64z" />
    <glyph glyph-name="z" unicode="z" horiz-adv-x="455" 
d="M417 57v-57h-379v51l292 393h-284v57h365v-52l-292 -392h298z" />
    <glyph glyph-name="braceleft" unicode="{" horiz-adv-x="327" 
d="M181 -54q0 -74 69 -74h42v-62h-49q-64 0 -98 36.5t-34 106.5v250q0 54 -50 54h-24v60h24q50 0 50 57v253q0 70 34 106.5t98 36.5h49v-62h-42q-69 0 -69 -74v-248q0 -38 -14.5 -62.5t-45.5 -33.5q31 -11 45.5 -35.5t14.5 -61.5v-247z" />
    <glyph glyph-name="bar" unicode="|" horiz-adv-x="250" 
d="M94 770h62v-960h-62v960z" />
    <glyph glyph-name="braceright" unicode="}" horiz-adv-x="327" 
d="M146 193q0 37 14.5 61.5t45.5 35.5q-31 9 -45.5 33.5t-14.5 62.5v248q0 74 -69 74h-42v62h49q64 0 98 -36.5t34 -106.5v-253q0 -57 50 -57h24v-60h-24q-50 0 -50 -54v-250q0 -70 -34 -106.5t-98 -36.5h-49v62h42q69 0 69 74v247z" />
    <glyph glyph-name="asciitilde" unicode="~" horiz-adv-x="491" 
d="M405 355q9 0 14 3t12 10l50 52l41 -37l-55 -61q-11 -13 -22.5 -19t-31.5 -6h-62q-15 0 -28 5.5t-28 11.5l-85 35q-14 6 -29 11.5t-29 5.5h-43q-19 0 -28 -6t-20 -17l-49 -52l-40 37l53 60q15 17 30.5 26.5t45.5 9.5h50q21 0 39 -6t34 -13l85 -36q12 -5 21.5 -9.5
t19.5 -4.5h55v0z" />
    <glyph glyph-name="uni00A0" unicode="&#xa0;" horiz-adv-x="239" 
 />
    <glyph glyph-name="exclamdown" unicode="&#xa1;" horiz-adv-x="246" 
d="M87 501h73v-97h-73v97zM150 338l10 -201v-333h-74v333l11 201h53z" />
    <glyph glyph-name="cent" unicode="&#xa2;" horiz-adv-x="490" 
d="M280 94v-98h-62v98h-23q-64 0 -98.5 33.5t-34.5 99.5v243q0 66 34.5 99.5t98.5 33.5h23v98h62v-98h25q63 0 97 -33.5t34 -99.5v-34h-65v41q0 67 -68 67h-106q-68 0 -68 -67v-257q0 -67 68 -67h106q68 0 68 67v55h65v-48q0 -66 -34 -99.5t-97 -33.5h-25z" />
    <glyph glyph-name="sterling" unicode="&#xa3;" horiz-adv-x="589" 
d="M50 0v61h76v254h-76v52h76v199q0 66 36.5 100.5t106.5 34.5h118q69 0 106 -34.5t37 -100.5v-68h-70v67q0 74 -75 74h-114q-36 0 -55.5 -18.5t-19.5 -55.5v-198h167v-52h-167v-254h345v-61h-491z" />
    <glyph glyph-name="currency" unicode="&#xa4;" horiz-adv-x="624" 
d="M424 194q-25 -14 -66 -14h-93q-41 0 -67 13l-105 -106l-40 39l103 103q-20 29 -20 80v76q0 48 19 79l-102 102l40 39l105 -105q29 13 67 13h93q38 0 66 -14l107 106l39 -39l-103 -104q20 -31 20 -77v-76q0 -47 -20 -78l103 -105l-39 -39zM361 230q32 0 49.5 18.5
t17.5 48.5v100q0 66 -67 66h-100q-66 0 -66 -66v-100q0 -67 66 -67h100z" />
    <glyph glyph-name="yen" unicode="&#xa5;" horiz-adv-x="569" 
d="M251 0v142h-187v45h187v60l-10 15h-177v44h149l-133 205q-5 8 -10.5 24.5t-5.5 40.5v121h66v-115q0 -19 3 -31.5t11 -23.5l143 -220l140 216q8 11 11.5 23.5t3.5 32.5v118h64v-121q0 -25 -5.5 -41t-11.5 -24l-134 -205h151v-44h-180l-8 -13v-62h188v-45h-188v-142h-67z
" />
    <glyph glyph-name="brokenbar" unicode="&#xa6;" horiz-adv-x="202" 
d="M74 387v383h54v-383h-54zM128 194v-384h-54v384h54z" />
    <glyph glyph-name="section" unicode="&#xa7;" horiz-adv-x="577" 
d="M378 114l-232 87q-14 5 -28.5 13t-26 21t-18.5 32.5t-7 47.5v256q0 63 37 96.5t108 33.5h157q69 0 106 -33t37 -97v-71h-69v79q0 62 -77 62h-153q-77 0 -77 -62v-261q0 -44 40 -60l203 -76v-68zM200 400l232 -88q14 -5 28 -13t25.5 -21t18.5 -32.5t7 -47.5v-262
q0 -63 -37 -96.5t-107 -33.5h-158q-69 0 -106 33t-37 97v71h69v-79q0 -62 77 -62h153q77 0 77 62v267q0 24 -9.5 38t-30.5 22l-202 77v68z" />
    <glyph glyph-name="dieresis" unicode="&#xa8;" horiz-adv-x="296" 
d="M65 672h55v-79h-55v79zM175 672h55v-79h-55v79z" />
    <glyph glyph-name="copyright" unicode="&#xa9;" horiz-adv-x="805" 
d="M68 514q0 91 48 139t139 48h295q91 0 139 -48t48 -139v-331q0 -91 -48 -139t-139 -48h-295q-91 0 -139 48t-48 139v331zM255 655q-136 0 -136 -136v-341q0 -136 136 -136h294q137 0 137 136v341q0 136 -137 136h-294zM356 128q-60 0 -91.5 31t-31.5 92v196
q0 59 31.5 90.5t91.5 31.5h94q58 0 89 -30.5t31 -88.5v-34h-69v36q0 55 -55 55h-87q-55 0 -55 -55v-207q0 -54 55 -54h87q55 0 55 54v49h69v-46q0 -59 -31 -89.5t-89 -30.5h-94z" />
    <glyph glyph-name="ordfeminine" unicode="&#xaa;" horiz-adv-x="456" 
d="M285 270q-16 -11 -30 -17t-40 -6h-55q-49 0 -77.5 23.5t-28.5 70.5v64q0 49 30.5 70.5t78.5 26.5l165 18v73q0 57 -60 57h-85q-61 0 -61 -57v-24h-59v19q0 56 30.5 84.5t87.5 28.5h93q57 0 87 -28t30 -81v-342h-57l-3 49zM220 297q19 0 28.5 3.5t21.5 11.5l58 39v118
l-158 -17q-26 -3 -40 -13.5t-14 -36.5v-59q0 -25 12 -35.5t41 -10.5h51z" />
    <glyph glyph-name="guillemotleft" unicode="&#xab;" horiz-adv-x="502" 
d="M177 107l-106 102q-14 13 -20 25t-6 28v29q0 17 6 27.5t20 24.5l106 103h74l-139 -138q-13 -13 -13 -23v-18q0 -6 2.5 -10.5t10.5 -12.5l139 -137h-74zM369 107l-106 102q-25 24 -25 53v29q0 17 5.5 27.5t19.5 24.5l106 103h75l-140 -138q-13 -13 -13 -23v-18
q0 -10 13 -23l139 -137h-74z" />
    <glyph glyph-name="logicalnot" unicode="&#xac;" horiz-adv-x="491" 
d="M367 324h-314v52h367v-209h-53v157z" />
    <glyph glyph-name="uni00AD" unicode="&#xad;" horiz-adv-x="396" 
d="M328 316v-59h-260v59h260z" />
    <glyph glyph-name="registered" unicode="&#xae;" horiz-adv-x="579" 
d="M68 585q0 55 30.5 85.5t84.5 30.5h213q54 0 84.5 -30.5t30.5 -85.5v-229q0 -56 -30.5 -85.5t-84.5 -29.5h-213q-54 0 -84.5 29.5t-30.5 85.5v229zM189 660q-77 0 -77 -77v-226q0 -76 77 -76h201q76 0 76 76v226q0 77 -76 77h-201zM240 561v-88h81q28 0 28 28v31
q0 29 -28 29h-81zM190 341v261h132q37 0 57.5 -17t20.5 -52v-33q0 -46 -39 -60l39 -99h-56l-33 92h-71v-92h-50z" />
    <glyph glyph-name="macron" unicode="&#xaf;" horiz-adv-x="365" 
d="M57 646h252v-48h-252v48z" />
    <glyph glyph-name="degree" unicode="&#xb0;" horiz-adv-x="442" 
d="M165 379q-51 0 -78.5 27.5t-27.5 78.5v110q0 51 27.5 78.5t78.5 27.5h111q52 0 79.5 -27.5t27.5 -78.5v-110q0 -51 -27.5 -78.5t-79.5 -27.5h-111zM270 429q27 0 40.5 15t13.5 40v112q0 55 -54 55h-98q-55 0 -55 -55v-112q0 -55 55 -55h98z" />
    <glyph glyph-name="plusminus" unicode="&#xb1;" horiz-adv-x="491" 
d="M272 395v-137h-54v137h-156v53h156v137h54v-137h157v-53h-157zM429 173v-53h-367v53h367z" />
    <glyph glyph-name="uni00B2" unicode="&#xb2;" horiz-adv-x="337" 
d="M47 479v94q0 28 10 47.5t43 31.5l111 40q10 4 16 11t6 21v44q0 34 -35 34h-61q-34 0 -34 -34v-39h-54v43q0 38 20.5 58.5t60.5 20.5h76q82 0 82 -82v-46q0 -31 -14 -48t-35 -25l-114 -42q-16 -6 -19.5 -14t-3.5 -22v-44h192v-49h-247z" />
    <glyph glyph-name="uni00B3" unicode="&#xb3;" horiz-adv-x="340" 
d="M124 477q-39 0 -60 19t-21 56v31h56v-28q0 -30 33 -30h69q34 0 34 32v62q0 29 -31 29h-76v43h68q32 0 32 30v49q0 32 -34 32h-61q-34 0 -34 -29v-28h-54v26q0 38 21 59t59 21h78q38 0 59.5 -20.5t21.5 -59.5v-41q0 -43 -34 -57q23 -6 32 -21t9 -37v-62q0 -38 -21 -57
t-60 -19h-86z" />
    <glyph glyph-name="acute" unicode="&#xb4;" horiz-adv-x="249" 
d="M182 682l-68 -117h-46l48 132h66v-15z" />
    <glyph glyph-name="uni00B5" unicode="&#xb5;" horiz-adv-x="567" 
d="M91 501h67v-382q0 -64 64 -64h62q23 0 33.5 4.5t24.5 13.5l67 44v384h67v-501h-60l-4 54l-54 -36q-16 -10 -31.5 -16t-43.5 -6h-69q-38 0 -60 15q1 -11 1.5 -25t1 -27.5t1 -24.5t0.5 -15v-109h-67v691z" />
    <glyph glyph-name="paragraph" unicode="&#xb6;" horiz-adv-x="570" 
d="M244 272h-62q-69 0 -106 36.5t-37 105.5v140q0 70 37 106.5t106 36.5h292v-887h-62v825h-228q-74 0 -74 -74v-153q0 -74 74 -74h123v-524h-63v462z" />
    <glyph glyph-name="periodcentered" unicode="&#xb7;" horiz-adv-x="213" 
d="M69 343h74v-97h-74v97z" />
    <glyph glyph-name="cedilla" unicode="&#xb8;" horiz-adv-x="360" 
d="M156 -51h48q32 0 50 -13.5t18 -43.5v-25q0 -56 -67 -56h-117v40h111q27 0 27 23v11q0 24 -28 24h-78q-9 0 -13.5 3t-4.5 12v7q0 5 1.5 9t3.5 7l42 92h17l23 -15z" />
    <glyph glyph-name="uni00B9" unicode="&#xb9;" horiz-adv-x="301" 
d="M131 528v271h-92v49h149v-320h89v-49h-238v49h92z" />
    <glyph glyph-name="ordmasculine" unicode="&#xba;" horiz-adv-x="466" 
d="M175 247q-118 0 -118 120v214q0 58 30 89t88 31h111q58 0 88.5 -31t30.5 -89v-214q0 -60 -30.5 -90t-88.5 -30h-111zM282 300q29 0 44 17t15 43v228q0 29 -15 44.5t-44 15.5h-103q-29 0 -44.5 -15.5t-15.5 -44.5v-228q0 -29 15.5 -44.5t44.5 -15.5h103z" />
    <glyph glyph-name="guillemotright" unicode="&#xbb;" horiz-adv-x="502" 
d="M59 107l139 137q8 8 10.5 12.5t2.5 10.5v18q0 10 -13 23l-140 138h75l106 -103q14 -14 19.5 -24.5t5.5 -27.5v-29q0 -29 -25 -53l-106 -102h-74zM251 107l139 137q8 8 10.5 12.5t2.5 10.5v18q0 6 -2.5 10.5t-10.5 12.5l-139 138h74l106 -103q14 -14 20 -24.5t6 -27.5v-29
q0 -16 -6 -28t-20 -25l-106 -102h-74z" />
    <glyph glyph-name="onequarter" unicode="&#xbc;" horiz-adv-x="723" 
d="M642 91v-91h-53v91h-181v44l184 235h50v-235h42v-44h-42zM589 296l-127 -161h127v161zM138 377v271h-92v49h149v-320h89v-49h-238v49h92zM159 -4l426 705h57l-426 -705h-57z" />
    <glyph glyph-name="onehalf" unicode="&#xbd;" horiz-adv-x="767" 
d="M475 0v94q0 28 10 47.5t43 31.5l111 40q10 4 16 11t6 21v44q0 34 -35 34h-61q-34 0 -34 -34v-39h-54v43q0 38 20.5 58.5t60.5 20.5h76q82 0 82 -82v-46q0 -31 -14 -48t-35 -25l-114 -42q-16 -6 -19.5 -14t-3.5 -22v-44h192v-49h-247zM138 377v271h-92v49h149v-320h89v-49
h-238v49h92zM149 -4l426 705h57l-426 -705h-57z" />
    <glyph glyph-name="threequarters" unicode="&#xbe;" horiz-adv-x="712" 
d="M631 91v-91h-53v91h-181v44l184 235h50v-235h42v-44h-42zM578 296l-127 -161h127v161zM147 -4l426 705h57l-426 -705h-57zM128 326q-39 0 -60 19t-21 56v31h56v-28q0 -30 33 -30h69q34 0 34 32v62q0 29 -31 29h-76v43h68q32 0 32 30v49q0 32 -34 32h-61q-34 0 -34 -29
v-28h-54v26q0 38 21 59t59 21h78q38 0 59.5 -20.5t21.5 -59.5v-41q0 -43 -34 -57q23 -6 32 -21t9 -37v-62q0 -38 -21 -57t-60 -19h-86z" />
    <glyph glyph-name="questiondown" unicode="&#xbf;" horiz-adv-x="523" 
d="M137 74q-7 -5 -18.5 -15t-11.5 -35v-88q0 -74 75 -74h165q75 0 75 74v73h68v-70q0 -68 -37 -103.5t-106 -35.5h-166q-70 0 -106.5 34.5t-36.5 101.5v83q0 22 6 38.5t15.5 29t21 21.5t21.5 16l106 72q17 11 25.5 20.5t8.5 32.5v89h64v-93q0 -38 -14.5 -57.5t-35.5 -33.5z
M310 404h-73v97h73v-97z" />
    <glyph glyph-name="Agrave" unicode="&#xc0;" horiz-adv-x="574" 
d="M116 0h-67v160q0 20 4 36.5t7 23.5l191 479h73l190 -479q3 -6 7 -23t4 -37v-160h-68v152q0 7 -0.5 13t-1.5 12h-338q-1 -6 -1 -12v-13v-152zM137 237h299l-149 393zM194 877h66l48 -132h-46l-68 117v15z" />
    <glyph glyph-name="Aacute" unicode="&#xc1;" horiz-adv-x="574" 
d="M116 0h-67v160q0 20 4 36.5t7 23.5l191 479h73l190 -479q3 -6 7 -23t4 -37v-160h-68v152q0 7 -0.5 13t-1.5 12h-338q-1 -6 -1 -12v-13v-152zM137 237h299l-149 393zM379 862l-67 -117h-47l48 132h66v-15z" />
    <glyph glyph-name="Acircumflex" unicode="&#xc2;" horiz-adv-x="574" 
d="M116 0h-67v160q0 20 4 36.5t7 23.5l191 479h73l190 -479q3 -6 7 -23t4 -37v-160h-68v152q0 7 -0.5 13t-1.5 12h-338q-1 -6 -1 -12v-13v-152zM137 237h299l-149 393zM287 833l-65 -88h-47l85 132h54l86 -132h-48z" />
    <glyph glyph-name="Atilde" unicode="&#xc3;" horiz-adv-x="574" 
d="M116 0h-67v160q0 20 4 36.5t7 23.5l191 479h73l190 -479q3 -6 7 -23t4 -37v-160h-68v152q0 7 -0.5 13t-1.5 12h-338q-1 -6 -1 -12v-13v-152zM137 237h299l-149 393zM374 799q27 0 27 25v39h43v-47q0 -62 -65 -62h-23q-15 0 -29 5t-24 11l-52 34q-7 5 -17 9t-20 4h-14
q-28 0 -28 -25v-38h-43v46q0 63 65 63h26q14 0 27.5 -5t23.5 -11l52 -34q7 -5 17 -9.5t20 -4.5h14z" />
    <glyph glyph-name="Adieresis" unicode="&#xc4;" horiz-adv-x="574" 
d="M116 0h-67v160q0 20 4 36.5t7 23.5l191 479h73l190 -479q3 -6 7 -23t4 -37v-160h-68v152q0 7 -0.5 13t-1.5 12h-338q-1 -6 -1 -12v-13v-152zM137 237h299l-149 393zM204 850h56v-79h-56v79zM314 850h56v-79h-56v79z" />
    <glyph glyph-name="Aring" unicode="&#xc5;" horiz-adv-x="574" 
d="M116 0h-67v160q0 20 4 36.5t7 23.5l191 479h73l190 -479q3 -6 7 -23t4 -37v-160h-68v152q0 7 -0.5 13t-1.5 12h-338q-1 -6 -1 -12v-13v-152zM137 237h299l-149 393zM302 936q83 0 83 -78v-29q0 -80 -83 -80h-35q-83 0 -83 80v29q0 78 83 78h35zM266 897q-40 0 -40 -40
v-29q0 -39 40 -39h36q40 0 40 39v29q0 40 -40 40h-36z" />
    <glyph glyph-name="AE" unicode="&#xc6;" horiz-adv-x="891" 
d="M102 0h-66v160q0 20 5 39.5t17 36.5l337 461h445v-61h-350v-245h326v-59h-326v-271h358v-61h-429v177h-316q-1 -5 -1 -11.5v-13.5v-152zM135 237h284v394z" />
    <glyph glyph-name="Ccedilla" unicode="&#xc7;" horiz-adv-x="579" 
d="M525 228v-89q0 -70 -37 -106.5t-106 -36.5h-70l-20 -47h48q32 0 50 -13.5t18 -43.5v-25q0 -56 -67 -56h-117v40h111q27 0 27 23v11q0 24 -28 24h-78q-9 0 -13.5 3t-4.5 12v7q0 5 1.5 9t3.5 7l22 49h-46q-70 0 -106.5 36.5t-36.5 106.5v419q0 70 36.5 106.5t106.5 36.5
h163q69 0 106 -36.5t37 -106.5v-63h-70v70q0 74 -74 74h-160q-75 0 -75 -74v-433q0 -74 75 -74h160q74 0 74 74v96h70z" />
    <glyph glyph-name="Egrave" unicode="&#xc8;" horiz-adv-x="559" 
d="M212 877h66l48 -132h-46l-68 117v15zM87 697h421v-61h-351v-245h327v-59h-327v-271h359v-61h-429v697z" />
    <glyph glyph-name="Eacute" unicode="&#xc9;" horiz-adv-x="559" 
d="M87 697h421v-61h-351v-245h327v-59h-327v-271h359v-61h-429v697zM379 862l-67 -117h-47l48 132h66v-15z" />
    <glyph glyph-name="Ecircumflex" unicode="&#xca;" horiz-adv-x="559" 
d="M301 833l-65 -88h-47l85 132h54l86 -132h-48zM87 697h421v-61h-351v-245h327v-59h-327v-271h359v-61h-429v697z" />
    <glyph glyph-name="Edieresis" unicode="&#xcb;" horiz-adv-x="559" 
d="M87 697h421v-61h-351v-245h327v-59h-327v-271h359v-61h-429v697zM215 850h56v-79h-56v79zM325 850h56v-79h-56v79z" />
    <glyph glyph-name="Igrave" unicode="&#xcc;" horiz-adv-x="243" 
d="M87 697h70v-697h-70v697zM31 877h66l48 -132h-46l-68 117v15z" />
    <glyph glyph-name="Iacute" unicode="&#xcd;" horiz-adv-x="243" 
d="M87 697h70v-697h-70v697zM210 862l-67 -117h-47l48 132h66v-15z" />
    <glyph glyph-name="Icircumflex" unicode="&#xce;" horiz-adv-x="243" 
d="M87 697h70v-697h-70v697zM122 833l-65 -88h-47l85 132h54l86 -132h-48z" />
    <glyph glyph-name="Idieresis" unicode="&#xcf;" horiz-adv-x="243" 
d="M87 697h70v-697h-70v697zM40 850h56v-79h-56v79zM150 850h56v-79h-56v79z" />
    <glyph glyph-name="Eth" unicode="&#xd0;" horiz-adv-x="624" 
d="M89 0v334h-68v58h68v305h305q76 0 115.5 -40t39.5 -116v-385q0 -76 -39.5 -116t-115.5 -40h-305zM395 62q42 0 63 21.5t21 62.5v405q0 41 -21 62.5t-63 21.5h-236v-243h133v-58h-133v-272h236z" />
    <glyph glyph-name="Ntilde" unicode="&#xd1;" horiz-adv-x="634" 
d="M404 799q27 0 27 25v39h43v-47q0 -62 -65 -62h-23q-15 0 -29 5t-24 11l-52 34q-7 5 -17 9t-20 4h-14q-28 0 -28 -25v-38h-43v46q0 63 65 63h26q14 0 27.5 -5t23.5 -11l52 -34q7 -5 17 -9.5t20 -4.5h14zM151 570v-570h-64v697h66l329 -570v570h65v-697h-64z" />
    <glyph glyph-name="Ograve" unicode="&#xd2;" horiz-adv-x="612" 
d="M216 877h66l48 -132h-46l-68 117v15zM219 -4q-70 0 -106.5 36.5t-36.5 106.5v419q0 70 36.5 106.5t106.5 36.5h175q69 0 105.5 -36.5t36.5 -106.5v-419q0 -70 -36.5 -106.5t-105.5 -36.5h-175zM146 135q0 -38 19.5 -57.5t55.5 -19.5h170q75 0 75 74v433q0 74 -75 74h-170
q-75 0 -75 -74v-430z" />
    <glyph glyph-name="Oacute" unicode="&#xd3;" horiz-adv-x="612" 
d="M392 862l-67 -117h-47l48 132h66v-15zM219 -4q-70 0 -106.5 36.5t-36.5 106.5v419q0 70 36.5 106.5t106.5 36.5h175q69 0 105.5 -36.5t36.5 -106.5v-419q0 -70 -36.5 -106.5t-105.5 -36.5h-175zM146 135q0 -38 19.5 -57.5t55.5 -19.5h170q75 0 75 74v433q0 74 -75 74
h-170q-75 0 -75 -74v-430z" />
    <glyph glyph-name="Ocircumflex" unicode="&#xd4;" horiz-adv-x="612" 
d="M307 833l-65 -88h-47l85 132h54l86 -132h-48zM219 -4q-70 0 -106.5 36.5t-36.5 106.5v419q0 70 36.5 106.5t106.5 36.5h175q69 0 105.5 -36.5t36.5 -106.5v-419q0 -70 -36.5 -106.5t-105.5 -36.5h-175zM146 135q0 -38 19.5 -57.5t55.5 -19.5h170q75 0 75 74v433
q0 74 -75 74h-170q-75 0 -75 -74v-430z" />
    <glyph glyph-name="Otilde" unicode="&#xd5;" horiz-adv-x="612" 
d="M219 -4q-70 0 -106.5 36.5t-36.5 106.5v419q0 70 36.5 106.5t106.5 36.5h175q69 0 105.5 -36.5t36.5 -106.5v-419q0 -70 -36.5 -106.5t-105.5 -36.5h-175zM146 135q0 -38 19.5 -57.5t55.5 -19.5h170q75 0 75 74v433q0 74 -75 74h-170q-75 0 -75 -74v-430zM394 799
q27 0 27 25v39h43v-47q0 -62 -65 -62h-23q-15 0 -29 5t-24 11l-52 34q-7 5 -17 9t-20 4h-14q-28 0 -28 -25v-38h-43v46q0 63 65 63h26q14 0 27.5 -5t23.5 -11l52 -34q7 -5 17 -9.5t20 -4.5h14z" />
    <glyph glyph-name="Odieresis" unicode="&#xd6;" horiz-adv-x="612" 
d="M219 -4q-70 0 -106.5 36.5t-36.5 106.5v419q0 70 36.5 106.5t106.5 36.5h175q69 0 105.5 -36.5t36.5 -106.5v-419q0 -70 -36.5 -106.5t-105.5 -36.5h-175zM146 135q0 -38 19.5 -57.5t55.5 -19.5h170q75 0 75 74v433q0 74 -75 74h-170q-75 0 -75 -74v-430zM224 850h56v-79
h-56v79zM334 850h56v-79h-56v79z" />
    <glyph glyph-name="multiply" unicode="&#xd7;" horiz-adv-x="491" 
d="M247 312l-120 -119l-37 37l119 120l-119 118l37 38l119 -120l118 118l37 -38l-118 -117l117 -117l-36 -38z" />
    <glyph glyph-name="Oslash" unicode="&#xd8;" horiz-adv-x="606" 
d="M69 -24l35 63q-30 36 -30 100v419q0 70 36.5 106.5t106.5 36.5h173q20 0 37.5 -3.5t32.5 -9.5l18 33h60l-36 -64q30 -36 30 -99v-419q0 -70 -36.5 -106.5t-105.5 -36.5h-173q-42 0 -71 13l-18 -33h-59zM467 565q0 12 -3 23l-289 -525q18 -9 43 -9h172q38 0 57.5 20
t19.5 58v433zM140 134q0 -7 0.5 -13t1.5 -12l288 526q-18 8 -40 8h-172q-38 0 -58 -20t-20 -58v-431z" />
    <glyph glyph-name="Ugrave" unicode="&#xd9;" horiz-adv-x="626" 
d="M224 877h66l48 -132h-46l-68 117v15zM543 697v-558q0 -70 -36.5 -106.5t-105.5 -36.5h-175q-70 0 -106.5 36.5t-36.5 106.5v558h70v-564q0 -75 75 -75h170q75 0 75 75v564h70z" />
    <glyph glyph-name="Uacute" unicode="&#xda;" horiz-adv-x="626" 
d="M543 697v-558q0 -70 -36.5 -106.5t-105.5 -36.5h-175q-70 0 -106.5 36.5t-36.5 106.5v558h70v-564q0 -75 75 -75h170q75 0 75 75v564h70zM397 862l-67 -117h-47l48 132h66v-15z" />
    <glyph glyph-name="Ucircumflex" unicode="&#xdb;" horiz-adv-x="626" 
d="M312 833l-65 -88h-47l85 132h54l86 -132h-48zM543 697v-558q0 -70 -36.5 -106.5t-105.5 -36.5h-175q-70 0 -106.5 36.5t-36.5 106.5v558h70v-564q0 -75 75 -75h170q75 0 75 75v564h70z" />
    <glyph glyph-name="Udieresis" unicode="&#xdc;" horiz-adv-x="626" 
d="M543 697v-558q0 -70 -36.5 -106.5t-105.5 -36.5h-175q-70 0 -106.5 36.5t-36.5 106.5v558h70v-564q0 -75 75 -75h170q75 0 75 75v564h70zM230 850h56v-79h-56v79zM340 850h56v-79h-56v79z" />
    <glyph glyph-name="Yacute" unicode="&#xdd;" horiz-adv-x="548" 
d="M239 0v247l-180 263q-6 8 -11 24.5t-5 40.5v122h70v-115q0 -19 3 -31.5t11 -23.5l150 -218l147 214q8 11 11.5 23.5t3.5 31.5v119h68v-122q0 -25 -6 -41t-11 -24l-180 -262v-248h-71zM363 862l-67 -117h-47l48 132h66v-15z" />
    <glyph glyph-name="Thorn" unicode="&#xde;" horiz-adv-x="575" 
d="M157 113v-113h-70v697h70v-158h222q69 0 105.5 -36.5t36.5 -106.5v-140q0 -69 -36.5 -106t-105.5 -37h-222zM157 477v-301h220q74 0 74 75v151q0 75 -74 75h-220z" />
    <glyph glyph-name="germandbls" unicode="&#xdf;" horiz-adv-x="567" 
d="M170 0h-67v439h-78v59h78v65q0 65 34 99.5t100 34.5h113q71 0 106.5 -33.5t35.5 -98.5v-99q0 -82 -64 -105q79 -17 79 -108v-116q0 -66 -36.5 -101.5t-106.5 -35.5h-101v59h102q75 0 75 69v138q0 63 -69 63h-97v59h83q68 0 68 62v119q0 69 -74 69h-114q-67 0 -67 -68
v-570z" />
    <glyph glyph-name="agrave" unicode="&#xe0;" horiz-adv-x="500" 
d="M316 21q-17 -11 -33.5 -18t-45.5 -7h-65q-55 0 -86.5 26.5t-31.5 79.5v70q0 55 32.5 79t86.5 30l191 21v83q0 64 -67 64h-102q-67 0 -67 -64v-33h-66v26q0 63 34.5 95t97.5 32h110q62 0 94 -31.5t32 -91.5v-382h-59l-4 54zM243 52q21 0 31.5 4.5t24.5 13.5l65 42v135
l-183 -22q-30 -4 -46 -15t-16 -41v-64q0 -29 13.5 -41t45.5 -12h65zM155 697h66l48 -132h-46l-68 117v15z" />
    <glyph glyph-name="aacute" unicode="&#xe1;" horiz-adv-x="500" 
d="M316 21q-17 -11 -33.5 -18t-45.5 -7h-65q-55 0 -86.5 26.5t-31.5 79.5v70q0 55 32.5 79t86.5 30l191 21v83q0 64 -67 64h-102q-67 0 -67 -64v-33h-66v26q0 63 34.5 95t97.5 32h110q62 0 94 -31.5t32 -91.5v-382h-59l-4 54zM243 52q21 0 31.5 4.5t24.5 13.5l65 42v135
l-183 -22q-30 -4 -46 -15t-16 -41v-64q0 -29 13.5 -41t45.5 -12h65zM329 682l-68 -117h-46l48 132h66v-15z" />
    <glyph glyph-name="acircumflex" unicode="&#xe2;" horiz-adv-x="500" 
d="M316 21q-17 -11 -33.5 -18t-45.5 -7h-65q-55 0 -86.5 26.5t-31.5 79.5v70q0 55 32.5 79t86.5 30l191 21v83q0 64 -67 64h-102q-67 0 -67 -64v-33h-66v26q0 63 34.5 95t97.5 32h110q62 0 94 -31.5t32 -91.5v-382h-59l-4 54zM243 52q21 0 31.5 4.5t24.5 13.5l65 42v135
l-183 -22q-30 -4 -46 -15t-16 -41v-64q0 -29 13.5 -41t45.5 -12h65zM241 653l-65 -88h-47l86 132h53l86 -132h-48z" />
    <glyph glyph-name="atilde" unicode="&#xe3;" horiz-adv-x="500" 
d="M316 21q-17 -11 -33.5 -18t-45.5 -7h-65q-55 0 -86.5 26.5t-31.5 79.5v70q0 55 32.5 79t86.5 30l191 21v83q0 64 -67 64h-102q-67 0 -67 -64v-33h-66v26q0 63 34.5 95t97.5 32h110q62 0 94 -31.5t32 -91.5v-382h-59l-4 54zM243 52q21 0 31.5 4.5t24.5 13.5l65 42v135
l-183 -22q-30 -4 -46 -15t-16 -41v-64q0 -29 13.5 -41t45.5 -12h65zM329 633q28 0 28 24v40h42v-47q0 -30 -16 -46.5t-48 -16.5h-24q-15 0 -29 5.5t-23 11.5l-53 33q-7 5 -17 9t-20 4h-14q-27 0 -27 -25v-38h-44v46q0 64 65 64h26q14 0 27.5 -5.5t23.5 -11.5l52 -34
q7 -4 17 -8.5t20 -4.5h14z" />
    <glyph glyph-name="adieresis" unicode="&#xe4;" horiz-adv-x="500" 
d="M316 21q-17 -11 -33.5 -18t-45.5 -7h-65q-55 0 -86.5 26.5t-31.5 79.5v70q0 55 32.5 79t86.5 30l191 21v83q0 64 -67 64h-102q-67 0 -67 -64v-33h-66v26q0 63 34.5 95t97.5 32h110q62 0 94 -31.5t32 -91.5v-382h-59l-4 54zM243 52q21 0 31.5 4.5t24.5 13.5l65 42v135
l-183 -22q-30 -4 -46 -15t-16 -41v-64q0 -29 13.5 -41t45.5 -12h65zM160 672h55v-79h-55v79zM270 672h55v-79h-55v79z" />
    <glyph glyph-name="aring" unicode="&#xe5;" horiz-adv-x="500" 
d="M316 21q-17 -11 -33.5 -18t-45.5 -7h-65q-55 0 -86.5 26.5t-31.5 79.5v70q0 55 32.5 79t86.5 30l191 21v83q0 64 -67 64h-102q-67 0 -67 -64v-33h-66v26q0 63 34.5 95t97.5 32h110q62 0 94 -31.5t32 -91.5v-382h-59l-4 54zM243 52q21 0 31.5 4.5t24.5 13.5l65 42v135
l-183 -22q-30 -4 -46 -15t-16 -41v-64q0 -29 13.5 -41t45.5 -12h65zM262 741q83 0 83 -78v-29q0 -80 -83 -80h-35q-83 0 -83 80v29q0 78 83 78h35zM226 702q-40 0 -40 -40v-29q0 -39 40 -39h36q40 0 40 39v29q0 40 -40 40h-36z" />
    <glyph glyph-name="ae" unicode="&#xe6;" horiz-adv-x="804" 
d="M497 -4q-91 0 -120 64l-61 -39q-17 -11 -33.5 -18t-45.5 -7h-65q-55 0 -86.5 26.5t-31.5 79.5v65q0 55 34 78.5t89 29.5l187 21v90q0 64 -67 64h-102q-67 0 -67 -64v-36h-66v28q0 63 34.5 95t97.5 32h110q65 0 91 -42q33 42 102 42h116q64 0 98 -34t34 -100v-130h-315
v-123q0 -68 68 -68h114q35 0 51.5 18t16.5 50v38h65v-29q0 -65 -34 -98t-98 -33h-116zM243 51q21 0 31.5 4.5t24.5 13.5l66 42q-1 5 -1 9.5v9.5v110l-183 -19q-30 -3 -46 -15t-16 -41v-61q0 -29 13.5 -41t45.5 -12h65zM430 296h251v87q0 67 -68 67h-115q-68 0 -68 -67v-87z
" />
    <glyph glyph-name="ccedilla" unicode="&#xe7;" horiz-adv-x="490" 
d="M195 -4q-64 0 -98.5 34t-34.5 100v241q0 66 34.5 100t98.5 34h111q63 0 97.5 -34t34.5 -100v-33h-66v40q0 68 -67 68h-108q-68 0 -68 -68v-255q0 -68 68 -68h108q67 0 67 68v55h66v-48q0 -66 -34.5 -100t-97.5 -34h-49l-20 -47h48q32 0 50 -13.5t18 -43.5v-25
q0 -56 -67 -56h-117v40h111q27 0 27 23v11q0 24 -28 24h-78q-9 0 -13.5 3t-4.5 12v7q0 5 1.5 9t3.5 7l22 49h-15v0z" />
    <glyph glyph-name="egrave" unicode="&#xe8;" horiz-adv-x="502" 
d="M444 127q0 -65 -34.5 -98t-98.5 -33h-116q-64 0 -98.5 34t-34.5 100v241q0 66 34.5 100t98.5 34h116q64 0 98.5 -34t34.5 -100v-135h-315v-117q0 -68 67 -68h115q67 0 67 68v37h66v-29zM129 291h250v91q0 68 -68 68h-115q-67 0 -67 -68v-91zM166 697h66l48 -132h-46
l-68 117v15z" />
    <glyph glyph-name="eacute" unicode="&#xe9;" horiz-adv-x="502" 
d="M340 682l-68 -117h-46l48 132h66v-15zM444 127q0 -65 -34.5 -98t-98.5 -33h-116q-64 0 -98.5 34t-34.5 100v241q0 66 34.5 100t98.5 34h116q64 0 98.5 -34t34.5 -100v-135h-315v-117q0 -68 67 -68h115q67 0 67 68v37h66v-29zM129 291h250v91q0 68 -68 68h-115
q-67 0 -67 -68v-91z" />
    <glyph glyph-name="ecircumflex" unicode="&#xea;" horiz-adv-x="502" 
d="M253 653l-65 -88h-47l86 132h53l86 -132h-48zM444 127q0 -65 -34.5 -98t-98.5 -33h-116q-64 0 -98.5 34t-34.5 100v241q0 66 34.5 100t98.5 34h116q64 0 98.5 -34t34.5 -100v-135h-315v-117q0 -68 67 -68h115q67 0 67 68v37h66v-29zM129 291h250v91q0 68 -68 68h-115
q-67 0 -67 -68v-91z" />
    <glyph glyph-name="edieresis" unicode="&#xeb;" horiz-adv-x="502" 
d="M171 672h55v-79h-55v79zM281 672h55v-79h-55v79zM444 127q0 -65 -34.5 -98t-98.5 -33h-116q-64 0 -98.5 34t-34.5 100v241q0 66 34.5 100t98.5 34h116q64 0 98.5 -34t34.5 -100v-135h-315v-117q0 -68 67 -68h115q67 0 67 68v37h66v-29zM129 291h250v91q0 68 -68 68h-115
q-67 0 -67 -68v-91z" />
    <glyph glyph-name="igrave" unicode="&#xec;" horiz-adv-x="211" 
d="M72 501h67v-501h-67v501zM17 697h66l48 -132h-46l-68 117v15z" />
    <glyph glyph-name="iacute" unicode="&#xed;" horiz-adv-x="211" 
d="M195 682l-68 -117h-46l48 132h66v-15zM71 501h67v-501h-67v501z" />
    <glyph glyph-name="icircumflex" unicode="&#xee;" horiz-adv-x="211" 
d="M107 653l-65 -88h-47l86 132h53l86 -132h-48zM72 501h67v-501h-67v501z" />
    <glyph glyph-name="idieresis" unicode="&#xef;" horiz-adv-x="211" 
d="M24 672h55v-79h-55v79zM134 672h55v-79h-55v79zM72 501h67v-501h-67v501z" />
    <glyph glyph-name="eth" unicode="&#xf0;" horiz-adv-x="522" 
d="M196 -4q-65 0 -99 34t-34 100v251q0 61 32 92.5t92 31.5h71q28 0 45 -5.5t33 -16.5l50 -33v21q0 34 -8 53.5t-29 45.5l-22 28l-90 -30v41l65 22l-51 66h75l38 -46l89 29v-41l-64 -21l18 -23q14 -18 23 -33.5t14 -32t7 -34.5t2 -40v-325q0 -66 -34 -100t-99 -34h-124z
M318 54q34 0 51 18.5t17 48.5v263l-67 44q-14 9 -24.5 13.5t-33.5 4.5h-66q-65 0 -65 -65v-260q0 -67 68 -67h120z" />
    <glyph glyph-name="ntilde" unicode="&#xf1;" horiz-adv-x="531" 
d="M264 446q-23 0 -34 -5t-24 -13l-68 -44v-384h-67v501h61l3 -54l54 36q16 11 31.5 16.5t43.5 5.5h75q60 0 91 -31.5t31 -91.5v-382h-67v382q0 64 -64 64h-66zM352 633q28 0 28 24v40h42v-47q0 -30 -16 -46.5t-48 -16.5h-24q-15 0 -29 5.5t-23 11.5l-53 33q-7 5 -17 9
t-20 4h-14q-27 0 -27 -25v-38h-44v46q0 64 65 64h26q14 0 27.5 -5.5t23.5 -11.5l52 -34q7 -4 17 -8.5t20 -4.5h14z" />
    <glyph glyph-name="ograve" unicode="&#xf2;" horiz-adv-x="514" 
d="M195 -4q-64 0 -98.5 34t-34.5 100v241q0 66 34.5 100t98.5 34h123q65 0 99 -34t34 -100v-241q0 -66 -34 -100t-99 -34h-123zM317 54q33 0 50 18.5t17 48.5v259q0 67 -67 67h-120q-68 0 -68 -67v-259q0 -67 68 -67h120zM169 697h66l48 -132h-46l-68 117v15z" />
    <glyph glyph-name="oacute" unicode="&#xf3;" horiz-adv-x="514" 
d="M346 682l-68 -117h-46l48 132h66v-15zM195 -4q-64 0 -98.5 34t-34.5 100v241q0 66 34.5 100t98.5 34h123q65 0 99 -34t34 -100v-241q0 -66 -34 -100t-99 -34h-123zM317 54q33 0 50 18.5t17 48.5v259q0 67 -67 67h-120q-68 0 -68 -67v-259q0 -67 68 -67h120z" />
    <glyph glyph-name="ocircumflex" unicode="&#xf4;" horiz-adv-x="514" 
d="M257 653l-65 -88h-47l86 132h53l86 -132h-48zM195 -4q-64 0 -98.5 34t-34.5 100v241q0 66 34.5 100t98.5 34h123q65 0 99 -34t34 -100v-241q0 -66 -34 -100t-99 -34h-123zM317 54q33 0 50 18.5t17 48.5v259q0 67 -67 67h-120q-68 0 -68 -67v-259q0 -67 68 -67h120z" />
    <glyph glyph-name="otilde" unicode="&#xf5;" horiz-adv-x="514" 
d="M195 -4q-64 0 -98.5 34t-34.5 100v241q0 66 34.5 100t98.5 34h123q65 0 99 -34t34 -100v-241q0 -66 -34 -100t-99 -34h-123zM317 54q33 0 50 18.5t17 48.5v259q0 67 -67 67h-120q-68 0 -68 -67v-259q0 -67 68 -67h120zM345 633q28 0 28 24v40h42v-47q0 -30 -16 -46.5
t-48 -16.5h-24q-15 0 -29 5.5t-23 11.5l-53 33q-7 5 -17 9t-20 4h-14q-27 0 -27 -25v-38h-44v46q0 64 65 64h26q14 0 27.5 -5.5t23.5 -11.5l52 -34q7 -4 17 -8.5t20 -4.5h14z" />
    <glyph glyph-name="odieresis" unicode="&#xf6;" horiz-adv-x="514" 
d="M175 672h55v-79h-55v79zM285 672h55v-79h-55v79zM195 -4q-64 0 -98.5 34t-34.5 100v241q0 66 34.5 100t98.5 34h123q65 0 99 -34t34 -100v-241q0 -66 -34 -100t-99 -34h-123zM317 54q33 0 50 18.5t17 48.5v259q0 67 -67 67h-120q-68 0 -68 -67v-259q0 -67 68 -67h120z
" />
    <glyph glyph-name="divide" unicode="&#xf7;" horiz-adv-x="491" 
d="M429 377v-57h-367v57h367zM215 216h61v-84h-61v84zM215 565h61v-84h-61v84z" />
    <glyph glyph-name="oslash" unicode="&#xf8;" horiz-adv-x="510" 
d="M57 -24l35 57q-31 34 -31 97v241q0 66 34.5 100t98.5 34h121q36 0 65 -12l20 32h53l-36 -58q31 -36 31 -96v-241q0 -66 -34 -100t-99 -34h-121q-38 0 -65 12l-20 -32h-52zM316 50q34 0 51.5 19.5t17.5 50.5v261q0 17 -4 29l-222 -354q15 -6 35 -6h122zM125 120
q0 -17 4 -29l220 353q-14 6 -33 6h-122q-69 0 -69 -69v-261z" />
    <glyph glyph-name="ugrave" unicode="&#xf9;" 
d="M337 18q-16 -11 -31.5 -16.5t-44.5 -5.5h-69q-60 0 -91.5 31.5t-31.5 91.5v382h67v-382q0 -64 65 -64h61q23 0 33.5 4.5t24.5 13.5l67 44v384h67v-501h-60l-4 54zM177 697h66l48 -132h-46l-68 117v15z" />
    <glyph glyph-name="uacute" unicode="&#xfa;" 
d="M351 682l-68 -117h-46l48 132h66v-15zM337 18q-16 -11 -31.5 -16.5t-44.5 -5.5h-69q-60 0 -91.5 31.5t-31.5 91.5v382h67v-382q0 -64 65 -64h61q23 0 33.5 4.5t24.5 13.5l67 44v384h67v-501h-60l-4 54z" />
    <glyph glyph-name="ucircumflex" unicode="&#xfb;" 
d="M264 653l-65 -88h-47l86 132h53l86 -132h-48zM337 18q-16 -11 -31.5 -16.5t-44.5 -5.5h-69q-60 0 -91.5 31.5t-31.5 91.5v382h67v-382q0 -64 65 -64h61q23 0 33.5 4.5t24.5 13.5l67 44v384h67v-501h-60l-4 54z" />
    <glyph glyph-name="udieresis" unicode="&#xfc;" 
d="M182 672h55v-79h-55v79zM292 672h55v-79h-55v79zM337 18q-16 -11 -31.5 -16.5t-44.5 -5.5h-69q-60 0 -91.5 31.5t-31.5 91.5v382h67v-382q0 -64 65 -64h61q23 0 33.5 4.5t24.5 13.5l67 44v384h67v-501h-60l-4 54z" />
    <glyph glyph-name="yacute" unicode="&#xfd;" horiz-adv-x="485" 
d="M75 -190v58h53q20 0 32.5 8t21.5 31l34 82l-158 335q-3 6 -8 21t-5 35v121h67v-114q0 -29 9 -47l128 -273l115 273q4 9 6.5 20t2.5 27v114h65v-121q0 -18 -5 -34t-7 -22l-181 -425q-20 -48 -44 -68.5t-62 -20.5h-64zM331 682l-68 -117h-46l48 132h66v-15z" />
    <glyph glyph-name="thorn" unicode="&#xfe;" horiz-adv-x="525" 
d="M138 51v-247h-67v893h67v-247l51 33q16 10 31.5 16t43.5 6h75q60 0 91 -31.5t31 -91.5v-263q0 -60 -31 -91.5t-91 -31.5h-75q-28 0 -43.5 6t-31.5 16zM329 55q65 0 65 64v263q0 64 -65 64h-65q-23 0 -33.5 -4.5t-24.5 -13.5l-68 -44v-267l68 -44q14 -9 24.5 -13.5
t33.5 -4.5h65z" />
    <glyph glyph-name="ydieresis" unicode="&#xff;" horiz-adv-x="485" 
d="M75 -190v58h53q20 0 32.5 8t21.5 31l34 82l-158 335q-3 6 -8 21t-5 35v121h67v-114q0 -29 9 -47l128 -273l115 273q4 9 6.5 20t2.5 27v114h65v-121q0 -18 -5 -34t-7 -22l-181 -425q-20 -48 -44 -68.5t-62 -20.5h-64zM157 672h55v-79h-55v79zM267 672h55v-79h-55v79z" />
    <glyph glyph-name="Amacron" unicode="&#x100;" horiz-adv-x="574" 
d="M116 0h-67v160q0 20 4 36.5t7 23.5l191 479h73l190 -479q3 -6 7 -23t4 -37v-160h-68v152q0 7 -0.5 13t-1.5 12h-338q-1 -6 -1 -12v-13v-152zM137 237h299l-149 393zM161 822h252v-48h-252v48z" />
    <glyph glyph-name="amacron" unicode="&#x101;" horiz-adv-x="500" 
d="M316 21q-17 -11 -33.5 -18t-45.5 -7h-65q-55 0 -86.5 26.5t-31.5 79.5v70q0 55 32.5 79t86.5 30l191 21v83q0 64 -67 64h-102q-67 0 -67 -64v-33h-66v26q0 63 34.5 95t97.5 32h110q62 0 94 -31.5t32 -91.5v-382h-59l-4 54zM243 52q21 0 31.5 4.5t24.5 13.5l65 42v135
l-183 -22q-30 -4 -46 -15t-16 -41v-64q0 -29 13.5 -41t45.5 -12h65zM118 646h252v-48h-252v48z" />
    <glyph glyph-name="Abreve" unicode="&#x102;" horiz-adv-x="574" 
d="M116 0h-67v160q0 20 4 36.5t7 23.5l191 479h73l190 -479q3 -6 7 -23t4 -37v-160h-68v152q0 7 -0.5 13t-1.5 12h-338q-1 -6 -1 -12v-13v-152zM137 237h299l-149 393zM412 890v-60q0 -43 -25 -65t-72 -22h-56q-47 0 -72 22t-25 65v60h47v-59q0 -47 53 -47h51q52 0 52 47v59
h47z" />
    <glyph glyph-name="abreve" unicode="&#x103;" horiz-adv-x="500" 
d="M316 21q-17 -11 -33.5 -18t-45.5 -7h-65q-55 0 -86.5 26.5t-31.5 79.5v70q0 55 32.5 79t86.5 30l191 21v83q0 64 -67 64h-102q-67 0 -67 -64v-33h-66v26q0 63 34.5 95t97.5 32h110q62 0 94 -31.5t32 -91.5v-382h-59l-4 54zM243 52q21 0 31.5 4.5t24.5 13.5l65 42v135
l-183 -22q-30 -4 -46 -15t-16 -41v-64q0 -29 13.5 -41t45.5 -12h65zM369 710v-60q0 -43 -25 -65t-72 -22h-56q-47 0 -72 22t-25 65v60h47v-59q0 -47 52 -47h51q53 0 53 47v59h47z" />
    <glyph glyph-name="Aogonek" unicode="&#x104;" horiz-adv-x="574" 
d="M116 0h-67v160q0 20 4 36.5t7 23.5l191 479h73l190 -479q3 -6 7 -23t4 -37v-160h-9l-94 -61q-11 -8 -19.5 -16.5t-8.5 -24.5v-14q0 -15 8.5 -21t27.5 -6h95v-47h-105q-80 0 -80 65v16q0 29 16.5 46t30.5 26l70 44v145q0 7 -0.5 13t-1.5 12h-338q-1 -6 -1 -12v-13v-152z
M137 237h299l-149 393z" />
    <glyph glyph-name="aogonek" unicode="&#x105;" horiz-adv-x="501" 
d="M317 21q-17 -11 -33.5 -18t-45.5 -7h-65q-55 0 -86.5 26.5t-31.5 79.5v70q0 55 32.5 79t86.5 30l191 21v83q0 64 -67 64h-102q-67 0 -67 -64v-33h-66v26q0 63 34.5 95t97.5 32h110q62 0 94 -31.5t32 -91.5v-382h-9l-94 -61q-11 -8 -19.5 -16.5t-8.5 -24.5v-14
q0 -15 8.5 -21t27.5 -6h95v-47h-105q-80 0 -80 65v16q0 29 16.5 46t30.5 26l78 49l-3 42zM244 52q21 0 31.5 4.5t24.5 13.5l65 42v135l-183 -22q-30 -4 -46 -15t-16 -41v-64q0 -29 13.5 -41t45.5 -12h65z" />
    <glyph glyph-name="Cacute" unicode="&#x106;" horiz-adv-x="579" 
d="M525 228v-89q0 -70 -37 -106.5t-106 -36.5h-163q-70 0 -106.5 36.5t-36.5 106.5v419q0 70 36.5 106.5t106.5 36.5h163q69 0 106 -36.5t37 -106.5v-63h-70v70q0 74 -74 74h-160q-75 0 -75 -74v-433q0 -74 75 -74h160q74 0 74 74v96h70zM388 862l-67 -117h-47l48 132h66
v-15z" />
    <glyph glyph-name="cacute" unicode="&#x107;" horiz-adv-x="490" 
d="M339 682l-68 -117h-46l48 132h66v-15zM195 -4q-64 0 -98.5 34t-34.5 100v241q0 66 34.5 100t98.5 34h111q63 0 97.5 -34t34.5 -100v-33h-66v40q0 68 -67 68h-108q-68 0 -68 -68v-255q0 -68 68 -68h108q67 0 67 68v55h66v-48q0 -66 -34.5 -100t-97.5 -34h-111z" />
    <glyph glyph-name="Ccircumflex" unicode="&#x108;" horiz-adv-x="579" 
d="M525 228v-89q0 -70 -37 -106.5t-106 -36.5h-163q-70 0 -106.5 36.5t-36.5 106.5v419q0 70 36.5 106.5t106.5 36.5h163q69 0 106 -36.5t37 -106.5v-63h-70v70q0 74 -74 74h-160q-75 0 -75 -74v-433q0 -74 75 -74h160q74 0 74 74v96h70zM300 833l-65 -88h-47l85 132h54
l86 -132h-48z" />
    <glyph glyph-name="ccircumflex" unicode="&#x109;" horiz-adv-x="490" 
d="M249 653l-65 -88h-47l86 132h53l86 -132h-48zM195 -4q-64 0 -98.5 34t-34.5 100v241q0 66 34.5 100t98.5 34h111q63 0 97.5 -34t34.5 -100v-33h-66v40q0 68 -67 68h-108q-68 0 -68 -68v-255q0 -68 68 -68h108q67 0 67 68v55h66v-48q0 -66 -34.5 -100t-97.5 -34h-111z" />
    <glyph glyph-name="Cdotaccent" unicode="&#x10a;" horiz-adv-x="579" 
d="M267 877h67v-90h-67v90zM525 228v-89q0 -70 -37 -106.5t-106 -36.5h-163q-70 0 -106.5 36.5t-36.5 106.5v419q0 70 36.5 106.5t106.5 36.5h163q69 0 106 -36.5t37 -106.5v-63h-70v70q0 74 -74 74h-160q-75 0 -75 -74v-433q0 -74 75 -74h160q74 0 74 74v96h70z" />
    <glyph glyph-name="cdotaccent" unicode="&#x10b;" horiz-adv-x="490" 
d="M195 -4q-64 0 -98.5 34t-34.5 100v241q0 66 34.5 100t98.5 34h111q63 0 97.5 -34t34.5 -100v-33h-66v40q0 68 -67 68h-108q-68 0 -68 -68v-255q0 -68 68 -68h108q67 0 67 68v55h66v-48q0 -66 -34.5 -100t-97.5 -34h-111zM215 686h67v-91h-67v91z" />
    <glyph glyph-name="Ccaron" unicode="&#x10c;" horiz-adv-x="579" 
d="M186 892h47l65 -88l65 88h48l-86 -132h-53zM525 228v-89q0 -70 -37 -106.5t-106 -36.5h-163q-70 0 -106.5 36.5t-36.5 106.5v419q0 70 36.5 106.5t106.5 36.5h163q69 0 106 -36.5t37 -106.5v-63h-70v70q0 74 -74 74h-160q-75 0 -75 -74v-433q0 -74 75 -74h160q74 0 74 74
v96h70z" />
    <glyph glyph-name="ccaron" unicode="&#x10d;" horiz-adv-x="490" 
d="M137 697h47l65 -88l65 88h48l-86 -132h-53zM195 -4q-64 0 -98.5 34t-34.5 100v241q0 66 34.5 100t98.5 34h111q63 0 97.5 -34t34.5 -100v-33h-66v40q0 68 -67 68h-108q-68 0 -68 -68v-255q0 -68 68 -68h108q67 0 67 68v55h66v-48q0 -66 -34.5 -100t-97.5 -34h-111z" />
    <glyph glyph-name="Dcaron" unicode="&#x10e;" horiz-adv-x="622" 
d="M194 892h47l65 -88l65 88h48l-86 -132h-53zM87 697h305q76 0 115.5 -40t39.5 -116v-385q0 -76 -39.5 -116t-115.5 -40h-305v697zM393 62q42 0 63 21.5t21 62.5v405q0 41 -21 62.5t-63 21.5h-236v-573h236z" />
    <glyph glyph-name="dcaron" unicode="&#x10f;" 
d="M594 675l-50 -122h-39l26 144h63v-22zM337 18q-16 -11 -31.5 -16.5t-44.5 -5.5h-74q-60 0 -91.5 31.5t-31.5 91.5v263q0 60 31.5 91.5t91.5 31.5h74q29 0 44.5 -5.5t31.5 -16.5l50 -33v247h67v-697h-60l-5 54zM262 55q23 0 33.5 4.5t24.5 13.5l67 44v267l-67 44
q-14 9 -24.5 13.5t-33.5 4.5h-66q-65 0 -65 -64v-263q0 -64 65 -64h66z" />
    <glyph glyph-name="Dcroat" unicode="&#x110;" horiz-adv-x="624" 
d="M89 0v334h-68v58h68v305h305q76 0 115.5 -40t39.5 -116v-385q0 -76 -39.5 -116t-115.5 -40h-305zM395 62q42 0 63 21.5t21 62.5v405q0 41 -21 62.5t-63 21.5h-236v-243h133v-58h-133v-272h236z" />
    <glyph glyph-name="dcroat" unicode="&#x111;" 
d="M283 618h104v79h67v-79h70v-44h-70v-574h-60l-5 54l-52 -36q-16 -11 -31.5 -16.5t-44.5 -5.5h-74q-60 0 -91.5 31.5t-31.5 91.5v263q0 60 31.5 91.5t91.5 31.5h74q29 0 44.5 -5.5t31.5 -16.5l50 -33v124h-104v44zM262 55q23 0 33.5 4.5t24.5 13.5l67 44v267l-67 44
q-14 9 -24.5 13.5t-33.5 4.5h-66q-65 0 -65 -64v-263q0 -64 65 -64h66z" />
    <glyph glyph-name="Emacron" unicode="&#x112;" horiz-adv-x="559" 
d="M87 697h421v-61h-351v-245h327v-59h-327v-271h359v-61h-429v697zM175 822h252v-48h-252v48z" />
    <glyph glyph-name="emacron" unicode="&#x113;" horiz-adv-x="502" 
d="M444 127q0 -65 -34.5 -98t-98.5 -33h-116q-64 0 -98.5 34t-34.5 100v241q0 66 34.5 100t98.5 34h116q64 0 98.5 -34t34.5 -100v-135h-315v-117q0 -68 67 -68h115q67 0 67 68v37h66v-29zM129 291h250v91q0 68 -68 68h-115q-67 0 -67 -68v-91zM126 646h252v-48h-252v48z
" />
    <glyph glyph-name="Ebreve" unicode="&#x114;" horiz-adv-x="559" 
d="M87 697h421v-61h-351v-245h327v-59h-327v-271h359v-61h-429v697zM425 890v-60q0 -43 -25 -65t-72 -22h-56q-47 0 -72 22t-25 65v60h47v-59q0 -47 53 -47h51q52 0 52 47v59h47z" />
    <glyph glyph-name="ebreve" unicode="&#x115;" horiz-adv-x="502" 
d="M444 127q0 -65 -34.5 -98t-98.5 -33h-116q-64 0 -98.5 34t-34.5 100v241q0 66 34.5 100t98.5 34h116q64 0 98.5 -34t34.5 -100v-135h-315v-117q0 -68 67 -68h115q67 0 67 68v37h66v-29zM129 291h250v91q0 68 -68 68h-115q-67 0 -67 -68v-91zM378 710v-60q0 -43 -25 -65
t-72 -22h-56q-47 0 -72 22t-25 65v60h47v-59q0 -47 52 -47h51q53 0 53 47v59h47z" />
    <glyph glyph-name="Edotaccent" unicode="&#x116;" horiz-adv-x="559" 
d="M269 877h67v-90h-67v90zM87 697h421v-61h-351v-245h327v-59h-327v-271h359v-61h-429v697z" />
    <glyph glyph-name="edotaccent" unicode="&#x117;" horiz-adv-x="502" 
d="M444 127q0 -65 -34.5 -98t-98.5 -33h-116q-64 0 -98.5 34t-34.5 100v241q0 66 34.5 100t98.5 34h116q64 0 98.5 -34t34.5 -100v-135h-315v-117q0 -68 67 -68h115q67 0 67 68v37h66v-29zM129 291h250v91q0 68 -68 68h-115q-67 0 -67 -68v-91zM219 686h67v-91h-67v91z" />
    <glyph glyph-name="Eogonek" unicode="&#x118;" horiz-adv-x="559" 
d="M87 697h421v-61h-351v-245h327v-59h-327v-271h359v-61h-45l-94 -61q-11 -8 -19.5 -16.5t-8.5 -24.5v-14q0 -15 8.5 -21t27.5 -6h95v-47h-105q-80 0 -80 65v16q0 29 16.5 46t30.5 26l58 37h-313v697z" />
    <glyph glyph-name="eogonek" unicode="&#x119;" horiz-adv-x="503" 
d="M310 -190q-80 0 -80 65v16q0 14 5 25t12.5 20t15.5 15.5t14 11.5l37 34q-2 -1 -8 -1h-110q-65 0 -99 34t-34 100v241q0 66 34 100t99 34h116q64 0 98 -34t34 -100v-135h-315v-117q0 -68 68 -68h114q68 0 68 68v37h65v-29q0 -66 -36 -100l-96 -88q-10 -9 -19 -17t-9 -24
v-14q0 -15 8.5 -21t27.5 -6h95v-47h-105zM129 291h251v91q0 68 -68 68h-115q-68 0 -68 -68v-91z" />
    <glyph glyph-name="Ecaron" unicode="&#x11a;" horiz-adv-x="559" 
d="M188 892h47l65 -88l65 88h48l-86 -132h-53zM87 697h421v-61h-351v-245h327v-59h-327v-271h359v-61h-429v697z" />
    <glyph glyph-name="ecaron" unicode="&#x11b;" horiz-adv-x="502" 
d="M140 697h47l65 -88l65 88h48l-86 -132h-53zM444 127q0 -65 -34.5 -98t-98.5 -33h-116q-64 0 -98.5 34t-34.5 100v241q0 66 34.5 100t98.5 34h116q64 0 98.5 -34t34.5 -100v-135h-315v-117q0 -68 67 -68h115q67 0 67 68v37h66v-29zM129 291h250v91q0 68 -68 68h-115
q-67 0 -67 -68v-91z" />
    <glyph glyph-name="Gcircumflex" unicode="&#x11c;" horiz-adv-x="591" 
d="M299 833l-65 -88h-47l85 132h54l86 -132h-48zM525 139q0 -70 -37 -106.5t-106 -36.5h-163q-70 0 -106.5 36.5t-36.5 106.5v419q0 70 36.5 106.5t106.5 36.5h163q69 0 106 -36.5t37 -106.5v-63h-70v70q0 74 -74 74h-160q-75 0 -75 -74v-433q0 -74 75 -74h160q74 0 74 74
v149h-128v58h198v-200z" />
    <glyph glyph-name="gcircumflex" unicode="&#x11d;" horiz-adv-x="525" 
d="M260 653l-65 -88h-47l86 132h53l86 -132h-48zM205 -194q-63 0 -97.5 32.5t-34.5 93.5v18h66v-25q0 -64 67 -64h114q68 0 68 64v151l-51 -34q-16 -11 -31.5 -16.5t-44.5 -5.5h-74q-60 0 -91.5 31.5t-31.5 91.5v239q0 60 31.5 91.5t91.5 31.5h74q29 0 45 -5.5t31 -16.5
l53 -36l5 54h59v-565q0 -130 -134 -130h-115zM262 79q23 0 33.5 4.5t24.5 13.5l68 44v243l-68 44q-14 9 -24.5 13.5t-33.5 4.5h-67q-65 0 -65 -64v-239q0 -64 65 -64h67z" />
    <glyph glyph-name="Gbreve" unicode="&#x11e;" horiz-adv-x="591" 
d="M525 139q0 -70 -37 -106.5t-106 -36.5h-163q-70 0 -106.5 36.5t-36.5 106.5v419q0 70 36.5 106.5t106.5 36.5h163q69 0 106 -36.5t37 -106.5v-63h-70v70q0 74 -74 74h-160q-75 0 -75 -74v-433q0 -74 75 -74h160q74 0 74 74v149h-128v58h198v-200zM425 890v-60
q0 -43 -25 -65t-72 -22h-56q-47 0 -72 22t-25 65v60h47v-59q0 -47 53 -47h51q52 0 52 47v59h47z" />
    <glyph glyph-name="gbreve" unicode="&#x11f;" horiz-adv-x="525" 
d="M205 -194q-63 0 -97.5 32.5t-34.5 93.5v18h66v-25q0 -64 67 -64h114q68 0 68 64v151l-51 -34q-16 -11 -31.5 -16.5t-44.5 -5.5h-74q-60 0 -91.5 31.5t-31.5 91.5v239q0 60 31.5 91.5t91.5 31.5h74q29 0 45 -5.5t31 -16.5l53 -36l5 54h59v-565q0 -130 -134 -130h-115z
M262 79q23 0 33.5 4.5t24.5 13.5l68 44v243l-68 44q-14 9 -24.5 13.5t-33.5 4.5h-67q-65 0 -65 -64v-239q0 -64 65 -64h67zM385 710v-60q0 -43 -25 -65t-72 -22h-56q-47 0 -72 22t-25 65v60h47v-59q0 -47 52 -47h51q53 0 53 47v59h47z" />
    <glyph glyph-name="Gdotaccent" unicode="&#x120;" horiz-adv-x="591" 
d="M266 877h67v-90h-67v90zM525 139q0 -70 -37 -106.5t-106 -36.5h-163q-70 0 -106.5 36.5t-36.5 106.5v419q0 70 36.5 106.5t106.5 36.5h163q69 0 106 -36.5t37 -106.5v-63h-70v70q0 74 -74 74h-160q-75 0 -75 -74v-433q0 -74 75 -74h160q74 0 74 74v149h-128v58h198v-200z
" />
    <glyph glyph-name="gdotaccent" unicode="&#x121;" horiz-adv-x="525" 
d="M205 -194q-63 0 -97.5 32.5t-34.5 93.5v18h66v-25q0 -64 67 -64h114q68 0 68 64v151l-51 -34q-16 -11 -31.5 -16.5t-44.5 -5.5h-74q-60 0 -91.5 31.5t-31.5 91.5v239q0 60 31.5 91.5t91.5 31.5h74q29 0 45 -5.5t31 -16.5l53 -36l5 54h59v-565q0 -130 -134 -130h-115z
M262 79q23 0 33.5 4.5t24.5 13.5l68 44v243l-68 44q-14 9 -24.5 13.5t-33.5 4.5h-67q-65 0 -65 -64v-239q0 -64 65 -64h67zM227 686h67v-91h-67v91z" />
    <glyph glyph-name="Gcommaaccent" unicode="&#x122;" horiz-adv-x="591" 
d="M338 -60l-57 -141h-42l28 164h71v-23zM525 139q0 -70 -37 -106.5t-106 -36.5h-163q-70 0 -106.5 36.5t-36.5 106.5v419q0 70 36.5 106.5t106.5 36.5h163q69 0 106 -36.5t37 -106.5v-63h-70v70q0 74 -74 74h-160q-75 0 -75 -74v-433q0 -74 75 -74h160q74 0 74 74v149h-128
v58h198v-200z" />
    <glyph glyph-name="gcommaaccent" unicode="&#x123;" horiz-adv-x="525" 
d="M207 594l57 141h42l-28 -164h-71v23zM205 -194q-63 0 -97.5 32.5t-34.5 93.5v18h66v-25q0 -64 67 -64h114q68 0 68 64v151l-51 -34q-16 -11 -31.5 -16.5t-44.5 -5.5h-74q-60 0 -91.5 31.5t-31.5 91.5v239q0 60 31.5 91.5t91.5 31.5h74q29 0 45 -5.5t31 -16.5l53 -36l5 54
h59v-565q0 -130 -134 -130h-115zM262 79q23 0 33.5 4.5t24.5 13.5l68 44v243l-68 44q-14 9 -24.5 13.5t-33.5 4.5h-67q-65 0 -65 -64v-239q0 -64 65 -64h67z" />
    <glyph glyph-name="Hcircumflex" unicode="&#x124;" horiz-adv-x="634" 
d="M477 331h-320v-331h-70v697h70v-305h320v305h70v-697h-70v331zM318 833l-65 -88h-47l85 132h54l86 -132h-48z" />
    <glyph glyph-name="hcircumflex" unicode="&#x125;" horiz-adv-x="531" 
d="M106 820l-65 -88h-47l86 132h53l86 -132h-48zM138 384v-384h-67v697h67v-247l51 33q16 10 31.5 16t43.5 6h75q60 0 91 -31.5t31 -91.5v-382h-67v382q0 64 -64 64h-66q-23 0 -33.5 -4.5t-24.5 -13.5z" />
    <glyph glyph-name="Hbar" unicode="&#x126;" horiz-adv-x="644" 
d="M36 603h56v94h70v-94h320v94h70v-94h57v-44h-57v-559h-70v331h-320v-331h-70v559h-56v44zM482 392v167h-320v-167h320z" />
    <glyph glyph-name="hbar" unicode="&#x127;" horiz-adv-x="531" 
d="M4 613h68v84h67v-84h117v-44h-117v-119l51 33q16 10 31.5 16t43.5 6h75q60 0 91 -31.5t31 -91.5v-382h-67v382q0 64 -64 64h-66q-23 0 -33.5 -4.5t-24.5 -13.5l-68 -44v-384h-67v569h-68v44z" />
    <glyph glyph-name="Itilde" unicode="&#x128;" horiz-adv-x="243" 
d="M87 697h70v-697h-70v697zM209 799q27 0 27 25v39h43v-47q0 -62 -65 -62h-23q-15 0 -29 5t-24 11l-52 34q-7 5 -17 9t-20 4h-14q-28 0 -28 -25v-38h-43v46q0 63 65 63h26q14 0 27.5 -5t23.5 -11l52 -34q7 -5 17 -9.5t20 -4.5h14z" />
    <glyph glyph-name="itilde" unicode="&#x129;" horiz-adv-x="211" 
d="M72 501h67v-501h-67v501zM194 633q28 0 28 24v40h42v-47q0 -30 -16 -46.5t-48 -16.5h-24q-15 0 -29 5.5t-23 11.5l-53 33q-7 5 -17 9t-20 4h-14q-27 0 -27 -25v-38h-44v46q0 64 65 64h26q14 0 27.5 -5.5t23.5 -11.5l52 -34q7 -4 17 -8.5t20 -4.5h14z" />
    <glyph glyph-name="Imacron" unicode="&#x12a;" horiz-adv-x="243" 
d="M87 697h70v-697h-70v697zM-3 841h252v-48h-252v48z" />
    <glyph glyph-name="imacron" unicode="&#x12b;" horiz-adv-x="211" 
d="M72 501h67v-501h-67v501zM-19 646h252v-48h-252v48z" />
    <glyph glyph-name="Iogonek" unicode="&#x12e;" horiz-adv-x="243" 
d="M148 0l-94 -61q-11 -8 -19.5 -16.5t-8.5 -24.5v-14q0 -15 8.5 -21t27.5 -6h95v-47h-105q-80 0 -80 65v16q0 29 16.5 46t30.5 26l68 43v691h70v-697h-9z" />
    <glyph glyph-name="iogonek" unicode="&#x12f;" horiz-adv-x="211" 
d="M125 0l-94 -61q-11 -8 -19.5 -16.5t-8.5 -24.5v-14q0 -15 8.5 -21t27.5 -6h95v-47h-105q-80 0 -80 65v16q0 29 16.5 46t30.5 26l76 48v490h67v-501h-14zM70 697h71v-102h-71v102z" />
    <glyph glyph-name="Idotaccent" unicode="&#x130;" horiz-adv-x="243" 
d="M87 697h70v-697h-70v697zM88 877h67v-90h-67v90z" />
    <glyph glyph-name="dotlessi" unicode="&#x131;" horiz-adv-x="210" 
d="M71 501h67v-501h-67v501z" />
    <glyph glyph-name="IJ" unicode="&#x132;" horiz-adv-x="772" 
d="M87 697h70v-697h-70v697zM688 697v-558q0 -70 -36.5 -106.5t-105.5 -36.5h-127q-69 0 -106 36.5t-37 106.5v82h70v-88q0 -75 75 -75h122q75 0 75 75v564h70z" />
    <glyph glyph-name="ij" unicode="&#x133;" horiz-adv-x="420" 
d="M71 501h67v-501h-67v501zM69 697h71v-102h-71v102zM158 -131h57q66 0 66 68v564h67v-557q0 -65 -34 -99.5t-99 -34.5h-57v59zM279 697h71v-102h-71v102z" />
    <glyph glyph-name="Jcircumflex" unicode="&#x134;" horiz-adv-x="528" 
d="M445 697v-558q0 -70 -36.5 -106.5t-105.5 -36.5h-127q-69 0 -106 36.5t-37 106.5v82h70v-88q0 -75 75 -75h122q75 0 75 75v564h70zM408 833l-65 -88h-47l85 132h54l86 -132h-48z" />
    <glyph glyph-name="jcircumflex" unicode="&#x135;" horiz-adv-x="211" 
d="M107 653l-65 -88h-47l86 132h53l86 -132h-48zM-51 -131h57q66 0 66 68v564h67v-557q0 -65 -34 -99.5t-99 -34.5h-57v59z" />
    <glyph glyph-name="Kcommaaccent" unicode="&#x136;" horiz-adv-x="605" 
d="M349 -60l-57 -141h-42l28 164h71v-23zM157 332v-332h-70v697h70v-306h173l133 128q8 8 11.5 20.5t3.5 27.5v130h67v-145q0 -19 -6.5 -34.5t-16.5 -26.5l-135 -130l143 -165q4 -5 10.5 -18.5t6.5 -32.5v-145h-70v129q0 17 -3.5 26.5t-8.5 14.5l-140 162h-168z" />
    <glyph glyph-name="kcommaaccent" unicode="&#x137;" horiz-adv-x="510" 
d="M297 -60l-57 -141h-42l28 164h71v-23zM138 239v-239h-67v697h67v-400h105l133 106q20 15 20 41v57h61v-68q0 -28 -14 -44.5t-25 -24.5l-117 -94l131 -120q14 -14 22.5 -29.5t8.5 -37.5v-83h-65v75q0 25 -20 42l-133 122h-107z" />
    <glyph glyph-name="kgreenlandic" unicode="&#x138;" horiz-adv-x="510" 
d="M248 238h-110v-238h-67v501h67v-205h108l130 107q10 8 15 17t5 24v57h61v-68q0 -27 -14.5 -44t-24.5 -25l-116 -94l130 -120q14 -14 22.5 -30t8.5 -37v-83h-65v75q0 14 -5 23t-15 19z" />
    <glyph glyph-name="Lacute" unicode="&#x139;" horiz-adv-x="499" 
d="M210 862l-67 -117h-47l48 132h66v-15zM87 697h70v-636h330v-61h-400v697z" />
    <glyph glyph-name="lacute" unicode="&#x13a;" horiz-adv-x="212" 
d="M196 862l-67 -117h-47l48 132h66v-15zM140 697v-697h-67v697h67z" />
    <glyph glyph-name="Lcommaaccent" unicode="&#x13b;" horiz-adv-x="499" 
d="M324 -60l-57 -141h-42l28 164h71v-23zM87 697h70v-636h330v-61h-400v697z" />
    <glyph glyph-name="lcommaaccent" unicode="&#x13c;" horiz-adv-x="212" 
d="M142 -60l-57 -141h-42l28 164h71v-23zM140 697v-697h-67v697h67z" />
    <glyph glyph-name="Lcaron" unicode="&#x13d;" horiz-adv-x="499" 
d="M315 675l-50 -122h-39l26 144h63v-22zM87 697h70v-636h330v-61h-400v697z" />
    <glyph glyph-name="lcaron" unicode="&#x13e;" horiz-adv-x="213" 
d="M279 675l-50 -122h-39l26 144h63v-22zM140 697v-697h-67v697h67z" />
    <glyph glyph-name="Ldot" unicode="&#x13f;" horiz-adv-x="500" 
d="M87 697h70v-636h330v-61h-400v697zM335 411h74v-97h-74v97z" />
    <glyph glyph-name="ldot" unicode="&#x140;" horiz-adv-x="350" 
d="M140 697v-697h-67v697h67zM247 411h74v-97h-74v97z" />
    <glyph glyph-name="Lslash" unicode="&#x141;" horiz-adv-x="505" 
d="M93 326l-87 -40v59l87 40v312h70v-280l185 86v-59l-185 -86v-297h330v-61h-400v326z" />
    <glyph glyph-name="lslash" unicode="&#x142;" horiz-adv-x="273" 
d="M175 697v-237l88 45v-59l-88 -45v-401h-67v367l-86 -44v59l86 44v271h67z" />
    <glyph glyph-name="Nacute" unicode="&#x143;" horiz-adv-x="634" 
d="M406 862l-67 -117h-47l48 132h66v-15zM151 570v-570h-64v697h66l329 -570v570h65v-697h-64z" />
    <glyph glyph-name="nacute" unicode="&#x144;" horiz-adv-x="531" 
d="M355 682l-68 -117h-46l48 132h66v-15zM264 446q-23 0 -34 -5t-24 -13l-68 -44v-384h-67v501h61l3 -54l54 36q16 11 31.5 16.5t43.5 5.5h75q60 0 91 -31.5t31 -91.5v-382h-67v382q0 64 -64 64h-66z" />
    <glyph glyph-name="Ncommaaccent" unicode="&#x145;" horiz-adv-x="634" 
d="M355 -60l-57 -141h-42l28 164h71v-23zM151 570v-570h-64v697h66l329 -570v570h65v-697h-64z" />
    <glyph glyph-name="ncommaaccent" unicode="&#x146;" horiz-adv-x="531" 
d="M304 -60l-57 -141h-42l28 164h71v-23zM264 446q-23 0 -34 -5t-24 -13l-68 -44v-384h-67v501h61l3 -54l54 36q16 11 31.5 16.5t43.5 5.5h75q60 0 91 -31.5t31 -91.5v-382h-67v382q0 64 -64 64h-66z" />
    <glyph glyph-name="Ncaron" unicode="&#x147;" horiz-adv-x="634" 
d="M204 892h47l65 -88l65 88h48l-86 -132h-53zM151 570v-570h-64v697h66l329 -570v570h65v-697h-64z" />
    <glyph glyph-name="ncaron" unicode="&#x148;" horiz-adv-x="531" 
d="M154 697h47l65 -88l65 88h48l-86 -132h-53zM264 446q-23 0 -34 -5t-24 -13l-68 -44v-384h-67v501h61l3 -54l54 36q16 11 31.5 16.5t43.5 5.5h75q60 0 91 -31.5t31 -91.5v-382h-67v382q0 64 -64 64h-66z" />
    <glyph glyph-name="napostrophe" unicode="&#x149;" horiz-adv-x="531" 
d="M87 650l-57 -141h-42l28 164h71v-23zM264 446q-23 0 -34 -5t-24 -13l-68 -44v-384h-67v501h61l3 -54l54 36q16 11 31.5 16.5t43.5 5.5h75q60 0 91 -31.5t31 -91.5v-382h-67v382q0 64 -64 64h-66z" />
    <glyph glyph-name="Omacron" unicode="&#x14c;" horiz-adv-x="612" 
d="M219 -4q-70 0 -106.5 36.5t-36.5 106.5v419q0 70 36.5 106.5t106.5 36.5h175q69 0 105.5 -36.5t36.5 -106.5v-419q0 -70 -36.5 -106.5t-105.5 -36.5h-175zM146 135q0 -38 19.5 -57.5t55.5 -19.5h170q75 0 75 74v433q0 74 -75 74h-170q-75 0 -75 -74v-430zM181 822h252
v-48h-252v48z" />
    <glyph glyph-name="omacron" unicode="&#x14d;" horiz-adv-x="514" 
d="M132 646h252v-48h-252v48zM195 -4q-64 0 -98.5 34t-34.5 100v241q0 66 34.5 100t98.5 34h123q65 0 99 -34t34 -100v-241q0 -66 -34 -100t-99 -34h-123zM317 54q33 0 50 18.5t17 48.5v259q0 67 -67 67h-120q-68 0 -68 -67v-259q0 -67 68 -67h120z" />
    <glyph glyph-name="Obreve" unicode="&#x14e;" horiz-adv-x="612" 
d="M219 -4q-70 0 -106.5 36.5t-36.5 106.5v419q0 70 36.5 106.5t106.5 36.5h175q69 0 105.5 -36.5t36.5 -106.5v-419q0 -70 -36.5 -106.5t-105.5 -36.5h-175zM146 135q0 -38 19.5 -57.5t55.5 -19.5h170q75 0 75 74v433q0 74 -75 74h-170q-75 0 -75 -74v-430zM431 890v-60
q0 -43 -25 -65t-72 -22h-56q-47 0 -72 22t-25 65v60h47v-59q0 -47 53 -47h51q52 0 52 47v59h47z" />
    <glyph glyph-name="obreve" unicode="&#x14f;" horiz-adv-x="514" 
d="M195 -4q-64 0 -98.5 34t-34.5 100v241q0 66 34.5 100t98.5 34h123q65 0 99 -34t34 -100v-241q0 -66 -34 -100t-99 -34h-123zM317 54q33 0 50 18.5t17 48.5v259q0 67 -67 67h-120q-68 0 -68 -67v-259q0 -67 68 -67h120zM382 710v-60q0 -43 -25 -65t-72 -22h-56
q-47 0 -72 22t-25 65v60h47v-59q0 -47 52 -47h51q53 0 53 47v59h47z" />
    <glyph glyph-name="Ohungarumlaut" unicode="&#x150;" horiz-adv-x="612" 
d="M339 877l-64 -117h-40l44 132h60v-15zM461 877l-97 -117h-40l77 132h60v-15zM219 -4q-70 0 -106.5 36.5t-36.5 106.5v419q0 70 36.5 106.5t106.5 36.5h175q69 0 105.5 -36.5t36.5 -106.5v-419q0 -70 -36.5 -106.5t-105.5 -36.5h-175zM146 135q0 -38 19.5 -57.5
t55.5 -19.5h170q75 0 75 74v433q0 74 -75 74h-170q-75 0 -75 -74v-430z" />
    <glyph glyph-name="ohungarumlaut" unicode="&#x151;" horiz-adv-x="514" 
d="M287 682l-64 -117h-40l44 132h60v-15zM409 682l-97 -117h-40l77 132h60v-15zM195 -4q-64 0 -98.5 34t-34.5 100v241q0 66 34.5 100t98.5 34h123q65 0 99 -34t34 -100v-241q0 -66 -34 -100t-99 -34h-123zM317 54q33 0 50 18.5t17 48.5v259q0 67 -67 67h-120q-68 0 -68 -67
v-259q0 -67 68 -67h120z" />
    <glyph glyph-name="OE" unicode="&#x152;" horiz-adv-x="939" 
d="M466 10q-31 -14 -72 -14h-175q-70 0 -106.5 36.5t-36.5 106.5v419q0 70 36.5 106.5t106.5 36.5h175q42 0 72 -15v11h420v-61h-350v-245h328v-59h-328v-271h360v-61h-430v10zM146 135q0 -38 19.5 -57.5t55.5 -19.5h170q75 0 75 74v440q-5 67 -75 67h-170q-75 0 -75 -74
v-430z" />
    <glyph glyph-name="oe" unicode="&#x153;" horiz-adv-x="825" 
d="M766 127q0 -65 -34 -98t-98 -33h-116q-73 0 -101 48q-30 -48 -100 -48h-122q-64 0 -98.5 34t-34.5 100v241q0 66 34.5 100t98.5 34h122q69 0 100 -49q29 49 101 49h116q64 0 98 -34t34 -100v-134h-315v-118q0 -68 68 -68h114q68 0 68 68v37h65v-29zM317 54q33 0 50 18.5
t17 48.5v259q0 67 -67 67h-120q-68 0 -68 -67v-259q0 -67 68 -67h120zM451 292h251v90q0 68 -68 68h-115q-68 0 -68 -68v-90z" />
    <glyph glyph-name="Racute" unicode="&#x154;" horiz-adv-x="582" 
d="M346 285h-189v-285h-70v697h292q69 0 105.5 -36.5t36.5 -106.5v-126q0 -120 -104 -140l105 -288h-75zM157 636v-290h220q74 0 74 75v140q0 75 -74 75h-220zM384 862l-67 -117h-47l48 132h66v-15z" />
    <glyph glyph-name="racute" unicode="&#x155;" horiz-adv-x="353" 
d="M289 682l-68 -117h-46l48 132h66v-15zM71 0v501h61l5 -67l64 49q14 11 30.5 16.5t45.5 5.5h67v-59h-65q-23 0 -34 -4t-24 -14l-83 -64v-364h-67z" />
    <glyph glyph-name="Rcommaaccent" unicode="&#x156;" horiz-adv-x="582" 
d="M337 -60l-57 -141h-42l28 164h71v-23zM346 285h-189v-285h-70v697h292q69 0 105.5 -36.5t36.5 -106.5v-126q0 -120 -104 -140l105 -288h-75zM157 636v-290h220q74 0 74 75v140q0 75 -74 75h-220z" />
    <glyph glyph-name="rcommaaccent" unicode="&#x157;" horiz-adv-x="353" 
d="M141 -60l-57 -141h-42l28 164h71v-23zM71 0v501h61l5 -67l64 49q14 11 30.5 16.5t45.5 5.5h67v-59h-65q-23 0 -34 -4t-24 -14l-83 -64v-364h-67z" />
    <glyph glyph-name="Rcaron" unicode="&#x158;" horiz-adv-x="582" 
d="M171 892h47l65 -88l65 88h48l-86 -132h-53zM346 285h-189v-285h-70v697h292q69 0 105.5 -36.5t36.5 -106.5v-126q0 -120 -104 -140l105 -288h-75zM157 636v-290h220q74 0 74 75v140q0 75 -74 75h-220z" />
    <glyph glyph-name="rcaron" unicode="&#x159;" horiz-adv-x="353" 
d="M87 697h47l65 -88l65 88h48l-86 -132h-53zM71 0v501h61l5 -67l64 49q14 11 30.5 16.5t45.5 5.5h67v-59h-65q-23 0 -34 -4t-24 -14l-83 -64v-364h-67z" />
    <glyph glyph-name="Sacute" unicode="&#x15a;" horiz-adv-x="578" 
d="M65 575q0 61 36.5 93.5t107.5 32.5h158q69 0 106 -32.5t37 -93.5v-78h-69v82q0 62 -77 62h-153q-77 0 -77 -62v-93q0 -26 8.5 -40t34.5 -21l249 -66q45 -12 67.5 -41t22.5 -69v-127q0 -62 -37 -94t-107 -32h-170q-69 0 -106 32t-37 94v72h69v-76q0 -62 77 -62h165
q42 0 59 17t17 45v122q0 44 -42 56l-252 68q-17 4 -32.5 12.5t-27.5 22t-19.5 33.5t-7.5 49v94zM373 862l-67 -117h-47l48 132h66v-15z" />
    <glyph glyph-name="sacute" unicode="&#x15b;" horiz-adv-x="490" 
d="M329 682l-68 -117h-46l48 132h66v-15zM119 157v-50q0 -57 67 -57h116q68 0 68 55v57q0 18 -8.5 27.5t-25.5 14.5l-201 49q-14 3 -27.5 9t-24.5 16.5t-17.5 26t-6.5 38.5v48q0 56 34 85t99 29h106q64 0 98 -30.5t34 -87.5v-32h-66v39q0 56 -67 56h-105q-34 0 -50.5 -14
t-16.5 -40v-49q0 -20 8.5 -27t25.5 -12l200 -49q41 -10 58.5 -33.5t17.5 -54.5v-61q0 -114 -134 -114h-116q-64 0 -98 30.5t-34 87.5v43h66z" />
    <glyph glyph-name="Scircumflex" unicode="&#x15c;" horiz-adv-x="578" 
d="M65 575q0 61 36.5 93.5t107.5 32.5h158q69 0 106 -32.5t37 -93.5v-78h-69v82q0 62 -77 62h-153q-77 0 -77 -62v-93q0 -26 8.5 -40t34.5 -21l249 -66q45 -12 67.5 -41t22.5 -69v-127q0 -62 -37 -94t-107 -32h-170q-69 0 -106 32t-37 94v72h69v-76q0 -62 77 -62h165
q42 0 59 17t17 45v122q0 44 -42 56l-252 68q-17 4 -32.5 12.5t-27.5 22t-19.5 33.5t-7.5 49v94zM288 833l-65 -88h-47l85 132h54l86 -132h-48z" />
    <glyph glyph-name="scircumflex" unicode="&#x15d;" horiz-adv-x="490" 
d="M243 653l-65 -88h-47l86 132h53l86 -132h-48zM119 157v-50q0 -57 67 -57h116q68 0 68 55v57q0 18 -8.5 27.5t-25.5 14.5l-201 49q-14 3 -27.5 9t-24.5 16.5t-17.5 26t-6.5 38.5v48q0 56 34 85t99 29h106q64 0 98 -30.5t34 -87.5v-32h-66v39q0 56 -67 56h-105
q-34 0 -50.5 -14t-16.5 -40v-49q0 -20 8.5 -27t25.5 -12l200 -49q41 -10 58.5 -33.5t17.5 -54.5v-61q0 -114 -134 -114h-116q-64 0 -98 30.5t-34 87.5v43h66z" />
    <glyph glyph-name="Scedilla" unicode="&#x15e;" horiz-adv-x="578" 
d="M65 575q0 61 36.5 93.5t107.5 32.5h158q69 0 106 -32.5t37 -93.5v-78h-69v82q0 62 -77 62h-153q-77 0 -77 -62v-93q0 -26 8.5 -40t34.5 -21l249 -66q45 -12 67.5 -41t22.5 -69v-127q0 -62 -37 -94t-107 -32h-70l-20 -47h48q32 0 50 -13.5t18 -43.5v-25q0 -56 -67 -56
h-117v40h111q27 0 27 23v11q0 24 -28 24h-78q-9 0 -13.5 3t-4.5 12v7q0 5 1.5 9t3.5 7l22 49h-53q-69 0 -106 32t-37 94v72h69v-76q0 -62 77 -62h165q42 0 59 17t17 45v122q0 44 -42 56l-252 68q-17 4 -32.5 12.5t-27.5 22t-19.5 33.5t-7.5 49v94z" />
    <glyph glyph-name="scedilla" unicode="&#x15f;" horiz-adv-x="490" 
d="M119 157v-50q0 -57 67 -57h116q68 0 68 55v57q0 18 -8.5 27.5t-25.5 14.5l-201 49q-14 3 -27.5 9t-24.5 16.5t-17.5 26t-6.5 38.5v48q0 56 34 85t99 29h106q64 0 98 -30.5t34 -87.5v-32h-66v39q0 56 -67 56h-105q-34 0 -50.5 -14t-16.5 -40v-49q0 -20 8.5 -27t25.5 -12
l200 -49q41 -10 58.5 -33.5t17.5 -54.5v-61q0 -114 -134 -114h-50l-20 -47h48q32 0 50 -13.5t18 -43.5v-25q0 -56 -67 -56h-117v40h111q27 0 27 23v11q0 24 -28 24h-78q-9 0 -13.5 3t-4.5 12v7q0 5 1.5 9t3.5 7l22 49h-19q-64 0 -98 30.5t-34 87.5v43h66z" />
    <glyph glyph-name="Scaron" unicode="&#x160;" horiz-adv-x="578" 
d="M174 892h47l65 -88l65 88h48l-86 -132h-53zM65 575q0 61 36.5 93.5t107.5 32.5h158q69 0 106 -32.5t37 -93.5v-78h-69v82q0 62 -77 62h-153q-77 0 -77 -62v-93q0 -26 8.5 -40t34.5 -21l249 -66q45 -12 67.5 -41t22.5 -69v-127q0 -62 -37 -94t-107 -32h-170q-69 0 -106 32
t-37 94v72h69v-76q0 -62 77 -62h165q42 0 59 17t17 45v122q0 44 -42 56l-252 68q-17 4 -32.5 12.5t-27.5 22t-19.5 33.5t-7.5 49v94z" />
    <glyph glyph-name="scaron" unicode="&#x161;" horiz-adv-x="490" 
d="M130 697h47l65 -88l65 88h48l-86 -132h-53zM119 157v-50q0 -57 67 -57h116q68 0 68 55v57q0 18 -8.5 27.5t-25.5 14.5l-201 49q-14 3 -27.5 9t-24.5 16.5t-17.5 26t-6.5 38.5v48q0 56 34 85t99 29h106q64 0 98 -30.5t34 -87.5v-32h-66v39q0 56 -67 56h-105
q-34 0 -50.5 -14t-16.5 -40v-49q0 -20 8.5 -27t25.5 -12l200 -49q41 -10 58.5 -33.5t17.5 -54.5v-61q0 -114 -134 -114h-116q-64 0 -98 30.5t-34 87.5v43h66z" />
    <glyph glyph-name="Tcommaaccent" unicode="&#x162;" horiz-adv-x="499" 
d="M285 636v-636h-17l-22 -51h48q32 0 50 -13.5t18 -43.5v-25q0 -56 -67 -56h-117v40h111q27 0 27 23v11q0 24 -28 24h-78q-9 0 -13.5 3t-4.5 12v7q0 5 1.5 9t3.5 7l24 53h-7v636h-190v61h451v-61h-190z" />
    <glyph glyph-name="tcommaaccent" unicode="&#x163;" horiz-adv-x="347" 
d="M326 0h-89h-9.5t-9.5 1l-23 -52h48q32 0 50 -13.5t18 -43.5v-25q0 -56 -67 -56h-117v40h111q27 0 27 23v11q0 24 -28 24h-78q-9 0 -13.5 3t-4.5 12v7q0 5 1.5 9t3.5 7l29 64q-68 27 -68 120v308h-84v59h84v142h67v-142h151v-59h-151v-314q0 -66 66 -66h86v-59z" />
    <glyph glyph-name="Tcaron" unicode="&#x164;" horiz-adv-x="499" 
d="M137 892h47l65 -88l65 88h48l-86 -132h-53zM285 636v-636h-71v636h-190v61h451v-61h-190z" />
    <glyph glyph-name="tcaron" unicode="&#x165;" horiz-adv-x="347" 
d="M351 675l-50 -122h-39l26 144h63v-22zM326 0h-89q-64 0 -97 34t-33 97v308h-84v59h84v142h67v-142h151v-59h-151v-314q0 -66 66 -66h86v-59z" />
    <glyph glyph-name="Tbar" unicode="&#x166;" horiz-adv-x="521" 
d="M296 636v-244h161v-50h-161v-342h-71v342h-159v50h159v244h-190v61h451v-61h-190z" />
    <glyph glyph-name="tbar" unicode="&#x167;" horiz-adv-x="352" 
d="M32 330h78v109h-84v59h84v142h67v-142h151v-59h-151v-109h145v-47h-145v-158q0 -66 66 -66h86v-59h-89q-64 0 -97 34t-33 97v152h-78v47z" />
    <glyph glyph-name="Utilde" unicode="&#x168;" horiz-adv-x="626" 
d="M543 697v-558q0 -70 -36.5 -106.5t-105.5 -36.5h-175q-70 0 -106.5 36.5t-36.5 106.5v558h70v-564q0 -75 75 -75h170q75 0 75 75v564h70zM400 799q27 0 27 25v39h43v-47q0 -62 -65 -62h-23q-15 0 -29 5t-24 11l-52 34q-7 5 -17 9t-20 4h-14q-28 0 -28 -25v-38h-43v46
q0 63 65 63h26q14 0 27.5 -5t23.5 -11l52 -34q7 -5 17 -9.5t20 -4.5h14z" />
    <glyph glyph-name="utilde" unicode="&#x169;" 
d="M337 18q-16 -11 -31.5 -16.5t-44.5 -5.5h-69q-60 0 -91.5 31.5t-31.5 91.5v382h67v-382q0 -64 65 -64h61q23 0 33.5 4.5t24.5 13.5l67 44v384h67v-501h-60l-4 54zM352 633q28 0 28 24v40h42v-47q0 -30 -16 -46.5t-48 -16.5h-24q-15 0 -29 5.5t-23 11.5l-53 33q-7 5 -17 9
t-20 4h-14q-27 0 -27 -25v-38h-44v46q0 64 65 64h26q14 0 27.5 -5.5t23.5 -11.5l52 -34q7 -4 17 -8.5t20 -4.5h14z" />
    <glyph glyph-name="Umacron" unicode="&#x16a;" horiz-adv-x="626" 
d="M543 697v-558q0 -70 -36.5 -106.5t-105.5 -36.5h-175q-70 0 -106.5 36.5t-36.5 106.5v558h70v-564q0 -75 75 -75h170q75 0 75 75v564h70zM187 822h252v-48h-252v48z" />
    <glyph glyph-name="umacron" unicode="&#x16b;" 
d="M337 18q-16 -11 -31.5 -16.5t-44.5 -5.5h-69q-60 0 -91.5 31.5t-31.5 91.5v382h67v-382q0 -64 65 -64h61q23 0 33.5 4.5t24.5 13.5l67 44v384h67v-501h-60l-4 54zM138 646h252v-48h-252v48z" />
    <glyph glyph-name="Ubreve" unicode="&#x16c;" horiz-adv-x="626" 
d="M543 697v-558q0 -70 -36.5 -106.5t-105.5 -36.5h-175q-70 0 -106.5 36.5t-36.5 106.5v558h70v-564q0 -75 75 -75h170q75 0 75 75v564h70zM438 890v-60q0 -43 -25 -65t-72 -22h-56q-47 0 -72 22t-25 65v60h47v-59q0 -47 53 -47h51q52 0 52 47v59h47z" />
    <glyph glyph-name="ubreve" unicode="&#x16d;" 
d="M337 18q-16 -11 -31.5 -16.5t-44.5 -5.5h-69q-60 0 -91.5 31.5t-31.5 91.5v382h67v-382q0 -64 65 -64h61q23 0 33.5 4.5t24.5 13.5l67 44v384h67v-501h-60l-4 54zM389 710v-60q0 -43 -25 -65t-72 -22h-56q-47 0 -72 22t-25 65v60h47v-59q0 -47 52 -47h51q53 0 53 47v59
h47z" />
    <glyph glyph-name="Uring" unicode="&#x16e;" horiz-adv-x="626" 
d="M328 936q83 0 83 -78v-29q0 -80 -83 -80h-35q-83 0 -83 80v29q0 78 83 78h35zM292 897q-40 0 -40 -40v-29q0 -39 40 -39h36q40 0 40 39v29q0 40 -40 40h-36zM543 697v-558q0 -70 -36.5 -106.5t-105.5 -36.5h-175q-70 0 -106.5 36.5t-36.5 106.5v558h70v-564q0 -75 75 -75
h170q75 0 75 75v564h70z" />
    <glyph glyph-name="uring" unicode="&#x16f;" 
d="M280 741q83 0 83 -78v-29q0 -80 -83 -80h-35q-83 0 -83 80v29q0 78 83 78h35zM244 702q-40 0 -40 -40v-29q0 -39 40 -39h36q40 0 40 39v29q0 40 -40 40h-36zM337 18q-16 -11 -31.5 -16.5t-44.5 -5.5h-69q-60 0 -91.5 31.5t-31.5 91.5v382h67v-382q0 -64 65 -64h61
q23 0 33.5 4.5t24.5 13.5l67 44v384h67v-501h-60l-4 54z" />
    <glyph glyph-name="Uhungarumlaut" unicode="&#x170;" horiz-adv-x="626" 
d="M543 697v-558q0 -70 -36.5 -106.5t-105.5 -36.5h-175q-70 0 -106.5 36.5t-36.5 106.5v558h70v-564q0 -75 75 -75h170q75 0 75 75v564h70zM353 877l-64 -117h-40l44 132h60v-15zM475 877l-97 -117h-40l77 132h60v-15z" />
    <glyph glyph-name="uhungarumlaut" unicode="&#x171;" 
d="M337 18q-16 -11 -31.5 -16.5t-44.5 -5.5h-69q-60 0 -91.5 31.5t-31.5 91.5v382h67v-382q0 -64 65 -64h61q23 0 33.5 4.5t24.5 13.5l67 44v384h67v-501h-60l-4 54zM298 682l-64 -117h-40l44 132h60v-15zM420 682l-97 -117h-40l77 132h60v-15z" />
    <glyph glyph-name="Uogonek" unicode="&#x172;" horiz-adv-x="627" 
d="M404 -190q-80 0 -80 65v16q0 14 5 25t12 20t15 15.5t14 11.5l40 34q-3 -1 -12 -1h-172q-69 0 -105.5 36.5t-36.5 106.5v558h70v-564q0 -75 75 -75h170q75 0 75 75v564h70v-558q0 -41 -12.5 -69t-34.5 -48l-92 -83q-10 -9 -18.5 -17t-8.5 -24v-14q0 -15 8.5 -21t26.5 -6
h96v-47h-105z" />
    <glyph glyph-name="uogonek" unicode="&#x173;" 
d="M337 18q-16 -11 -31.5 -16.5t-44.5 -5.5h-69q-60 0 -91.5 31.5t-31.5 91.5v382h67v-382q0 -64 65 -64h61q23 0 33.5 4.5t24.5 13.5l67 44v384h67v-501h-9l-94 -61q-11 -8 -19.5 -16.5t-8.5 -24.5v-14q0 -15 8.5 -21t27.5 -6h95v-47h-105q-80 0 -80 65v16q0 29 16.5 46
t30.5 26l77 48l-3 43l-53 -36v0z" />
    <glyph glyph-name="Wcircumflex" unicode="&#x174;" horiz-adv-x="785" 
d="M392 833l-65 -88h-47l85 132h54l86 -132h-48zM733 697v-160q0 -20 -4 -37t-6 -24l-141 -476h-69l-121 404l-119 -404h-69l-142 476q-2 7 -6 24t-4 37v160h68v-152q0 -17 2.5 -29t5.5 -22l112 -402l112 402q3 10 6 22t3 29v152h64v-152q0 -17 2.5 -29t5.5 -22l112 -402
l113 402q3 10 5 22t2 29v152h68z" />
    <glyph glyph-name="wcircumflex" unicode="&#x175;" horiz-adv-x="713" 
d="M356 653l-65 -88h-47l86 132h53l86 -132h-48zM60 324q-2 6 -7.5 21t-5.5 35v121h65v-114q0 -16 3.5 -27t6.5 -20l97 -267l97 267q3 9 6 20.5t3 26.5v114h64v-114q0 -16 3.5 -27t6.5 -20l97 -267l97 267q3 9 6 20.5t3 26.5v114h64v-121q0 -20 -5.5 -35t-7.5 -21l-123 -324
h-68l-105 276l-106 -276h-68z" />
    <glyph glyph-name="Ycircumflex" unicode="&#x176;" horiz-adv-x="548" 
d="M239 0v247l-180 263q-6 8 -11 24.5t-5 40.5v122h70v-115q0 -19 3 -31.5t11 -23.5l150 -218l147 214q8 11 11.5 23.5t3.5 31.5v119h68v-122q0 -25 -6 -41t-11 -24l-180 -262v-248h-71zM274 833l-65 -88h-47l85 132h54l86 -132h-48z" />
    <glyph glyph-name="ycircumflex" unicode="&#x177;" horiz-adv-x="485" 
d="M75 -190v58h53q20 0 32.5 8t21.5 31l34 82l-158 335q-3 6 -8 21t-5 35v121h67v-114q0 -29 9 -47l128 -273l115 273q4 9 6.5 20t2.5 27v114h65v-121q0 -18 -5 -34t-7 -22l-181 -425q-20 -48 -44 -68.5t-62 -20.5h-64zM239 653l-65 -88h-47l86 132h53l86 -132h-48z" />
    <glyph glyph-name="Ydieresis" unicode="&#x178;" horiz-adv-x="548" 
d="M239 0v247l-180 263q-6 8 -11 24.5t-5 40.5v122h70v-115q0 -19 3 -31.5t11 -23.5l150 -218l147 214q8 11 11.5 23.5t3.5 31.5v119h68v-122q0 -25 -6 -41t-11 -24l-180 -262v-248h-71zM191 850h56v-79h-56v79zM301 850h56v-79h-56v79z" />
    <glyph glyph-name="Zacute" unicode="&#x179;" horiz-adv-x="524" 
d="M30 0v60l373 576h-357v61h436v-61l-373 -575h383v-61h-462zM349 862l-67 -117h-47l48 132h66v-15z" />
    <glyph glyph-name="zacute" unicode="&#x17a;" horiz-adv-x="455" 
d="M318 682l-68 -117h-46l48 132h66v-15zM417 57v-57h-379v51l292 393h-284v57h365v-52l-292 -392h298z" />
    <glyph glyph-name="Zdotaccent" unicode="&#x17b;" horiz-adv-x="524" 
d="M228 877h67v-90h-67v90zM30 0v60l373 576h-357v61h436v-61l-373 -575h383v-61h-462z" />
    <glyph glyph-name="zdotaccent" unicode="&#x17c;" horiz-adv-x="455" 
d="M417 57v-57h-379v51l292 393h-284v57h365v-52l-292 -392h298zM193 686h67v-91h-67v91z" />
    <glyph glyph-name="Zcaron" unicode="&#x17d;" horiz-adv-x="524" 
d="M149 892h47l65 -88l65 88h48l-86 -132h-53zM30 0v60l373 576h-357v61h436v-61l-373 -575h383v-61h-462z" />
    <glyph glyph-name="zcaron" unicode="&#x17e;" horiz-adv-x="455" 
d="M115 697h47l65 -88l65 88h48l-86 -132h-53zM417 57v-57h-379v51l292 393h-284v57h365v-52l-292 -392h298z" />
    <glyph glyph-name="longs" unicode="&#x17f;" horiz-adv-x="265" 
d="M106 0v439h-81v59h81v65q0 134 134 134h80v-59h-81q-66 0 -66 -68v-570h-67z" />
    <glyph glyph-name="florin" unicode="&#x192;" horiz-adv-x="447" 
d="M148 -56q-14 -70 -52 -102t-107 -32h-60l11 59h59q67 0 81 68l80 400h-106l10 58h106l34 168q14 70 52.5 102t108.5 32h69l-10 -59h-70q-35 0 -54 -17t-26 -51l-36 -175h144l-10 -58h-145l-79 -393v0z" />
    <glyph glyph-name="Scommaaccent" unicode="&#x218;" horiz-adv-x="578" 
d="M326 -60l-57 -141h-42l28 164h71v-23zM65 575q0 61 36.5 93.5t107.5 32.5h158q69 0 106 -32.5t37 -93.5v-78h-69v82q0 62 -77 62h-153q-77 0 -77 -62v-93q0 -26 8.5 -40t34.5 -21l249 -66q45 -12 67.5 -41t22.5 -69v-127q0 -62 -37 -94t-107 -32h-170q-69 0 -106 32
t-37 94v72h69v-76q0 -62 77 -62h165q42 0 59 17t17 45v122q0 44 -42 56l-252 68q-17 4 -32.5 12.5t-27.5 22t-19.5 33.5t-7.5 49v94z" />
    <glyph glyph-name="scommaaccent" unicode="&#x219;" horiz-adv-x="490" 
d="M280 -60l-57 -141h-42l28 164h71v-23zM119 157v-50q0 -57 67 -57h116q68 0 68 55v57q0 18 -8.5 27.5t-25.5 14.5l-201 49q-14 3 -27.5 9t-24.5 16.5t-17.5 26t-6.5 38.5v48q0 56 34 85t99 29h106q64 0 98 -30.5t34 -87.5v-32h-66v39q0 56 -67 56h-105q-34 0 -50.5 -14
t-16.5 -40v-49q0 -20 8.5 -27t25.5 -12l200 -49q41 -10 58.5 -33.5t17.5 -54.5v-61q0 -114 -134 -114h-116q-64 0 -98 30.5t-34 87.5v43h66z" />
    <glyph glyph-name="uni021A" unicode="&#x21a;" horiz-adv-x="499" 
d="M285 -60l-57 -141h-42l28 164h71v-23zM285 636v-636h-71v636h-190v61h451v-61h-190z" />
    <glyph glyph-name="uni021B" unicode="&#x21b;" horiz-adv-x="347" 
d="M237 -60l-57 -141h-42l28 164h71v-23zM326 0h-89q-64 0 -97 34t-33 97v308h-84v59h84v142h67v-142h151v-59h-151v-314q0 -66 66 -66h86v-59z" />
    <glyph glyph-name="uni0237" unicode="&#x237;" horiz-adv-x="210" 
d="M-52 -131h57q66 0 66 68v564h67v-557q0 -65 -34 -99.5t-99 -34.5h-57v59z" />
    <glyph glyph-name="circumflex" unicode="&#x2c6;" horiz-adv-x="367" 
d="M183 653l-65 -88h-47l86 132h53l86 -132h-48z" />
    <glyph glyph-name="caron" unicode="&#x2c7;" horiz-adv-x="367" 
d="M71 697h47l65 -88l65 88h48l-86 -132h-53z" />
    <glyph glyph-name="uni02C9" unicode="&#x2c9;" horiz-adv-x="351" 
d="M49 646h252v-48h-252v48z" />
    <glyph glyph-name="breve" unicode="&#x2d8;" horiz-adv-x="358" 
d="M303 710v-60q0 -43 -25 -65t-72 -22h-56q-47 0 -72 22t-25 65v60h47v-59q0 -47 52 -47h51q53 0 53 47v59h47z" />
    <glyph glyph-name="dotaccent" unicode="&#x2d9;" horiz-adv-x="254" 
d="M94 686h67v-91h-67v91z" />
    <glyph glyph-name="ring" unicode="&#x2da;" horiz-adv-x="339" 
d="M187 741q83 0 83 -78v-29q0 -80 -83 -80h-35q-83 0 -83 80v29q0 78 83 78h35zM151 702q-40 0 -40 -40v-29q0 -39 40 -39h36q40 0 40 39v29q0 40 -40 40h-36z" />
    <glyph glyph-name="ogonek" unicode="&#x2db;" horiz-adv-x="302" 
d="M219 26l15 -24l-97 -63q-11 -8 -19.5 -16.5t-8.5 -24.5v-14q0 -15 8.5 -21t27.5 -6h95v-47h-105q-80 0 -80 65v16q0 29 16.5 46t30.5 26l100 63h17z" />
    <glyph glyph-name="tilde" unicode="&#x2dc;" horiz-adv-x="429" 
d="M302 633q28 0 28 24v40h42v-47q0 -30 -16 -46.5t-48 -16.5h-24q-15 0 -29 5.5t-23 11.5l-53 33q-7 5 -17 9t-20 4h-14q-27 0 -27 -25v-38h-44v46q0 64 65 64h26q14 0 27.5 -5.5t23.5 -11.5l52 -34q7 -4 17 -8.5t20 -4.5h14v0z" />
    <glyph glyph-name="hungarumlaut" unicode="&#x2dd;" horiz-adv-x="361" 
d="M172 682l-64 -117h-40l44 132h60v-15zM294 682l-97 -117h-40l77 132h60v-15z" />
    <glyph glyph-name="Delta" unicode="&#x394;" horiz-adv-x="591" 
d="M258 697h76l224 -697h-525zM120 60h349l-175 548z" />
    <glyph glyph-name="Omega" unicode="&#x3a9;" horiz-adv-x="629" 
d="M57 0v53h86q-29 20 -43.5 54.5t-14.5 87.5v363q0 70 36.5 106.5t106.5 36.5h175q69 0 105.5 -36.5t36.5 -106.5v-366q0 -52 -14.5 -85.5t-43.5 -53.5h80v-53h-197v57q61 3 83 31.5t22 88.5v388q0 74 -75 74h-170q-36 0 -55.5 -18.5t-19.5 -55.5v-386q0 -59 21 -89t78 -33
v-57h-197z" />
    <glyph glyph-name="mu" unicode="&#x3bc;" horiz-adv-x="529" 
d="M71 501h67v-382q0 -64 65 -64h62q23 0 33.5 4.5t24.5 13.5l67 44v384h67v-501h-60l-4 54l-53 -36q-15 -11 -31 -16.5t-45 -5.5h-70q-37 0 -59 15q1 -11 1.5 -25t1 -27.5t0.5 -24.5v-15v-109h-67v691z" />
    <glyph glyph-name="pi" unicode="&#x3c0;" horiz-adv-x="583" 
d="M419 442h-255v-442h-67v442h-69v59h528v-59h-70v-442h-67v442z" />
    <glyph glyph-name="Wgrave" unicode="&#x1e80;" horiz-adv-x="785" 
d="M300 877h66l48 -132h-46l-68 117v15zM733 697v-160q0 -20 -4 -37t-6 -24l-141 -476h-69l-121 404l-119 -404h-69l-142 476q-2 7 -6 24t-4 37v160h68v-152q0 -17 2.5 -29t5.5 -22l112 -402l112 402q3 10 6 22t3 29v152h64v-152q0 -17 2.5 -29t5.5 -22l112 -402l113 402
q3 10 5 22t2 29v152h68z" />
    <glyph glyph-name="wgrave" unicode="&#x1e81;" horiz-adv-x="713" 
d="M60 324q-2 6 -7.5 21t-5.5 35v121h65v-114q0 -16 3.5 -27t6.5 -20l97 -267l97 267q3 9 6 20.5t3 26.5v114h64v-114q0 -16 3.5 -27t6.5 -20l97 -267l97 267q3 9 6 20.5t3 26.5v114h64v-121q0 -20 -5.5 -35t-7.5 -21l-123 -324h-68l-105 276l-106 -276h-68zM267 697h66
l48 -132h-46l-68 117v15z" />
    <glyph glyph-name="Wacute" unicode="&#x1e82;" horiz-adv-x="785" 
d="M482 862l-67 -117h-47l48 132h66v-15zM733 697v-160q0 -20 -4 -37t-6 -24l-141 -476h-69l-121 404l-119 -404h-69l-142 476q-2 7 -6 24t-4 37v160h68v-152q0 -17 2.5 -29t5.5 -22l112 -402l112 402q3 10 6 22t3 29v152h64v-152q0 -17 2.5 -29t5.5 -22l112 -402l113 402
q3 10 5 22t2 29v152h68z" />
    <glyph glyph-name="wacute" unicode="&#x1e83;" horiz-adv-x="713" 
d="M447 682l-68 -117h-46l48 132h66v-15zM60 324q-2 6 -7.5 21t-5.5 35v121h65v-114q0 -16 3.5 -27t6.5 -20l97 -267l97 267q3 9 6 20.5t3 26.5v114h64v-114q0 -16 3.5 -27t6.5 -20l97 -267l97 267q3 9 6 20.5t3 26.5v114h64v-121q0 -20 -5.5 -35t-7.5 -21l-123 -324h-68
l-105 276l-106 -276h-68z" />
    <glyph glyph-name="Wdieresis" unicode="&#x1e84;" horiz-adv-x="785" 
d="M733 697v-160q0 -20 -4 -37t-6 -24l-141 -476h-69l-121 404l-119 -404h-69l-142 476q-2 7 -6 24t-4 37v160h68v-152q0 -17 2.5 -29t5.5 -22l112 -402l112 402q3 10 6 22t3 29v152h64v-152q0 -17 2.5 -29t5.5 -22l112 -402l113 402q3 10 5 22t2 29v152h68zM308 850h56v-79
h-56v79zM418 850h56v-79h-56v79z" />
    <glyph glyph-name="wdieresis" unicode="&#x1e85;" horiz-adv-x="713" 
d="M273 672h55v-79h-55v79zM383 672h55v-79h-55v79zM60 324q-2 6 -7.5 21t-5.5 35v121h65v-114q0 -16 3.5 -27t6.5 -20l97 -267l97 267q3 9 6 20.5t3 26.5v114h64v-114q0 -16 3.5 -27t6.5 -20l97 -267l97 267q3 9 6 20.5t3 26.5v114h64v-121q0 -20 -5.5 -35t-7.5 -21
l-123 -324h-68l-105 276l-106 -276h-68z" />
    <glyph glyph-name="endash" unicode="&#x2013;" horiz-adv-x="480" 
d="M412 316v-57h-343v57h343z" />
    <glyph glyph-name="emdash" unicode="&#x2014;" horiz-adv-x="833" 
d="M765 316v-56h-696v56h696z" />
    <glyph glyph-name="quoteleft" unicode="&#x2018;" horiz-adv-x="207" 
d="M53 540l58 157h43l-31 -180h-70v23z" />
    <glyph glyph-name="quoteright" unicode="&#x2019;" horiz-adv-x="203" 
d="M157 674l-58 -157h-43l31 180h70v-23z" />
    <glyph glyph-name="quotesinglbase" unicode="&#x201a;" horiz-adv-x="210" 
d="M146 77l-58 -157h-43l31 180h70v-23z" />
    <glyph glyph-name="quotedblleft" unicode="&#x201c;" horiz-adv-x="337" 
d="M53 539l59 157h42l-31 -180h-70v23zM184 540l59 157h42l-31 -180h-70v23z" />
    <glyph glyph-name="quotedblright" unicode="&#x201d;" horiz-adv-x="335" 
d="M158 674l-59 -157h-43l32 180h70v-23zM289 674l-59 -157h-43l32 180h70v-23z" />
    <glyph glyph-name="quotedblbase" unicode="&#x201e;" horiz-adv-x="340" 
d="M146 77l-59 -157h-43l32 180h70v-23zM276 77l-59 -157h-43l32 180h70v-23z" />
    <glyph glyph-name="dagger" unicode="&#x2020;" horiz-adv-x="427" 
d="M239 0h-51l-11 303v82l7 89h-154v53h154l-7 109v61h73v-61l-7 -109h154v-53h-154l7 -89v-82z" />
    <glyph glyph-name="daggerdbl" unicode="&#x2021;" horiz-adv-x="473" 
d="M273 0h-74v61l8 109h-154v53h154l-8 114v37l8 100h-154v53h154l-8 109v61h74v-61l-7 -109h154v-53h-155l8 -100v-37l-8 -114h155v-53h-154l7 -109v-61z" />
    <glyph glyph-name="bullet" unicode="&#x2022;" horiz-adv-x="294" 
d="M92 318h110v-144h-110v144z" />
    <glyph glyph-name="ellipsis" unicode="&#x2026;" horiz-adv-x="601" 
d="M68 97h74v-97h-74v97zM459 97h74v-97h-74v97zM264 97h73v-97h-73v97z" />
    <glyph glyph-name="perthousand" unicode="&#x2030;" horiz-adv-x="1074" 
d="M452 290q0 40 22 61t61 21h83q83 0 83 -82v-210q0 -82 -83 -82h-83q-39 0 -61 21t-22 61v210zM510 80q0 -34 33 -34h67q34 0 34 34v209q0 34 -34 34h-67q-33 0 -33 -34v-209zM50 618q0 40 22 61t61 21h83q83 0 83 -82v-210q0 -82 -83 -82h-83q-39 0 -61 21t-22 61v210z
M108 408q0 -34 33 -34h67q34 0 34 34v209q0 34 -34 34h-67q-33 0 -33 -34v-209zM777 290q0 40 22 61t61 21h83q83 0 83 -82v-210q0 -82 -83 -82h-83q-39 0 -61 21t-22 61v210zM835 80q0 -34 33 -34h67q34 0 34 34v209q0 34 -34 34h-67q-33 0 -33 -34v-209zM135 -4l426 705
h57l-426 -705h-57z" />
    <glyph glyph-name="guilsinglleft" unicode="&#x2039;" horiz-adv-x="310" 
d="M177 107l-106 102q-14 13 -20 25t-6 28v29q0 17 6 27.5t20 24.5l106 103h74l-139 -138q-13 -13 -13 -23v-18q0 -6 2.5 -10.5t10.5 -12.5l139 -137h-74z" />
    <glyph glyph-name="guilsinglright" unicode="&#x203a;" horiz-adv-x="310" 
d="M59 107l139 137q8 8 10.5 12.5t2.5 10.5v18q0 10 -13 23l-140 138h75l106 -103q14 -14 19.5 -24.5t5.5 -27.5v-29q0 -29 -25 -53l-106 -102h-74z" />
    <glyph glyph-name="fraction" unicode="&#x2044;" horiz-adv-x="164" 
d="M-160 -4l426 705h57l-426 -705h-57z" />
    <glyph glyph-name="uni2070" unicode="&#x2070;" horiz-adv-x="353" 
d="M52 769q0 40 22 61t61 21h83q83 0 83 -82v-210q0 -82 -83 -82h-83q-39 0 -61 21t-22 61v210zM110 559q0 -34 33 -34h67q34 0 34 34v209q0 34 -34 34h-67q-33 0 -33 -34v-209z" />
    <glyph glyph-name="uni2074" unicode="&#x2074;" horiz-adv-x="338" 
d="M260 570v-91h-53v91h-181v44l184 235h50v-235h42v-44h-42zM207 775l-127 -161h127v161z" />
    <glyph glyph-name="uni2075" unicode="&#x2075;" horiz-adv-x="329" 
d="M125 477q-38 0 -60 20t-22 60v24h56v-26q0 -30 34 -30h63q35 0 35 32v65q0 33 -35 33h-142v193h221v-48h-168v-99h98q39 0 60 -20.5t21 -58.5v-63q0 -41 -21 -61.5t-60 -20.5h-80z" />
    <glyph glyph-name="uni2076" unicode="&#x2076;" horiz-adv-x="341" 
d="M295 559q0 -82 -82 -82h-79q-39 0 -60.5 20.5t-21.5 61.5v209q0 41 21.5 62t60.5 21h78q38 0 60 -20t22 -59v-26h-56v26q0 30 -34 30h-61q-34 0 -34 -33v-78h111q36 0 55.5 -19t19.5 -54v-59zM205 525q35 0 35 33v54q0 33 -32 33h-99v-87q0 -33 34 -33h62z" />
    <glyph glyph-name="uni2077" unicode="&#x2077;" horiz-adv-x="303" 
d="M77 479l144 320h-195v49h253v-43l-144 -326h-58z" />
    <glyph glyph-name="uni2078" unicode="&#x2078;" horiz-adv-x="345" 
d="M128 477q-38 0 -58 19.5t-20 57.5v59q0 23 10 38.5t31 21.5q-33 14 -33 58v42q0 38 20 58t58 20h75q38 0 58 -20t20 -58v-42q0 -43 -35 -58q21 -7 31 -22.5t10 -37.5v-59q0 -77 -76 -77h-91zM110 728q0 -36 36 -36h55q34 0 34 36v42q0 35 -34 35h-55q-36 0 -36 -35v-42z
M138 648q-34 0 -34 -36v-55q0 -35 34 -35h69q35 0 35 35v55q0 36 -35 36h-69z" />
    <glyph glyph-name="uni2079" unicode="&#x2079;" horiz-adv-x="341" 
d="M130 477q-82 0 -82 79v25h55v-25q0 -31 33 -31h62q34 0 34 34v83h-111q-76 0 -76 73v54q0 41 21.5 61.5t60.5 20.5h80q39 0 60.5 -20.5t21.5 -61.5v-209q0 -42 -21.5 -62.5t-60.5 -20.5h-77zM232 688v81q0 35 -34 35h-62q-35 0 -35 -35v-48q0 -33 31 -33h100z" />
    <glyph glyph-name="uni207D" unicode="&#x207d;" horiz-adv-x="205" 
d="M55 808q0 38 21.5 58.5t59.5 20.5h31v-48h-27q-28 0 -28 -32v-287q0 -31 28 -31h27v-49h-31q-38 0 -59.5 21t-21.5 59v288z" />
    <glyph glyph-name="uni207E" unicode="&#x207e;" horiz-adv-x="205" 
d="M150 520q0 -38 -21.5 -59t-60.5 -21h-30v49h27q28 0 28 31v287q0 32 -28 32h-27v48h30q39 0 60.5 -20.5t21.5 -58.5v-288z" />
    <glyph glyph-name="uni2080" unicode="&#x2080;" horiz-adv-x="352" 
d="M51 140q0 40 22 61t61 21h83q83 0 83 -82v-210q0 -82 -83 -82h-83q-39 0 -61 21t-22 61v210zM109 -70q0 -34 33 -34h67q34 0 34 34v209q0 34 -34 34h-67q-33 0 -33 -34v-209z" />
    <glyph glyph-name="uni2081" unicode="&#x2081;" horiz-adv-x="301" 
d="M131 -101v271h-92v49h149v-320h89v-49h-238v49h92z" />
    <glyph glyph-name="uni2082" unicode="&#x2082;" horiz-adv-x="337" 
d="M47 -150v94q0 28 10 47.5t43 31.5l111 40q10 4 16 11t6 21v44q0 34 -35 34h-61q-34 0 -34 -34v-39h-54v43q0 38 20.5 58.5t60.5 20.5h76q82 0 82 -82v-46q0 -31 -14 -48t-35 -25l-114 -42q-16 -6 -19.5 -14t-3.5 -22v-44h192v-49h-247z" />
    <glyph glyph-name="uni2083" unicode="&#x2083;" horiz-adv-x="341" 
d="M125 -152q-39 0 -60 19t-21 56v31h56v-28q0 -30 33 -30h69q34 0 34 32v62q0 29 -31 29h-76v43h68q32 0 32 30v49q0 32 -34 32h-61q-34 0 -34 -29v-28h-54v26q0 38 21 59t59 21h78q38 0 59.5 -20.5t21.5 -59.5v-41q0 -43 -34 -57q23 -6 32 -21t9 -37v-62q0 -38 -21 -57
t-60 -19h-86z" />
    <glyph glyph-name="uni2084" unicode="&#x2084;" horiz-adv-x="338" 
d="M260 -59v-91h-53v91h-181v44l184 235h50v-235h42v-44h-42zM207 146l-127 -161h127v161z" />
    <glyph glyph-name="uni2085" unicode="&#x2085;" horiz-adv-x="330" 
d="M126 -152q-38 0 -60 20t-22 60v24h56v-26q0 -30 34 -30h63q35 0 35 32v65q0 33 -35 33h-142v193h221v-48h-168v-99h98q39 0 60 -20.5t21 -58.5v-63q0 -41 -21 -61.5t-60 -20.5h-80z" />
    <glyph glyph-name="uni2086" unicode="&#x2086;" horiz-adv-x="341" 
d="M295 -70q0 -82 -82 -82h-79q-39 0 -60.5 20.5t-21.5 61.5v209q0 41 21.5 62t60.5 21h78q38 0 60 -20t22 -59v-26h-56v26q0 30 -34 30h-61q-34 0 -34 -33v-78h111q36 0 55.5 -19t19.5 -54v-59zM205 -104q35 0 35 33v54q0 33 -32 33h-99v-87q0 -33 34 -33h62z" />
    <glyph glyph-name="uni2087" unicode="&#x2087;" horiz-adv-x="302" 
d="M77 -150l144 320h-195v49h253v-43l-144 -326h-58z" />
    <glyph glyph-name="uni2088" unicode="&#x2088;" horiz-adv-x="345" 
d="M127 -152q-38 0 -58 19.5t-20 57.5v59q0 23 10 38.5t31 21.5q-33 14 -33 58v42q0 38 20 58t58 20h75q38 0 58 -20t20 -58v-42q0 -43 -35 -58q21 -7 31 -22.5t10 -37.5v-59q0 -77 -76 -77h-91zM109 99q0 -36 36 -36h55q34 0 34 36v42q0 35 -34 35h-55q-36 0 -36 -35v-42z
M137 19q-34 0 -34 -36v-55q0 -35 34 -35h69q35 0 35 35v55q0 36 -35 36h-69z" />
    <glyph glyph-name="uni2089" unicode="&#x2089;" horiz-adv-x="341" 
d="M130 -152q-82 0 -82 79v25h55v-25q0 -31 33 -31h62q34 0 34 34v83h-111q-76 0 -76 73v54q0 41 21.5 61.5t60.5 20.5h80q39 0 60.5 -20.5t21.5 -61.5v-209q0 -42 -21.5 -62.5t-60.5 -20.5h-77zM232 59v81q0 35 -34 35h-62q-35 0 -35 -35v-48q0 -33 31 -33h100z" />
    <glyph glyph-name="uni208D" unicode="&#x208d;" horiz-adv-x="205" 
d="M55 179q0 38 21.5 58.5t59.5 20.5h31v-48h-27q-28 0 -28 -32v-287q0 -31 28 -31h27v-49h-31q-38 0 -59.5 21t-21.5 59v288z" />
    <glyph glyph-name="uni208E" unicode="&#x208e;" horiz-adv-x="205" 
d="M150 -109q0 -38 -21.5 -59t-60.5 -21h-30v49h27q28 0 28 31v287q0 32 -28 32h-27v48h30q39 0 60.5 -20.5t21.5 -58.5v-288z" />
    <glyph glyph-name="franc" unicode="&#x20a3;" horiz-adv-x="582" 
d="M195 261v-261h-71v261h-72v46h72v73h-72v46h72v271h431v-61h-360v-210h217v-46h-217v-73h217v-46h-217z" />
    <glyph glyph-name="lira" unicode="&#x20a4;" horiz-adv-x="595" 
d="M57 0v61h76v194h-76v45h76v74h-76v44h76v148q0 66 36.5 100.5t105.5 34.5h119q69 0 105.5 -34.5t36.5 -100.5v-68h-68v67q0 38 -19.5 56.5t-55.5 18.5h-115q-76 0 -76 -75v-147h164v-44h-164v-74h164v-45h-164v-194h345v-61h-490z" />
    <glyph glyph-name="peseta" unicode="&#x20a7;" horiz-adv-x="1369" 
d="M883 0h-84q-65 0 -99 34.5t-34 99.5v305h-81v59h81v142h67v-142h149v-59h-149v-314q0 -66 66 -66h84v-59zM166 259v-259h-70v697h292q69 0 106 -36.5t37 -106.5v-152q0 -69 -37 -106t-106 -37h-222zM998 157v-50q0 -57 67 -57h116q68 0 68 55v57q0 33 -34 41l-202 49
q-14 3 -27 9t-24 16.5t-17.5 26t-6.5 38.5v49q0 56 34 85t99 29h105q64 0 98.5 -30.5t34.5 -87.5v-32h-66v39q0 56 -67 56h-105q-34 0 -50.5 -14t-16.5 -40v-49q0 -20 8.5 -27.5t25.5 -11.5l199 -49q42 -10 59.5 -33.5t17.5 -54.5v-61q0 -114 -134 -114h-116q-64 0 -98 30.5
t-34 87.5v43h66zM166 635v-313h220q75 0 75 75v164q0 74 -75 74h-220z" />
    <glyph glyph-name="Euro" unicode="&#x20ac;" horiz-adv-x="609" 
d="M547 139q0 -70 -36.5 -106.5t-105.5 -36.5h-140q-69 0 -106 36.5t-37 106.5v129h-77v45h77v74h-77v45h77v126q0 70 37 106.5t106 36.5h140q69 0 105.5 -36.5t36.5 -106.5v-63h-69v70q0 74 -75 74h-136q-36 0 -55.5 -18.5t-19.5 -55.5v-133h181v-45h-181v-74h181v-45h-181
v-136q0 -37 19.5 -55.5t55.5 -18.5h136q75 0 75 74v96h69v-89v0z" />
    <glyph glyph-name="afii61289" unicode="&#x2113;" horiz-adv-x="471" 
d="M118 222l-66 -50l-30 49l96 72v274q0 64 34 97t98 33h57q66 0 100 -29t34 -95v-36q0 -20 -6.5 -38t-16.5 -34t-22.5 -29.5t-24.5 -22.5l-186 -141v-148q0 -67 68 -67h178v-59h-179q-65 0 -99.5 34.5t-34.5 98.5v91zM185 344l136 103q9 7 18.5 15.5t18 19t14 22.5t5.5 25
v50q0 63 -68 63h-56q-33 0 -50.5 -18.5t-17.5 -49.5v-230z" />
    <glyph glyph-name="trademark" unicode="&#x2122;" horiz-adv-x="839" 
d="M204 650v-403h-53v403h-121v47h296v-47h-122zM449 600v-353h-51v450h51l132 -242l130 242h51v-450h-51v354l-109 -202h-43z" />
    <glyph glyph-name="uni2126" unicode="&#x2126;" horiz-adv-x="635" 
d="M60 0v53h86q-29 20 -43.5 54.5t-14.5 87.5v363q0 70 36.5 106.5t106.5 36.5h175q69 0 105.5 -36.5t36.5 -106.5v-366q0 -52 -14.5 -85.5t-43.5 -53.5h80v-53h-197v57q61 3 83 31.5t22 88.5v388q0 74 -75 74h-170q-36 0 -55.5 -18.5t-19.5 -55.5v-386q0 -59 21 -89t78 -33
v-57h-197z" />
    <glyph glyph-name="estimated" unicode="&#x212e;" horiz-adv-x="765" 
d="M664 125q-46 -63 -117 -99.5t-156 -36.5q-70 0 -131.5 26.5t-107.5 72t-72.5 107t-26.5 132.5q0 70 26.5 132t72.5 108.5t107.5 73t132.5 26.5q70 0 131.5 -26.5t107 -72t72.5 -107.5t28 -133h-563v-203q42 -47 99.5 -74t123.5 -27t124.5 27t100.5 74h48zM392 631
q-67 0 -124.5 -28t-99.5 -76v-165h449v164q-42 48 -100 76.5t-125 28.5z" />
    <glyph glyph-name="onethird" unicode="&#x2153;" horiz-adv-x="767" 
d="M138 377v271h-92v49h149v-320h89v-49h-238v49h92zM149 -4l426 705h57l-426 -705h-57zM552 -2q-39 0 -60 19t-21 56v31h56v-28q0 -30 33 -30h69q34 0 34 32v62q0 29 -31 29h-76v43h68q32 0 32 30v49q0 32 -34 32h-61q-34 0 -34 -29v-28h-54v26q0 38 21 59t59 21h78
q38 0 59.5 -20.5t21.5 -59.5v-41q0 -43 -34 -57q23 -6 32 -21t9 -37v-62q0 -38 -21 -57t-60 -19h-86z" />
    <glyph glyph-name="twothirds" unicode="&#x2154;" horiz-adv-x="771" 
d="M51 328v94q0 28 10 47.5t43 31.5l111 40q10 4 16 11t6 21v44q0 34 -35 34h-61q-34 0 -34 -34v-39h-54v43q0 38 20.5 58.5t60.5 20.5h76q82 0 82 -82v-46q0 -31 -14 -48t-35 -25l-114 -42q-16 -6 -19.5 -14t-3.5 -22v-44h192v-49h-247zM154 -4l426 705h57l-426 -705h-57z
M557 -2q-39 0 -60 19t-21 56v31h56v-28q0 -30 33 -30h69q34 0 34 32v62q0 29 -31 29h-76v43h68q32 0 32 30v49q0 32 -34 32h-61q-34 0 -34 -29v-28h-54v26q0 38 21 59t59 21h78q38 0 59.5 -20.5t21.5 -59.5v-41q0 -43 -34 -57q23 -6 32 -21t9 -37v-62q0 -38 -21 -57t-60 -19
h-86z" />
    <glyph glyph-name="uni2155" unicode="&#x2155;" horiz-adv-x="769" 
d="M149 -4l426 705h57l-426 -705h-57zM560 -2q-38 0 -60 20t-22 60v24h56v-26q0 -30 34 -30h63q35 0 35 32v65q0 33 -35 33h-142v193h221v-48h-168v-99h98q39 0 60 -20.5t21 -58.5v-63q0 -41 -21 -61.5t-60 -20.5h-80zM138 377v271h-92v49h149v-320h89v-49h-238v49h92z" />
    <glyph glyph-name="uni2156" unicode="&#x2156;" horiz-adv-x="773" 
d="M51 328v94q0 28 10 47.5t43 31.5l111 40q10 4 16 11t6 21v44q0 34 -35 34h-61q-34 0 -34 -34v-39h-54v43q0 38 20.5 58.5t60.5 20.5h76q82 0 82 -82v-46q0 -31 -14 -48t-35 -25l-114 -42q-16 -6 -19.5 -14t-3.5 -22v-44h192v-49h-247zM154 -4l426 705h57l-426 -705h-57z
M564 -2q-38 0 -60 20t-22 60v24h56v-26q0 -30 34 -30h63q35 0 35 32v65q0 33 -35 33h-142v193h221v-48h-168v-99h98q39 0 60 -20.5t21 -58.5v-63q0 -41 -21 -61.5t-60 -20.5h-80z" />
    <glyph glyph-name="uni2157" unicode="&#x2157;" horiz-adv-x="766" 
d="M146 -4l426 705h57l-426 -705h-57zM557 -2q-38 0 -60 20t-22 60v24h56v-26q0 -30 34 -30h63q35 0 35 32v65q0 33 -35 33h-142v193h221v-48h-168v-99h98q39 0 60 -20.5t21 -58.5v-63q0 -41 -21 -61.5t-60 -20.5h-80zM128 326q-39 0 -60 19t-21 56v31h56v-28q0 -30 33 -30
h69q34 0 34 32v62q0 29 -31 29h-76v43h68q32 0 32 30v49q0 32 -34 32h-61q-34 0 -34 -29v-28h-54v26q0 38 21 59t59 21h78q38 0 59.5 -20.5t21.5 -59.5v-41q0 -43 -34 -57q23 -6 32 -21t9 -37v-62q0 -38 -21 -57t-60 -19h-86z" />
    <glyph glyph-name="uni2158" unicode="&#x2158;" horiz-adv-x="755" 
d="M263 419v-91h-53v91h-181v44l184 235h50v-235h42v-44h-42zM210 624l-127 -161h127v161zM134 -4l426 705h57l-426 -705h-57zM545 -2q-38 0 -60 20t-22 60v24h56v-26q0 -30 34 -30h63q35 0 35 32v65q0 33 -35 33h-142v193h221v-48h-168v-99h98q39 0 60 -20.5t21 -58.5v-63
q0 -41 -21 -61.5t-60 -20.5h-80z" />
    <glyph glyph-name="uni2159" unicode="&#x2159;" horiz-adv-x="764" 
d="M715 80q0 -82 -82 -82h-79q-39 0 -60.5 20.5t-21.5 61.5v209q0 41 21.5 62t60.5 21h78q38 0 60 -20t22 -59v-26h-56v26q0 30 -34 30h-61q-34 0 -34 -33v-78h111q36 0 55.5 -19t19.5 -54v-59zM625 46q35 0 35 33v54q0 33 -32 33h-99v-87q0 -33 34 -33h62zM138 377v271h-92
v49h149v-320h89v-49h-238v49h92zM149 -4l426 705h57l-426 -705h-57z" />
    <glyph glyph-name="uni215A" unicode="&#x215a;" horiz-adv-x="748" 
d="M698 80q0 -82 -82 -82h-79q-39 0 -60.5 20.5t-21.5 61.5v209q0 41 21.5 62t60.5 21h78q38 0 60 -20t22 -59v-26h-56v26q0 30 -34 30h-61q-34 0 -34 -33v-78h111q36 0 55.5 -19t19.5 -54v-59zM608 46q35 0 35 33v54q0 33 -32 33h-99v-87q0 -33 34 -33h62zM132 -4l426 705
h57l-426 -705h-57zM128 326q-38 0 -60 20t-22 60v24h56v-26q0 -30 34 -30h63q35 0 35 32v65q0 33 -35 33h-142v193h221v-48h-168v-99h98q39 0 60 -20.5t21 -58.5v-63q0 -41 -21 -61.5t-60 -20.5h-80z" />
    <glyph glyph-name="oneeighth" unicode="&#x215b;" horiz-adv-x="765" 
d="M149 -4l426 705h57l-426 -705h-57zM551 -2q-38 0 -58 19.5t-20 57.5v59q0 23 10 38.5t31 21.5q-33 14 -33 58v42q0 38 20 58t58 20h75q38 0 58 -20t20 -58v-42q0 -43 -35 -58q21 -7 31 -22.5t10 -37.5v-59q0 -77 -76 -77h-91zM533 249q0 -36 36 -36h55q34 0 34 36v42
q0 35 -34 35h-55q-36 0 -36 -35v-42zM561 169q-34 0 -34 -36v-55q0 -35 34 -35h69q35 0 35 35v55q0 36 -35 36h-69zM138 377v271h-92v49h149v-320h89v-49h-238v49h92z" />
    <glyph glyph-name="threeeighths" unicode="&#x215c;" horiz-adv-x="762" 
d="M548 -2q-38 0 -58 19.5t-20 57.5v59q0 23 10 38.5t31 21.5q-33 14 -33 58v42q0 38 20 58t58 20h75q38 0 58 -20t20 -58v-42q0 -43 -35 -58q21 -7 31 -22.5t10 -37.5v-59q0 -77 -76 -77h-91zM530 249q0 -36 36 -36h55q34 0 34 36v42q0 35 -34 35h-55q-36 0 -36 -35v-42z
M558 169q-34 0 -34 -36v-55q0 -35 34 -35h69q35 0 35 35v55q0 36 -35 36h-69zM146 -4l426 705h57l-426 -705h-57zM128 326q-39 0 -60 19t-21 56v31h56v-28q0 -30 33 -30h69q34 0 34 32v62q0 29 -31 29h-76v43h68q32 0 32 30v49q0 32 -34 32h-61q-34 0 -34 -29v-28h-54v26
q0 38 21 59t59 21h78q38 0 59.5 -20.5t21.5 -59.5v-41q0 -43 -34 -57q23 -6 32 -21t9 -37v-62q0 -38 -21 -57t-60 -19h-86z" />
    <glyph glyph-name="fiveeighths" unicode="&#x215d;" horiz-adv-x="748" 
d="M128 326q-38 0 -60 20t-22 60v24h56v-26q0 -30 34 -30h63q35 0 35 32v65q0 33 -35 33h-142v193h221v-48h-168v-99h98q39 0 60 -20.5t21 -58.5v-63q0 -41 -21 -61.5t-60 -20.5h-80zM534 -2q-38 0 -58 19.5t-20 57.5v59q0 23 10 38.5t31 21.5q-33 14 -33 58v42q0 38 20 58
t58 20h75q38 0 58 -20t20 -58v-42q0 -43 -35 -58q21 -7 31 -22.5t10 -37.5v-59q0 -77 -76 -77h-91zM516 249q0 -36 36 -36h55q34 0 34 36v42q0 35 -34 35h-55q-36 0 -36 -35v-42zM544 169q-34 0 -34 -36v-55q0 -35 34 -35h69q35 0 35 35v55q0 36 -35 36h-69zM132 -4l426 705
h57l-426 -705h-57z" />
    <glyph glyph-name="seveneighths" unicode="&#x215e;" horiz-adv-x="705" 
d="M82 328l144 320h-195v49h253v-43l-144 -326h-58zM491 -2q-38 0 -58 19.5t-20 57.5v59q0 23 10 38.5t31 21.5q-33 14 -33 58v42q0 38 20 58t58 20h75q38 0 58 -20t20 -58v-42q0 -43 -35 -58q21 -7 31 -22.5t10 -37.5v-59q0 -77 -76 -77h-91zM473 249q0 -36 36 -36h55
q34 0 34 36v42q0 35 -34 35h-55q-36 0 -36 -35v-42zM501 169q-34 0 -34 -36v-55q0 -35 34 -35h69q35 0 35 35v55q0 36 -35 36h-69zM89 -4l426 705h57l-426 -705h-57z" />
    <glyph glyph-name="uni215F" unicode="&#x215f;" horiz-adv-x="636" 
d="M136 377v271h-92v49h149v-320h89v-49h-238v49h92zM148 -4l426 705h57l-426 -705h-57z" />
    <glyph glyph-name="partialdiff" unicode="&#x2202;" horiz-adv-x="523" 
d="M197 -4q-65 0 -99 34t-34 100v212q0 61 32 92.5t92 31.5h71q28 0 45 -5.5t33 -16.5l50 -33v161q0 67 -68 67h-212v58h213q65 0 99.5 -34.5t34.5 -99.5v-433q0 -66 -34 -100t-99 -34h-124zM319 54q34 0 51 18.5t17 48.5v224l-67 44q-14 9 -24.5 13.5t-33.5 4.5h-66
q-65 0 -65 -65v-221q0 -67 68 -67h120z" />
    <glyph glyph-name="uni2206" unicode="&#x2206;" horiz-adv-x="576" 
d="M251 697h75l225 -697h-525zM112 60h349l-174 548z" />
    <glyph glyph-name="product" unicode="&#x220f;" horiz-adv-x="640" 
d="M474 635h-308v-635h-70v697h448v-697h-70v635z" />
    <glyph glyph-name="summation" unicode="&#x2211;" horiz-adv-x="545" 
d="M138 635l155 -279l-172 -294h380v-62h-460v61l173 296l-160 279v61h442v-62h-358z" />
    <glyph glyph-name="minus" unicode="&#x2212;" horiz-adv-x="491" 
d="M429 375v-53h-367v53h367z" />
    <glyph glyph-name="uni2215" unicode="&#x2215;" horiz-adv-x="493" 
d="M5 -4l426 705h57l-426 -705h-57z" />
    <glyph glyph-name="uni2219" unicode="&#x2219;" horiz-adv-x="249" 
d="M70 318h110v-144h-110v144z" />
    <glyph glyph-name="radical" unicode="&#x221a;" horiz-adv-x="603" 
d="M24 501h139l163 -481l202 677h60l-233 -770h-64l-180 518h-87v56z" />
    <glyph glyph-name="infinity" unicode="&#x221e;" horiz-adv-x="863" 
d="M197 181q-67 0 -102.5 32.5t-35.5 95.5v79q0 63 35.5 95t102.5 32h76q26 0 46.5 -7.5t36 -18.5t27 -24.5t19.5 -25.5l29 -45l30 45q9 14 21 27.5t27 24.5t34 17.5t43 6.5h80q67 0 102 -32.5t35 -95.5v-78q0 -63 -35 -95.5t-102 -32.5h-80q-24 0 -43 6.5t-34 17.5t-27 25
t-22 28l-29 43l-28 -43q-8 -12 -19.5 -25.5t-27.5 -25t-36.5 -19t-46.5 -7.5h-76zM742 391q0 71 -76 71h-85q-16 0 -28 -5.5t-21.5 -13.5t-17 -18.5t-13.5 -19.5l-37 -57l37 -56q6 -9 13.5 -19.5t17 -18.5t21.5 -13.5t28 -5.5h85q76 0 76 71v85zM121 306q0 -71 76 -71h84
q16 0 28 5.5t21.5 14t17 18t13.5 18.5l39 57l-39 58q-11 18 -30 37t-50 19h-84q-76 0 -76 -71v-85z" />
    <glyph glyph-name="integral" unicode="&#x222b;" horiz-adv-x="374" 
d="M19 -11h67q68 0 68 68v576q0 65 34 99.5t99 34.5h68v-59h-67q-67 0 -67 -68v-576q0 -65 -34 -99.5t-100 -34.5h-68v59z" />
    <glyph glyph-name="approxequal" unicode="&#x2248;" horiz-adv-x="552" 
d="M402 420q11 0 20 10l39 45l32 -33l-42 -53q-9 -11 -18 -16.5t-24 -5.5h-48q-12 0 -22 5t-22 10l-66 31q-11 5 -22 9t-23 4h-32q-15 0 -22 -4.5t-15 -13.5l-37 -46l-33 34l42 51q12 15 23.5 23.5t34.5 8.5h39q16 0 30 -5t27 -11l65 -31l17 -8.5t15 -3.5h42zM396 267
q8 0 12 2.5t9 8.5l39 44l32 -33l-42 -53q-9 -11 -18 -16.5t-25 -5.5h-47q-13 0 -23 5t-21 10l-66 31q-11 5 -22.5 9.5t-22.5 4.5h-32q-15 0 -22 -4.5t-15 -14.5l-38 -46l-32 35l42 51q11 14 23 23t35 9h39q16 0 30 -5.5t26 -11.5l66 -31l17 -8.5t15 -3.5h41z" />
    <glyph glyph-name="notequal" unicode="&#x2260;" horiz-adv-x="491" 
d="M269 464l55 133h44l-54 -133h115v-52h-136l-51 -124h187v-53h-208l-55 -135h-45l55 135h-114v53h135l51 124h-186v52h207z" />
    <glyph glyph-name="lessequal" unicode="&#x2264;" horiz-adv-x="491" 
d="M58 376v50l367 149v-61l-295 -113l295 -114v-60zM425 180v-53h-367v53h367z" />
    <glyph glyph-name="greaterequal" unicode="&#x2265;" horiz-adv-x="491" 
d="M66 227v60l295 114l-295 113v61l367 -149v-50zM433 180v-53h-367v53h367z" />
    <glyph glyph-name="lozenge" unicode="&#x25ca;" horiz-adv-x="539" 
d="M513 348l-216 -358h-55l-216 358l216 359h55zM100 348l169 -281l170 281l-170 282z" />
    <glyph glyph-name="uniF629" unicode="&#xf629;" horiz-adv-x="304" 
d="M179 49v-51h-49v51h-9q-36 0 -56 19.5t-20 57.5v118q0 37 20 57t56 20h9v51h49v-51h10q35 0 55 -20t20 -57v-20h-53v21q0 30 -29 30h-54q-29 0 -29 -30v-120q0 -30 29 -30h54q29 0 29 30v25h53v-24q0 -38 -20 -57.5t-55 -19.5h-10z" />
    <glyph glyph-name="uniF62A" unicode="&#xf62a;" horiz-adv-x="325" 
d="M186 -2v-56h-49v56h-15q-40 0 -61.5 19.5t-21.5 57.5v31h55v-32q0 -28 35 -28h64q36 0 36 28v43q0 12 -5.5 18.5t-13.5 9.5l-119 42q-17 5 -33 21t-16 46v41q0 37 21.5 57t61.5 20h12v56h49v-56h12q40 0 61.5 -20t21.5 -57v-34h-56v34q0 28 -35 28h-58q-35 0 -35 -28v-31
q0 -13 5.5 -19.5t16.5 -11.5l118 -40q24 -8 35.5 -25t11.5 -40v-53q0 -38 -21.5 -57.5t-61.5 -19.5h-15z" />
    <glyph glyph-name="uniF62B" unicode="&#xf62b;" horiz-adv-x="252" 
d="M199 175v-46h-146v46h146z" />
    <glyph glyph-name="uniF62C" unicode="&#xf62c;" horiz-adv-x="204" 
d="M54 329q0 38 21.5 58.5t59.5 20.5h31v-48h-27q-28 0 -28 -32v-287q0 -31 28 -31h27v-49h-31q-38 0 -59.5 21t-21.5 59v288z" />
    <glyph glyph-name="uniF62D" unicode="&#xf62d;" horiz-adv-x="204" 
d="M150 41q0 -38 -21.5 -59t-60.5 -21h-30v49h27q28 0 28 31v287q0 32 -28 32h-27v48h30q39 0 60.5 -20.5t21.5 -58.5v-288z" />
    <glyph glyph-name="uniF62E" unicode="&#xf62e;" horiz-adv-x="304" 
d="M179 377v-51h-49v51h-9q-36 0 -56 19.5t-20 57.5v118q0 37 20 57t56 20h9v51h49v-51h10q35 0 55 -20t20 -57v-20h-53v21q0 30 -29 30h-54q-29 0 -29 -30v-120q0 -30 29 -30h54q29 0 29 30v25h53v-24q0 -38 -20 -57.5t-55 -19.5h-10z" />
    <glyph glyph-name="uniF62F" unicode="&#xf62f;" horiz-adv-x="325" 
d="M186 326v-56h-49v56h-15q-40 0 -61.5 19.5t-21.5 57.5v31h55v-32q0 -28 35 -28h64q36 0 36 28v43q0 12 -5.5 18.5t-13.5 9.5l-119 42q-17 5 -33 21t-16 46v41q0 37 21.5 57t61.5 20h12v56h49v-56h12q40 0 61.5 -20t21.5 -57v-34h-56v34q0 28 -35 28h-58q-35 0 -35 -28
v-31q0 -13 5.5 -19.5t16.5 -11.5l118 -40q24 -8 35.5 -25t11.5 -40v-53q0 -38 -21.5 -57.5t-61.5 -19.5h-15z" />
    <glyph glyph-name="uniF630" unicode="&#xf630;" horiz-adv-x="252" 
d="M199 503v-46h-146v46h146z" />
    <glyph glyph-name="uniF631" unicode="&#xf631;" horiz-adv-x="204" 
d="M54 657q0 38 21.5 58.5t59.5 20.5h31v-48h-27q-28 0 -28 -32v-287q0 -31 28 -31h27v-49h-31q-38 0 -59.5 21t-21.5 59v288z" />
    <glyph glyph-name="uniF632" unicode="&#xf632;" horiz-adv-x="204" 
d="M150 369q0 -38 -21.5 -59t-60.5 -21h-30v49h27q28 0 28 31v287q0 32 -28 32h-27v48h30q39 0 60.5 -20.5t21.5 -58.5v-288z" />
    <glyph glyph-name="uniF655" unicode="&#xf655;" horiz-adv-x="353" 
d="M52 290q0 40 22 61t61 21h83q83 0 83 -82v-210q0 -82 -83 -82h-83q-39 0 -61 21t-22 61v210zM110 80q0 -34 33 -34h67q34 0 34 34v209q0 34 -34 34h-67q-33 0 -33 -34v-209z" />
    <glyph glyph-name="uniF656" unicode="&#xf656;" horiz-adv-x="301" 
d="M131 49v271h-92v49h149v-320h89v-49h-238v49h92z" />
    <glyph glyph-name="uniF657" unicode="&#xf657;" horiz-adv-x="337" 
d="M47 0v94q0 28 10 47.5t43 31.5l111 40q10 4 16 11t6 21v44q0 34 -35 34h-61q-34 0 -34 -34v-39h-54v43q0 38 20.5 58.5t60.5 20.5h76q82 0 82 -82v-46q0 -31 -14 -48t-35 -25l-114 -42q-16 -6 -19.5 -14t-3.5 -22v-44h192v-49h-247z" />
    <glyph glyph-name="uniF658" unicode="&#xf658;" horiz-adv-x="340" 
d="M124 -2q-39 0 -60 19t-21 56v31h56v-28q0 -30 33 -30h69q34 0 34 32v62q0 29 -31 29h-76v43h68q32 0 32 30v49q0 32 -34 32h-61q-34 0 -34 -29v-28h-54v26q0 38 21 59t59 21h78q38 0 59.5 -20.5t21.5 -59.5v-41q0 -43 -34 -57q23 -6 32 -21t9 -37v-62q0 -38 -21 -57
t-60 -19h-86z" />
    <glyph glyph-name="uniF659" unicode="&#xf659;" horiz-adv-x="338" 
d="M260 91v-91h-53v91h-181v44l184 235h50v-235h42v-44h-42zM207 296l-127 -161h127v161z" />
    <glyph glyph-name="uniF65A" unicode="&#xf65a;" horiz-adv-x="329" 
d="M125 -2q-38 0 -60 20t-22 60v24h56v-26q0 -30 34 -30h63q35 0 35 32v65q0 33 -35 33h-142v193h221v-48h-168v-99h98q39 0 60 -20.5t21 -58.5v-63q0 -41 -21 -61.5t-60 -20.5h-80z" />
    <glyph glyph-name="uniF65B" unicode="&#xf65b;" horiz-adv-x="341" 
d="M295 80q0 -82 -82 -82h-79q-39 0 -60.5 20.5t-21.5 61.5v209q0 41 21.5 62t60.5 21h78q38 0 60 -20t22 -59v-26h-56v26q0 30 -34 30h-61q-34 0 -34 -33v-78h111q36 0 55.5 -19t19.5 -54v-59zM205 46q35 0 35 33v54q0 33 -32 33h-99v-87q0 -33 34 -33h62z" />
    <glyph glyph-name="uniF65C" unicode="&#xf65c;" horiz-adv-x="302" 
d="M77 0l144 320h-195v49h253v-43l-144 -326h-58z" />
    <glyph glyph-name="uniF65D" unicode="&#xf65d;" horiz-adv-x="345" 
d="M128 -2q-38 0 -58 19.5t-20 57.5v59q0 23 10 38.5t31 21.5q-33 14 -33 58v42q0 38 20 58t58 20h75q38 0 58 -20t20 -58v-42q0 -43 -35 -58q21 -7 31 -22.5t10 -37.5v-59q0 -77 -76 -77h-91zM110 249q0 -36 36 -36h55q34 0 34 36v42q0 35 -34 35h-55q-36 0 -36 -35v-42z
M138 169q-34 0 -34 -36v-55q0 -35 34 -35h69q35 0 35 35v55q0 36 -35 36h-69z" />
    <glyph glyph-name="uniF65E" unicode="&#xf65e;" horiz-adv-x="340" 
d="M130 -2q-82 0 -82 79v25h55v-25q0 -31 33 -31h62q34 0 34 34v83h-111q-76 0 -76 73v54q0 41 21.5 61.5t60.5 20.5h80q39 0 60.5 -20.5t21.5 -61.5v-209q0 -42 -21.5 -62.5t-60.5 -20.5h-77zM232 209v81q0 35 -34 35h-62q-35 0 -35 -35v-48q0 -33 31 -33h100z" />
    <glyph glyph-name="uniF65F" unicode="&#xf65f;" horiz-adv-x="165" 
d="M117 48l-44 -103h-34l19 122h59v-19z" />
    <glyph glyph-name="uniF660" unicode="&#xf660;" horiz-adv-x="160" 
d="M51 67h58v-67h-58v67z" />
    <glyph glyph-name="uniF661" unicode="&#xf661;" horiz-adv-x="353" 
d="M52 618q0 40 22 61t61 21h83q83 0 83 -82v-210q0 -82 -83 -82h-83q-39 0 -61 21t-22 61v210zM110 408q0 -34 33 -34h67q34 0 34 34v209q0 34 -34 34h-67q-33 0 -33 -34v-209z" />
    <glyph glyph-name="uniF662" unicode="&#xf662;" horiz-adv-x="301" 
d="M131 377v271h-92v49h149v-320h89v-49h-238v49h92z" />
    <glyph glyph-name="uniF663" unicode="&#xf663;" horiz-adv-x="337" 
d="M47 328v94q0 28 10 47.5t43 31.5l111 40q10 4 16 11t6 21v44q0 34 -35 34h-61q-34 0 -34 -34v-39h-54v43q0 38 20.5 58.5t60.5 20.5h76q82 0 82 -82v-46q0 -31 -14 -48t-35 -25l-114 -42q-16 -6 -19.5 -14t-3.5 -22v-44h192v-49h-247z" />
    <glyph glyph-name="uniF664" unicode="&#xf664;" horiz-adv-x="340" 
d="M124 326q-39 0 -60 19t-21 56v31h56v-28q0 -30 33 -30h69q34 0 34 32v62q0 29 -31 29h-76v43h68q32 0 32 30v49q0 32 -34 32h-61q-34 0 -34 -29v-28h-54v26q0 38 21 59t59 21h78q38 0 59.5 -20.5t21.5 -59.5v-41q0 -43 -34 -57q23 -6 32 -21t9 -37v-62q0 -38 -21 -57
t-60 -19h-86z" />
    <glyph glyph-name="uniF665" unicode="&#xf665;" horiz-adv-x="338" 
d="M260 419v-91h-53v91h-181v44l184 235h50v-235h42v-44h-42zM207 624l-127 -161h127v161z" />
    <glyph glyph-name="uniF666" unicode="&#xf666;" horiz-adv-x="329" 
d="M125 326q-38 0 -60 20t-22 60v24h56v-26q0 -30 34 -30h63q35 0 35 32v65q0 33 -35 33h-142v193h221v-48h-168v-99h98q39 0 60 -20.5t21 -58.5v-63q0 -41 -21 -61.5t-60 -20.5h-80z" />
    <glyph glyph-name="uniF667" unicode="&#xf667;" horiz-adv-x="341" 
d="M295 408q0 -82 -82 -82h-79q-39 0 -60.5 20.5t-21.5 61.5v209q0 41 21.5 62t60.5 21h78q38 0 60 -20t22 -59v-26h-56v26q0 30 -34 30h-61q-34 0 -34 -33v-78h111q36 0 55.5 -19t19.5 -54v-59zM205 374q35 0 35 33v54q0 33 -32 33h-99v-87q0 -33 34 -33h62z" />
    <glyph glyph-name="uniF668" unicode="&#xf668;" horiz-adv-x="302" 
d="M77 328l144 320h-195v49h253v-43l-144 -326h-58z" />
    <glyph glyph-name="uniF669" unicode="&#xf669;" horiz-adv-x="345" 
d="M128 326q-38 0 -58 19.5t-20 57.5v59q0 23 10 38.5t31 21.5q-33 14 -33 58v42q0 38 20 58t58 20h75q38 0 58 -20t20 -58v-42q0 -43 -35 -58q21 -7 31 -22.5t10 -37.5v-59q0 -77 -76 -77h-91zM110 577q0 -36 36 -36h55q34 0 34 36v42q0 35 -34 35h-55q-36 0 -36 -35v-42z
M138 497q-34 0 -34 -36v-55q0 -35 34 -35h69q35 0 35 35v55q0 36 -35 36h-69z" />
    <glyph glyph-name="uniF66A" unicode="&#xf66a;" horiz-adv-x="340" 
d="M130 326q-82 0 -82 79v25h55v-25q0 -31 33 -31h62q34 0 34 34v83h-111q-76 0 -76 73v54q0 41 21.5 61.5t60.5 20.5h80q39 0 60.5 -20.5t21.5 -61.5v-209q0 -42 -21.5 -62.5t-60.5 -20.5h-77zM232 537v81q0 35 -34 35h-62q-35 0 -35 -35v-48q0 -33 31 -33h100z" />
    <glyph glyph-name="uniF66B" unicode="&#xf66b;" horiz-adv-x="165" 
d="M117 376l-44 -103h-34l19 122h59v-19z" />
    <glyph glyph-name="uniF66C" unicode="&#xf66c;" horiz-adv-x="160" 
d="M51 395h58v-67h-58v67z" />
    <glyph glyph-name="uniF6C3" unicode="&#xf6c3;" horiz-adv-x="220" 
d="M158 74l-57 -141h-42l28 164h71v-23z" />
    <glyph glyph-name="uniF8FF" unicode="&#xf8ff;" horiz-adv-x="1435" 
d="M386 488q11 0 11 -11v-6q9 7 22.5 14t35.5 7q18 0 30.5 -7.5t20.5 -18.5q8 7 23 16.5t41 9.5t41.5 -15.5t15.5 -38.5v-132q0 -11 -12 -11h-38q-13 0 -13 11v116q0 9 -2.5 12.5t-11.5 3.5q-11 0 -21.5 -5t-16.5 -10v-117q0 -11 -11 -11h-38q-12 0 -12 11v116
q0 9 -2.5 12.5t-12.5 3.5q-11 0 -21.5 -5t-15.5 -10v-117q0 -11 -10 -11h-41q-11 0 -11 11v171q0 11 11 11h38zM1051 488q12 0 12 -11l1 -7q8 7 22 14.5t38 7.5q29 0 43 -16t14 -44v-80q0 -29 -14 -45.5t-43 -16.5q-23 0 -36.5 7.5t-21.5 13.5v-83q0 -11 -11 -11h-40
q-11 0 -11 11v249q0 11 11 11h36zM304 388q0 -11 -12 -11h-93v-23q0 -18 23 -18q25 0 25 18v1q0 11 11 11h32q12 0 12 -11v-3q0 -28 -17.5 -45t-62.5 -17t-65 17t-20 45v79q0 29 20 45t65 16t63.5 -16t18.5 -45v-43zM1378 388q0 -11 -11 -11h-94v-23q0 -18 23 -18
q24 0 24 18v1q0 11 12 11h32q11 0 11 -11v-3q0 -28 -17 -45t-62 -17t-64.5 17t-19.5 45v79q0 29 19.5 45t64.5 16t63.5 -16t18.5 -45v-43zM880 407q4 -14 5.5 -25t1.5 -12q1 1 4.5 13.5t5.5 21.5l24 72q2 5 4 8t8 3h37q14 0 11 -11l-84 -249q-4 -11 -14 -11h-28
q-14 0 -11 11l16 59l-65 190q-4 11 11 11h40q6 0 8 -3t4 -8zM770 487q11 0 11 -10v-27q0 -11 -11 -11h-31v-77q0 -18 24 -18h10q12 0 12 -11v-27q0 -11 -12 -11h-19q-45 0 -61.5 14.5t-16.5 45.5v84h-17q-11 0 -11 11v25q0 8 11 11l16 1h1v36q0 12 12 12h39q12 0 12 -12v-36
h31zM480 98q0 -4 -4 -4h-114v-48q0 -14 10.5 -23.5t39.5 -9.5t38.5 9.5t9.5 23.5v8q0 4 6 4h9q5 0 5 -4v-9q0 -21 -14.5 -34.5t-54.5 -13.5q-39 0 -54 13.5t-15 34.5v102q0 21 15 34.5t55 13.5q39 0 53.5 -13.5t14.5 -34.5v-49zM162 171q8 6 25.5 15t41.5 9q28 0 41 -13
t13 -33v-144q0 -5 -4 -5h-11q-4 0 -4 5v140q0 14 -9.5 22.5t-29.5 8.5q-23 0 -39.5 -8.5t-22.5 -14.5v-148q0 -5 -4 -5h-11q-5 0 -5 5v183q0 4 5 4h9q5 0 5 -4v-17zM611 191q4 0 4 -4v-8q0 -5 -4 -5h-47v-124q0 -14 11 -23.5t39 -9.5h6q5 0 5 -5v-7q0 -5 -5 -5h-9
q-39 0 -52.5 12.5t-13.5 35.5v126h-25q-4 0 -4 5v7q0 4 4 5h25v41q0 5 4 5h11q4 0 4 -5v-41h47zM362 110h98v36q0 14 -10 23t-38 9q-29 0 -39.5 -9t-10.5 -23v-36zM1120 423q0 5 -2.5 10t-14.5 5q-11 0 -21 -5.5t-16 -9.5v-63q6 -4 16 -10t21 -6q12 0 14.5 6t2.5 11v62z
M199 417h48v11q0 18 -25 18q-23 0 -23 -18v-11zM1273 417h47v11q0 18 -24 18q-23 0 -23 -18v-11zM78 5q0 -5 -5 -5h-11q-4 0 -4 5v30q0 5 4 5h11q5 0 5 -5v-30z" />
    <glyph glyph-name="uniFB00" unicode="&#xfb00;" horiz-adv-x="684" 
d="M174 439v-439h-67v439h-83v59h83v65q0 134 134 134h86v-59h-87q-66 0 -66 -68v-72h152v-59h-152zM516 439v-439h-67v439h-83v59h83v65q0 134 134 134h86v-59h-87q-66 0 -66 -68v-72h152v-59h-152z" />
    <glyph glyph-name="uniFB03" unicode="&#xfb03;" horiz-adv-x="893" 
d="M755 501h67v-501h-67v501zM753 697h71v-102h-71v102zM174 439v-439h-67v439h-83v59h83v65q0 134 134 134h86v-59h-87q-66 0 -66 -68v-72h152v-59h-152zM516 439v-439h-67v439h-83v59h83v65q0 134 134 134h86v-59h-87q-66 0 -66 -68v-72h152v-59h-152z" />
    <glyph glyph-name="uniFB04" unicode="&#xfb04;" horiz-adv-x="896" 
d="M824 697v-697h-67v697h67zM174 439v-439h-67v439h-83v59h83v65q0 134 134 134h86v-59h-87q-66 0 -66 -68v-72h152v-59h-152zM516 439v-439h-67v439h-83v59h83v65q0 134 134 134h86v-59h-87q-66 0 -66 -68v-72h152v-59h-152z" />
    <glyph glyph-name="uniFB05" unicode="&#xfb05;" horiz-adv-x="612" 
d="M106 0v439h-81v59h81v65q0 134 134 134h80v-59h-81q-66 0 -66 -68v-570h-67zM591 0h-89q-64 0 -97 34t-33 97v308h-84v59h84v142h67v-142h151v-59h-151v-314q0 -66 66 -66h86v-59z" />
    <glyph glyph-name="uniFF10" unicode="&#xff10;" horiz-adv-x="586" 
d="M80 558q0 69 37 106t106 37h141q69 0 106 -37t37 -106v-419q0 -69 -37 -106t-106 -37h-141q-69 0 -106 37t-37 106v419zM362 58q74 0 74 77v427q0 77 -74 77h-137q-75 0 -75 -77v-427q0 -77 75 -77h137z" />
    <glyph glyph-name="uniFF11" unicode="&#xff11;" horiz-adv-x="586" 
d="M92 0v61h179v575h-179v61h249v-636h176v-61h-425z" />
    <glyph glyph-name="uniFF12" unicode="&#xff12;" horiz-adv-x="586" 
d="M84 0v172q0 48 17.5 82t73.5 56l213 82q20 8 32 21.5t12 47.5v104q0 74 -74 74h-127q-75 0 -75 -74v-89h-68v82q0 69 36.5 106t105.5 37h130q69 0 106 -37t37 -106v-95q0 -56 -25 -84.5t-60 -41.5l-216 -84q-33 -13 -40.5 -29.5t-7.5 -47.5v-114h357v-62h-427z" />
    <glyph glyph-name="uniFF13" unicode="&#xff13;" horiz-adv-x="586" 
d="M215 -4q-69 0 -105 33.5t-36 96.5v65h69v-68q0 -66 74 -66h139q75 0 75 72v137q0 65 -69 65h-139v60h125q69 0 69 66v112q0 71 -75 71h-123q-75 0 -75 -65v-69h-68v66q0 63 35.5 96t105.5 33h128q69 0 105.5 -34.5t36.5 -100.5v-96q0 -79 -58 -104q37 -11 54.5 -38.5
t17.5 -69.5v-126q0 -66 -36.5 -101t-105.5 -35h-144z" />
    <glyph glyph-name="uniFF14" unicode="&#xff14;" horiz-adv-x="586" 
d="M453 191v-191h-71v191h-340v58l347 450h64v-450h75v-58h-75zM382 599l-270 -350h270v350z" />
    <glyph glyph-name="uniFF15" unicode="&#xff15;" horiz-adv-x="586" 
d="M223 -4q-69 0 -105 33.5t-36 96.5v63h68v-67q0 -34 19.5 -50t55.5 -16h138q75 0 75 72v150q0 71 -75 71h-268v348h393v-62h-324v-226h202q69 0 105.5 -34.5t36.5 -100.5v-142q0 -66 -36.5 -101t-105.5 -35h-143z" />
    <glyph glyph-name="uniFF16" unicode="&#xff16;" horiz-adv-x="586" 
d="M512 139q0 -70 -36.5 -106.5t-105.5 -36.5h-142q-69 0 -105.5 36.5t-36.5 106.5v419q0 70 36.5 106.5t105.5 36.5h138q68 0 104.5 -34t36.5 -99v-57h-69v60q0 68 -75 68h-132q-75 0 -75 -74v-167h220q67 0 101.5 -34t34.5 -99v-126zM367 58q75 0 75 74v136q0 68 -69 68
h-217v-204q0 -74 75 -74h136z" />
    <glyph glyph-name="uniFF17" unicode="&#xff17;" horiz-adv-x="586" 
d="M168 0l276 635h-374v62h447v-54l-278 -643h-71z" />
    <glyph glyph-name="uniFF18" unicode="&#xff18;" horiz-adv-x="586" 
d="M221 -4q-69 0 -106 36t-37 103v111q0 94 74 119q-64 28 -64 117v80q0 67 36.5 103t105.5 36h126q69 0 106 -36t37 -103v-80q0 -89 -65 -117q74 -25 74 -119v-111q0 -67 -37 -103t-106 -36h-144zM232 641q-75 0 -75 -75v-100q0 -74 75 -74h123q36 0 55.5 18.5t19.5 55.5
v100q0 37 -19.5 56t-55.5 19h-123zM223 333q-38 0 -56.5 -19.5t-18.5 -55.5v-127q0 -75 75 -75h141q36 0 55.5 19t19.5 56v127q0 36 -19.5 55.5t-55.5 19.5h-141z" />
    <glyph glyph-name="uniFF19" unicode="&#xff19;" horiz-adv-x="586" 
d="M220 -4q-69 0 -105 34t-36 99v57h69v-60q0 -68 74 -68h133q75 0 75 74v180h-220q-67 0 -101.5 34.5t-34.5 99.5v112q0 70 36.5 106.5t105.5 36.5h141q72 0 107.5 -36.5t35.5 -106.5v-419q0 -70 -36.5 -106.5t-106.5 -36.5h-137zM430 374v191q0 74 -75 74h-136
q-75 0 -75 -74v-122q0 -69 69 -69h217z" />
    <glyph glyph-name="glyph390" horiz-adv-x="236" 
d="M60 877h66l48 -132h-46l-68 117v15z" />
    <glyph glyph-name="glyph391" horiz-adv-x="264" 
d="M49 850h56v-79h-56v79zM159 850h56v-79h-56v79z" />
    <glyph glyph-name="glyph392" horiz-adv-x="324" 
d="M36 822h252v-48h-252v48z" />
    <glyph glyph-name="glyph393" horiz-adv-x="236" 
d="M174 862l-67 -117h-47l48 132h66v-15z" />
    <glyph glyph-name="glyph394" horiz-adv-x="277" 
d="M138 833l-65 -88h-47l85 132h54l86 -132h-48z" />
    <glyph glyph-name="glyph395" horiz-adv-x="277" 
d="M26 877h47l65 -88l65 88h48l-86 -132h-54z" />
    <glyph glyph-name="glyph396" horiz-adv-x="337" 
d="M294 890v-60q0 -43 -25 -65t-72 -22h-56q-47 0 -72 22t-25 65v60h47v-59q0 -47 53 -47h51q52 0 52 47v59h47z" />
    <glyph glyph-name="glyph397" horiz-adv-x="221" 
d="M77 877h67v-90h-67v90z" />
    <glyph glyph-name="glyph398" horiz-adv-x="287" 
d="M161 927q83 0 83 -78v-30q0 -79 -83 -79h-35q-83 0 -83 79v30q0 78 83 78h35zM126 888q-40 0 -40 -40v-29q0 -40 40 -40h36q40 0 40 40v29q0 40 -40 40h-36z" />
    <glyph glyph-name="glyph399" horiz-adv-x="373" 
d="M274 799q27 0 27 25v39h43v-47q0 -62 -65 -62h-23q-15 0 -29 5t-24 11l-52 34q-7 5 -17 9t-20 4h-14q-28 0 -28 -25v-38h-43v46q0 63 65 63h26q14 0 27.5 -5t23.5 -11l52 -34q7 -5 17 -9.5t20 -4.5h14v0z" />
    <glyph glyph-name="glyph400" horiz-adv-x="296" 
d="M137 862l-64 -117h-38l44 132h58v-15zM260 862l-96 -117h-38l76 132h58v-15z" />
    <glyph glyph-name="glyph401" horiz-adv-x="282" 
d="M183 675l-50 -122h-39l26 144h63v-22z" />
    <glyph glyph-name="glyph402" horiz-adv-x="290" 
d="M196 74l-54 -121h-42l25 144h71v-23z" />
    </font>
</defs>
</svg>
